<svg preserveAspectRatio="none" width="100%" height="100%" overflow="visible" style="display: block;" viewBox="0 0 180.235 180.209" fill="none" xmlns="http://www.w3.org/2000/svg">
<g id="shape">
<path d="M99.7699 10.7845L98.03 10.6645L97.2759 8.1106L92.8145 7.80303L91.7329 10.2304L89.9691 10.1088L94.6675 0L96.5271 0.128199L99.7699 10.7845ZM95.4348 1.89727L93.4034 6.47238L96.8592 6.71063L95.4348 1.89727Z" fill="var(--fill-0, #BD9B60)"/>
<path d="M107.616 7.72191L106.242 7.26065C104.373 6.63456 103.482 5.41841 103.834 3.79213C104.239 1.92348 105.946 1.07355 108.291 1.5817C110.543 2.06952 111.764 3.61105 111.523 5.6706L109.889 5.31659C109.958 4.01375 109.369 3.25589 107.978 2.95439C106.672 2.67152 105.673 3.12633 105.463 4.09584C105.29 4.89334 105.735 5.40727 106.88 5.82723L108.174 6.27937C110.287 6.99093 111.148 8.1925 110.772 9.92823C110.405 11.6249 108.838 12.4723 106.77 12.1553L106.448 12.6586L106.566 12.684C107.34 12.8517 107.748 13.5376 107.566 14.3742C107.383 15.2186 106.672 15.6294 105.742 15.4278L104.444 15.1467L104.663 14.1381L105.796 14.3837C106.164 14.4633 106.395 14.3414 106.459 14.0443C106.523 13.7472 106.35 13.5295 106.006 13.4549L105.591 13.3652L105.336 12.7695L105.818 11.9409C103.715 11.2969 102.645 9.77195 102.846 7.90004L104.504 8.25913C104.429 9.58543 105.145 10.3626 106.693 10.6979C107.952 10.9707 108.938 10.5376 109.149 9.56028C109.327 8.73932 108.799 8.11737 107.616 7.72191Z" fill="var(--fill-0, #BD9B60)"/>
<path d="M117.078 3.85991L118.628 4.44272L117.13 8.42643L121.93 10.2312L123.428 6.24747L124.956 6.82183L121.293 16.564L119.765 15.9896L121.384 11.6839L116.584 9.87914L114.965 14.1848L113.415 13.602L117.078 3.85991Z" fill="var(--fill-0, #BD9B60)"/>
<path d="M132.658 22.4716L131.137 21.6179L131.55 18.9871L127.65 16.7981L125.633 18.5282L124.091 17.6628L132.667 10.541L134.293 11.4535L132.658 22.4716ZM132.548 12.5841L128.752 15.848L131.773 17.5436L132.548 12.5841Z" fill="var(--fill-0, #BD9B60)"/>
<path d="M147.073 20.1161L148.358 21.1225L141.94 29.316L140.567 28.2406L141.506 18.7126L136.523 25.0734L135.22 24.0522L141.638 15.8587L143.282 17.1463L142.312 26.1936L147.073 20.1161Z" fill="var(--fill-0, #BD9B60)"/>
<path d="M159.712 52.7491C160.274 52.3264 160.795 51.7086 161.275 50.8958C161.765 50.0781 162.105 49.0979 162.294 47.9551C162.489 46.8218 162.461 45.8036 162.21 44.9006L162.807 44.5919C163.413 45.2992 164.163 45.8901 165.056 46.3646C165.965 46.8436 166.913 47.1455 167.903 47.2704C168.916 47.3949 169.824 47.3396 170.627 47.1044L170.935 47.7013C170.506 48.0316 170.106 48.4545 169.736 48.97C169.376 49.4806 169.071 50.0525 168.822 50.6856C168.587 51.3233 168.42 51.9863 168.32 52.6747C168.176 53.6976 168.22 54.6416 168.451 55.5067L167.854 55.8154C167.481 55.3482 166.988 54.9184 166.377 54.526C165.771 54.143 165.122 53.8298 164.432 53.5864C163.751 53.3381 163.091 53.1873 162.451 53.134C161.51 53.0561 160.7 53.1268 160.021 53.346L159.712 52.7491Z" fill="var(--fill-0, #BD9B60)"/>
<path d="M170.026 90.429L169.944 88.687L172.393 87.6422L172.182 83.1752L169.646 82.382L169.562 80.616L180.147 84.1122L180.235 85.9741L170.026 90.429ZM178.352 85.0941L173.572 83.606L173.736 87.0662L178.352 85.0941Z" fill="var(--fill-0, #BD9B60)"/>
<path d="M173.984 97.8603L174.281 96.4422C174.684 94.512 175.787 93.485 177.444 93.6446C179.347 93.8279 180.391 95.4233 180.161 97.8123C179.94 100.106 178.552 101.499 176.478 101.5L176.638 99.8359C177.94 99.7524 178.624 99.0788 178.761 97.6614C178.889 96.3315 178.32 95.3927 177.333 95.2976C176.521 95.2193 176.062 95.7217 175.779 96.908L175.482 98.2457C175.022 100.428 173.93 101.424 172.162 101.253C170.434 101.087 169.409 99.6298 169.482 97.5391L168.944 97.2784L168.933 97.3978C168.857 98.1862 168.223 98.6717 167.371 98.5896C166.511 98.5068 166.02 97.8486 166.111 96.901L166.239 95.5792L167.266 95.6781L167.155 96.8328C167.119 97.207 167.267 97.4222 167.569 97.4514C167.872 97.4805 168.068 97.2824 168.102 96.932L168.142 96.5099L168.704 96.1863L169.583 96.5684C169.977 94.4041 171.366 93.1636 173.248 93.144L173.086 94.8322C171.76 94.9135 171.072 95.7152 170.92 97.2919C170.797 98.574 171.342 99.5025 172.337 99.5984C173.174 99.679 173.729 99.0815 173.984 97.8603Z" fill="var(--fill-0, #BD9B60)"/>
<path d="M178.925 106.808L178.528 108.416L174.396 107.393L173.164 112.371L177.295 113.394L176.903 114.978L166.8 112.477L167.192 110.892L171.657 111.998L172.89 107.02L168.425 105.915L168.822 104.307L178.925 106.808Z" fill="var(--fill-0, #BD9B60)"/>
<path d="M162.247 124.449L162.92 122.839L165.581 122.945L167.305 118.819L165.353 117.015L166.035 115.384L174.099 123.08L173.381 124.8L162.247 124.449ZM172.056 123.198L168.376 119.804L167.04 123L172.056 123.198Z" fill="var(--fill-0, #BD9B60)"/>
<path d="M166.254 138.493L165.403 139.886L156.522 134.458L157.432 132.97L167.004 132.801L160.11 128.588L160.974 127.175L169.854 132.602L168.765 134.384L159.667 134.467L166.254 138.493Z" fill="var(--fill-0, #BD9B60)"/>
<path d="M131.096 157.583C131.548 158.122 132.192 158.61 133.029 159.047C133.871 159.493 134.868 159.781 136.019 159.91C137.161 160.045 138.176 159.964 139.065 159.666L139.405 160.246C138.73 160.888 138.179 161.668 137.752 162.585C137.322 163.517 137.07 164.48 136.997 165.475C136.926 166.493 137.029 167.397 137.306 168.187L136.726 168.526C136.373 168.114 135.93 167.737 135.396 167.395C134.867 167.062 134.28 166.788 133.635 166.572C132.986 166.371 132.315 166.239 131.622 166.175C130.593 166.085 129.653 166.179 128.801 166.455L128.461 165.875C128.908 165.477 129.312 164.963 129.671 164.332C130.022 163.706 130.301 163.043 130.508 162.34C130.72 161.648 130.836 160.98 130.856 160.338C130.884 159.395 130.771 158.589 130.516 157.922L131.096 157.583Z" fill="var(--fill-0, #BD9B60)"/>
<path d="M88.9129 169.949L90.6558 169.886L91.6721 172.348L96.1412 172.189L96.9638 169.662L98.7307 169.599L95.1117 180.142L93.2489 180.209L88.9129 169.949ZM94.1508 178.335L95.6942 173.573L92.2324 173.697L94.1508 178.335Z" fill="var(--fill-0, #BD9B60)"/>
<path d="M81.4329 173.817L82.8473 174.131C84.7725 174.557 85.786 175.673 85.6064 177.328C85.4 179.228 83.7921 180.253 81.4061 179.994C79.1155 179.745 77.7391 178.34 77.7631 176.267L79.4253 176.447C79.4931 177.75 80.1583 178.442 81.574 178.596C82.9022 178.74 83.8478 178.183 83.9549 177.197C84.0429 176.385 83.5462 175.921 82.3633 175.624L81.0294 175.31C78.8531 174.824 77.8706 173.72 78.0623 171.954C78.2497 170.228 79.719 169.221 81.8086 169.319L82.0758 168.785L81.9565 168.772C81.1691 168.686 80.6913 168.047 80.7837 167.196C80.877 166.337 81.541 165.854 82.4874 165.957L83.8077 166.1L83.6963 167.126L82.5431 167.001C82.1693 166.96 81.9523 167.106 81.9195 167.408C81.8867 167.71 82.0824 167.908 82.4324 167.946L82.8539 167.992L83.1707 168.558L82.778 169.432C84.9373 169.852 86.1609 171.256 86.1577 173.139L84.4716 172.956C84.4064 171.629 83.6131 170.931 82.0384 170.76C80.7579 170.621 79.8228 171.155 79.7148 172.15C79.6242 172.985 80.2149 173.548 81.4329 173.817Z" fill="var(--fill-0, #BD9B60)"/>
<path d="M72.4327 178.652L70.8298 178.236L71.8996 174.117L66.9362 172.828L65.8665 176.947L64.2868 176.537L66.9029 166.463L68.4825 166.873L67.3263 171.326L72.2897 172.614L73.4459 168.162L75.0487 168.578L72.4327 178.652Z" fill="var(--fill-0, #BD9B60)"/>
<path d="M54.9819 161.779L56.5837 162.469L56.4487 165.129L60.556 166.898L62.3809 164.966L64.0047 165.665L56.2214 173.645L54.5094 172.908L54.9819 161.779ZM56.1263 171.601L59.5593 167.958L56.3778 166.588L56.1263 171.601Z" fill="var(--fill-0, #BD9B60)"/>
<path d="M40.8941 165.632L39.511 164.766L45.0352 155.945L46.5133 156.871L46.5775 166.445L50.8661 159.597L52.2696 160.476L46.7454 169.297L44.9757 168.189L44.9917 159.09L40.8941 165.632Z" fill="var(--fill-0, #BD9B60)"/>
<path d="M22.2073 130.249C21.6633 130.694 21.1681 131.333 20.7218 132.165C20.2662 133.002 19.9674 133.996 19.8252 135.145C19.6777 136.286 19.748 137.302 20.0359 138.194L19.4523 138.527C18.8176 137.845 18.0439 137.286 17.1312 136.849C16.204 136.407 15.2436 136.145 14.2501 136.061C13.2327 135.979 12.3277 136.071 11.5351 136.339L11.202 135.756C11.6176 135.408 11.9995 134.969 12.3477 134.439C12.6867 133.914 12.9675 133.33 13.1901 132.687C13.3982 132.04 13.5381 131.371 13.6099 130.679C13.711 129.651 13.6282 128.709 13.3614 127.854L13.945 127.521C14.3377 127.973 14.8475 128.382 15.4745 128.749C16.0961 129.106 16.7568 129.392 17.4566 129.607C18.1471 129.827 18.8132 129.95 19.4548 129.977C20.3981 130.016 21.2046 129.912 21.8742 129.665L22.2073 130.249Z" fill="var(--fill-0, #BD9B60)"/>
<path d="M10.3056 87.93L10.3492 89.6734L7.87715 90.6635L7.98889 95.1341L10.5069 95.9835L10.5511 97.7509L0.046575 94.0202L0 92.1568L10.3056 87.93ZM1.86361 93.0785L6.60892 94.6725L6.52237 91.2095L1.86361 93.0785Z" fill="var(--fill-0, #BD9B60)"/>
<path d="M6.52538 80.4021L6.19386 81.8125C5.74439 83.7325 4.61635 84.7324 2.96435 84.5329C1.06615 84.3036 0.0611781 82.6834 0.348966 80.3007C0.625243 78.0133 2.0465 76.654 4.11959 76.7029L3.9191 78.3628C2.61545 78.4149 1.91564 79.0717 1.74489 80.4854C1.58469 81.8118 2.13043 82.7641 3.11527 82.8831C3.92539 82.9809 4.39567 82.4898 4.70731 81.3106L5.03718 79.9806C5.54912 77.8103 6.66538 76.8412 8.42857 77.0541C10.152 77.2623 11.1416 78.7436 11.0183 80.8319L11.5493 81.1056L11.5637 80.9864C11.6586 80.2002 12.3036 79.7301 13.1535 79.8328C14.0112 79.9364 14.4863 80.6062 14.3722 81.5513L14.2129 82.8697L13.1884 82.746L13.3275 81.5943C13.3726 81.2211 13.2298 81.0023 12.928 80.9659C12.6262 80.9294 12.4255 81.1228 12.3833 81.4722L12.3325 81.8932L11.7632 82.2031L10.8933 81.7999C10.4478 83.954 9.02884 85.1606 7.14636 85.1347L7.34973 83.4509C8.67721 83.4018 9.38443 82.6169 9.57437 81.0443C9.72881 79.7656 9.20594 78.8241 8.21315 78.7042C7.37921 78.6035 6.80909 79.1873 6.52538 80.4021Z" fill="var(--fill-0, #BD9B60)"/>
<path d="M1.79636 71.3495L2.23072 69.7515L6.3377 70.8678L7.68275 65.9193L3.57576 64.803L4.00383 63.2281L14.0474 65.9581L13.6194 67.533L9.18041 66.3264L7.83537 71.2749L12.2743 72.4814L11.84 74.0794L1.79636 71.3495Z" fill="var(--fill-0, #BD9B60)"/>
<path d="M18.8608 54.0873L18.1538 55.6815L15.4959 55.518L13.683 59.606L15.595 61.4516L14.8782 63.0678L6.98218 55.1992L7.73784 53.4952L18.8608 54.0873ZM9.02744 55.126L12.6335 58.598L14.0378 55.4314L9.02744 55.126Z" fill="var(--fill-0, #BD9B60)"/>
<path d="M15.1869 39.947L16.0709 38.5752L24.8196 44.2132L23.8748 45.6792L14.3008 45.6194L21.0926 49.9964L20.1956 51.3883L11.4469 45.7503L12.578 43.9952L21.6761 44.129L15.1869 39.947Z" fill="var(--fill-0, #BD9B60)"/>
<path d="M55.2149 19.2957C54.8118 18.7195 54.2124 18.1774 53.4166 17.6693C52.6163 17.1516 51.6484 16.7783 50.5128 16.5495C49.3869 16.316 48.3683 16.3091 47.4572 16.5286L47.1693 15.9214C47.8971 15.3402 48.5135 14.6111 49.0185 13.7342C49.5286 12.8431 49.863 11.9053 50.022 10.921C50.1814 9.91281 50.1574 9.00337 49.9501 8.19269L50.5573 7.90477C50.8725 8.34554 51.2814 8.75964 51.7838 9.14707C52.2817 9.52485 52.8427 9.84908 53.4669 10.1198C54.0961 10.3762 54.753 10.5665 55.4374 10.6905C56.4548 10.8692 57.3997 10.8579 58.2723 10.6567L58.5602 11.2639C58.0804 11.6212 57.6339 12.0986 57.2206 12.6959C56.817 13.2887 56.4816 13.9258 56.2145 14.6073C55.9428 15.2791 55.7693 15.934 55.694 16.5718C55.5838 17.5094 55.6264 18.3214 55.8221 19.0078L55.2149 19.2957Z" fill="var(--fill-0, #BD9B60)"/>
</g>
</svg>
