<svg preserveAspectRatio="none" width="100%" height="100%" overflow="visible" style="display: block;" viewBox="0 0 12 12" fill="none" xmlns="http://www.w3.org/2000/svg">
<g id="Frame">
<path id="Vector" d="M10.8979 3.77348L4.89795 9.77348C4.84569 9.82592 4.78359 9.86752 4.71522 9.89591C4.64685 9.9243 4.57354 9.93892 4.49951 9.93892C4.42548 9.93892 4.35217 9.9243 4.2838 9.89591C4.21543 9.86752 4.15333 9.82592 4.10107 9.77348L1.47607 7.14848C1.42375 7.09615 1.38224 7.03404 1.35393 6.96567C1.32561 6.89731 1.31104 6.82404 1.31104 6.75004C1.31104 6.67604 1.32561 6.60277 1.35393 6.53441C1.38224 6.46604 1.42375 6.40392 1.47607 6.3516C1.5284 6.29928 1.59051 6.25777 1.65888 6.22945C1.72724 6.20114 1.80051 6.18656 1.87451 6.18656C1.94851 6.18656 2.02178 6.20114 2.09014 6.22945C2.15851 6.25777 2.22062 6.29928 2.27295 6.3516L4.49998 8.57863L10.102 2.97754C10.2077 2.87187 10.351 2.8125 10.5004 2.8125C10.6499 2.8125 10.7932 2.87187 10.8989 2.97754C11.0046 3.08321 11.0639 3.22653 11.0639 3.37598C11.0639 3.52542 11.0046 3.66874 10.8989 3.77441L10.8979 3.77348Z" fill="var(--fill-0, #F8F5EE)"/>
</g>
</svg>
