<svg preserveAspectRatio="none" width="100%" height="100%" overflow="visible" style="display: block;" viewBox="0 0 18 18" fill="none" xmlns="http://www.w3.org/2000/svg">
<g id="Frame">
<path id="Vector" d="M14.4605 8.27297C14.4082 8.32527 14.3462 8.36676 14.2779 8.39506C14.2096 8.42337 14.1364 8.43794 14.0625 8.43794C13.9886 8.43794 13.9154 8.42337 13.8471 8.39506C13.7788 8.36676 13.7168 8.32527 13.6645 8.27297L9.5625 4.17023V15.1875C9.5625 15.3367 9.50324 15.4798 9.39775 15.5852C9.29226 15.6907 9.14918 15.75 9 15.75C8.85082 15.75 8.70774 15.6907 8.60225 15.5852C8.49676 15.4798 8.4375 15.3367 8.4375 15.1875V4.17023L4.33547 8.27297C4.22992 8.37852 4.08677 8.43781 3.9375 8.43781C3.78823 8.43781 3.64508 8.37852 3.53953 8.27297C3.43398 8.16742 3.37469 8.02427 3.37469 7.875C3.37469 7.72573 3.43398 7.58258 3.53953 7.47703L8.60203 2.41453C8.65427 2.36223 8.71631 2.32074 8.7846 2.29244C8.85288 2.26413 8.92608 2.24956 9 2.24956C9.07392 2.24956 9.14712 2.26413 9.2154 2.29244C9.28369 2.32074 9.34573 2.36223 9.39797 2.41453L14.4605 7.47703C14.5128 7.52927 14.5543 7.59131 14.5826 7.6596C14.6109 7.72788 14.6254 7.80108 14.6254 7.875C14.6254 7.94892 14.6109 8.02212 14.5826 8.0904C14.5543 8.15869 14.5128 8.22073 14.4605 8.27297Z" fill="var(--fill-0, #BD9B60)"/>
</g>
</svg>
