<svg width="123" height="47" viewBox="0 0 123 47" fill="none" xmlns="http://www.w3.org/2000/svg">
<g clip-path="url(#clip0_1_125)">
<path d="M65.6627 13.419L74.2017 12.1967L64.0788 10.9831L68.0987 6.10267L61.4534 11.6545L63.218 8.53858L62.0043 0L60.782 10.1223L55.9013 6.10267L61.4534 12.7476L58.3373 10.9831L49.7983 12.1967L59.9298 13.419L55.9013 18.2994L62.5466 12.7476L60.782 15.8549L62.0043 24.4021L63.218 14.2711L68.0987 18.2994L62.5466 11.6545L65.6627 13.419Z" fill="#4B3D2A"/>
<path d="M6.18196 32.2951C6.36273 31.8045 6.42299 31.7184 6.50906 31.7184C6.59514 31.7184 6.6554 31.7959 6.83617 32.252C7.05997 32.8201 9.39272 38.9486 10.2965 41.2124C10.8302 42.5379 11.2606 42.7703 11.5705 42.865C11.7943 42.9425 12.0181 42.9511 12.1645 42.9511C12.2505 42.9511 12.3108 42.9683 12.3108 43.0372C12.3108 43.1232 12.1731 43.1577 12.0095 43.1577C11.7857 43.1577 10.7011 43.1577 9.67678 43.1232C9.39272 43.106 9.22917 43.106 9.22917 43.02C9.22917 42.9597 9.27221 42.9339 9.33246 42.9167C9.41854 42.8822 9.51323 42.7531 9.41854 42.5121L8.03267 38.854C8.00684 38.7937 7.97241 38.7679 7.90355 38.7679H4.71001C4.63254 38.7679 4.5895 38.8109 4.56368 38.8884L3.66845 41.5137C3.53933 41.8838 3.46186 42.2453 3.46186 42.5121C3.46186 42.8048 3.77175 42.9425 4.02998 42.9425H4.17632C4.27961 42.9425 4.32265 42.9683 4.32265 43.0286C4.32265 43.1146 4.23657 43.1491 4.09885 43.1491C3.74592 43.1491 3.10033 43.106 2.93678 43.106C2.77323 43.106 1.95548 43.1491 1.25824 43.1491C1.06886 43.1491 0.974174 43.1146 0.974174 43.0286C0.974174 42.9683 1.03443 42.9425 1.1119 42.9425C1.2152 42.9425 1.42179 42.9253 1.5423 42.9167C2.22232 42.8306 2.5236 42.2625 2.79044 41.5223L6.16475 32.2951H6.18196ZM7.73139 38.2428C7.80886 38.2428 7.80886 38.1998 7.79164 38.1395L6.37995 34.1285C6.30247 33.9047 6.23361 33.9047 6.15614 34.1285L4.84774 38.1395C4.82191 38.217 4.84774 38.2428 4.89078 38.2428H7.73139Z" fill="#BD9B60"/>
<path d="M34.9238 36.7882C36.6798 38.1654 37.093 39.0864 37.093 40.2828C37.093 40.8939 36.852 42.0215 35.8276 42.7445C35.5436 42.9339 35.2509 43.0716 34.9238 43.1749C34.743 43.2782 34.0028 43.9926 33.865 44.1217C34.7861 44.2078 35.3542 44.5693 35.3542 45.1718C35.3542 45.7743 34.8033 46.1789 34.2954 46.3941C33.8908 46.5748 33.4174 46.6609 33.1334 46.6609C33.0301 46.6609 32.944 46.6179 32.944 46.5404C32.944 46.4113 33.0731 46.3941 33.2366 46.3769C33.7617 46.3166 34.3385 46.0067 34.3385 45.4731C34.3385 45.0427 34.1491 44.6382 33.2711 44.3885C33.1075 44.3455 33.0473 44.3111 33.0473 44.2594C33.0473 44.2164 33.1075 44.1561 33.2366 44.0528L34.1147 43.3212C34.0286 43.3384 33.9339 43.347 33.8478 43.347C33.7617 43.3643 33.667 43.3643 33.581 43.3643C32.8837 43.3643 32.1951 43.261 31.5925 42.9597C31.3859 42.8564 31.3687 42.7962 31.3687 42.3916C31.3687 41.6514 31.429 41.0575 31.4462 40.8164C31.4634 40.6529 31.4892 40.5754 31.5667 40.5754C31.6528 40.5754 31.67 40.6185 31.67 40.739C31.67 40.8767 31.67 41.0833 31.713 41.2899C31.9369 42.3916 32.9182 42.8048 33.9081 42.8048C35.337 42.8048 36.0342 41.7805 36.0342 40.8251C36.0342 39.8008 35.6038 39.2069 34.3299 38.1481L33.6584 37.5973C32.0832 36.3062 31.7303 35.3852 31.7303 34.3781C31.7303 32.7857 32.9182 31.7012 34.8033 31.7012C35.38 31.7012 35.8104 31.7614 36.1806 31.8475C36.4646 31.9077 36.5851 31.925 36.697 31.925C36.8089 31.925 36.8434 31.9508 36.8434 32.0283C36.8434 32.1057 36.7831 32.5963 36.7831 33.6034C36.7831 33.8444 36.7573 33.9477 36.6798 33.9477C36.5937 33.9477 36.5765 33.8702 36.5593 33.7583C36.5421 33.5776 36.456 33.1817 36.3613 33.0181C36.2752 32.8546 35.8707 32.2348 34.502 32.2348C33.4777 32.2348 32.6771 32.8718 32.6771 33.9563C32.6771 34.7998 33.0645 35.3335 34.4934 36.4525L34.9066 36.7796L34.9238 36.7882Z" fill="#BD9B60"/>
<path d="M66.4116 38.8454C66.4116 40.2742 66.4116 41.4448 66.489 42.0732C66.5321 42.5035 66.6268 42.8306 67.0658 42.8909C67.2723 42.9167 67.5994 42.9511 67.7372 42.9511C67.8233 42.9511 67.8577 42.9942 67.8577 43.0372C67.8577 43.1147 67.7802 43.1577 67.6167 43.1577C66.7989 43.1577 65.8606 43.1147 65.7918 43.1147C65.7229 43.1147 64.7847 43.1577 64.3371 43.1577C64.1735 43.1577 64.1046 43.1319 64.1046 43.0372C64.1046 42.9942 64.1305 42.9511 64.2251 42.9511C64.3543 42.9511 64.535 42.9253 64.6728 42.8909C64.974 42.8306 65.0429 42.5035 65.1032 42.0732C65.1806 41.4534 65.1806 40.2742 65.1806 38.8454V37.2874C65.1806 37.2272 65.1376 37.2013 65.0945 37.2013H58.7936C58.7505 37.2013 58.7075 37.2186 58.7075 37.2874V38.8454C58.7075 40.2742 58.7075 41.4448 58.7849 42.0732C58.828 42.5035 58.9227 42.8306 59.3617 42.8909C59.5683 42.9167 59.8954 42.9511 60.0331 42.9511C60.1192 42.9511 60.1536 42.9942 60.1536 43.0372C60.1536 43.1147 60.0761 43.1577 59.9126 43.1577C59.0948 43.1577 58.1566 43.1147 58.0877 43.1147C58.0188 43.1147 57.0806 43.1577 56.633 43.1577C56.4694 43.1577 56.3919 43.1319 56.3919 43.0372C56.3919 42.9942 56.4178 42.9511 56.5125 42.9511C56.6502 42.9511 56.8223 42.9253 56.9601 42.8909C57.2613 42.8306 57.3302 42.5035 57.3905 42.0732C57.4679 41.4534 57.4679 40.2742 57.4679 38.8454V36.2287C57.4679 33.9133 57.4679 33.5001 57.4421 33.0181C57.4077 32.5103 57.2958 32.2779 56.8051 32.1746C56.6846 32.1488 56.435 32.1316 56.2973 32.1316C56.237 32.1316 56.1767 32.1057 56.1767 32.0455C56.1767 31.9594 56.2542 31.925 56.4178 31.925C57.0892 31.925 58.0188 31.968 58.0963 31.968C58.1738 31.968 59.1034 31.925 59.551 31.925C59.7146 31.925 59.7921 31.9508 59.7921 32.0455C59.7921 32.1057 59.7318 32.1316 59.6716 32.1316C59.5683 32.1316 59.4736 32.1488 59.3014 32.1746C58.8968 32.2521 58.7849 32.5017 58.7505 33.0181C58.7161 33.4915 58.7161 33.9133 58.7161 36.2287V36.5386C58.7161 36.616 58.7591 36.6246 58.8022 36.6246H65.1032C65.1462 36.6246 65.1892 36.6074 65.1892 36.5386V36.2287C65.1892 33.9133 65.1892 33.5001 65.1634 33.0181C65.129 32.5103 65.0171 32.2779 64.5264 32.1746C64.4059 32.1488 64.1563 32.1316 64.0186 32.1316C63.9583 32.1316 63.898 32.1057 63.898 32.0455C63.898 31.9594 63.9755 31.925 64.1391 31.925C64.8105 31.925 65.7401 31.968 65.8176 31.968C65.8951 31.968 66.8247 31.925 67.2723 31.925C67.4359 31.925 67.5134 31.9508 67.5134 32.0455C67.5134 32.1057 67.4531 32.1316 67.3929 32.1316C67.2896 32.1316 67.2035 32.1488 67.0227 32.1746C66.6181 32.2521 66.5062 32.5017 66.4718 33.0181C66.446 33.4915 66.446 33.9133 66.446 36.2287V38.8454H66.4116Z" fill="#BD9B60"/>
<path d="M88.9815 32.2951C89.1623 31.8045 89.2225 31.7184 89.3086 31.7184C89.3947 31.7184 89.455 31.7959 89.6357 32.252C89.8595 32.8201 92.1923 38.9486 93.0961 41.2124C93.6298 42.5379 94.0602 42.7703 94.3701 42.865C94.5939 42.9425 94.8177 42.9511 94.964 42.9511C95.0501 42.9511 95.1104 42.9683 95.1104 43.0372C95.1104 43.1232 94.9812 43.1577 94.8177 43.1577C94.5939 43.1577 93.5093 43.1577 92.4849 43.1232C92.2009 43.106 92.0373 43.106 92.0373 43.02C92.0373 42.9597 92.0804 42.9339 92.1406 42.9167C92.2267 42.8822 92.3214 42.7531 92.2267 42.5121L90.8408 38.854C90.815 38.7937 90.7806 38.7679 90.7117 38.7679H87.5182C87.4407 38.7679 87.3977 38.8109 87.3718 38.8884L86.4766 41.5137C86.3475 41.8838 86.27 42.2453 86.27 42.5121C86.27 42.8048 86.5799 42.9425 86.8295 42.9425H86.9759C87.0792 42.9425 87.1222 42.9683 87.1222 43.0286C87.1222 43.1146 87.0361 43.1491 86.8984 43.1491C86.5455 43.1491 85.8999 43.106 85.7363 43.106C85.5728 43.106 84.755 43.1491 84.0578 43.1491C83.8684 43.1491 83.7737 43.1146 83.7737 43.0286C83.7737 42.9683 83.834 42.9425 83.9115 42.9425C84.0147 42.9425 84.2213 42.9253 84.3418 42.9167C85.0219 42.8306 85.3231 42.2625 85.59 41.5223L88.9643 32.2951H88.9815ZM90.5223 38.2428C90.5998 38.2428 90.5998 38.1998 90.5826 38.1395L89.1709 34.1285C89.0934 33.9047 89.0246 33.9047 88.9471 34.1285L87.6387 38.1395C87.6129 38.217 87.6387 38.2428 87.6817 38.2428H90.5223Z" fill="#BD9B60"/>
<path d="M113.127 41.1349C113.161 42.3486 113.307 42.7359 113.703 42.8564C113.988 42.9339 114.315 42.9425 114.444 42.9425C114.521 42.9425 114.564 42.9769 114.564 43.0286C114.564 43.1146 114.478 43.1491 114.297 43.1491C113.454 43.1491 112.851 43.106 112.722 43.106C112.593 43.106 111.965 43.1491 111.293 43.1491C111.147 43.1491 111.052 43.1319 111.052 43.0286C111.052 42.9683 111.095 42.9425 111.173 42.9425C111.293 42.9425 111.56 42.9253 111.784 42.8564C112.154 42.7531 112.232 42.3228 112.232 40.9714L112.249 32.4586C112.249 31.8819 112.292 31.7184 112.412 31.7184C112.533 31.7184 112.782 32.0455 112.929 32.1918C113.153 32.4414 115.365 34.8343 117.654 37.2874C119.126 38.8626 120.745 40.6701 121.218 41.1607L121.055 33.612C121.037 32.648 120.934 32.3209 120.478 32.2004C120.211 32.1401 119.867 32.1229 119.746 32.1229C119.643 32.1229 119.626 32.0799 119.626 32.0196C119.626 31.9336 119.746 31.9164 119.927 31.9164C120.598 31.9164 121.304 31.9594 121.468 31.9594C121.631 31.9594 122.122 31.9164 122.733 31.9164C122.897 31.9164 123 31.9336 123 32.0196C123 32.0799 122.94 32.1229 122.836 32.1229C122.759 32.1229 122.656 32.1229 122.484 32.166C121.993 32.2693 121.933 32.5963 121.933 33.4915L121.898 42.1936C121.898 43.1749 121.872 43.2524 121.769 43.2524C121.649 43.2524 121.468 43.0888 120.684 42.2969C120.521 42.1506 118.378 39.9643 116.802 38.2686C115.081 36.4094 113.402 34.5416 112.929 34.008L113.118 41.1263L113.127 41.1349Z" fill="#BD9B60"/>
</g>
<defs>
<clipPath id="clip0_1_125">
<rect width="123" height="47" fill="white"/>
</clipPath>
</defs>
</svg>
