<svg preserveAspectRatio="none" width="100%" height="100%" overflow="visible" style="display: block;" viewBox="0 0 20.3015 19.6323" fill="none" xmlns="http://www.w3.org/2000/svg">
<path id="Vector" d="M3.52498 16.0282C3.56886 18.0939 3.83214 18.7532 4.50495 18.9583C4.98763 19.0902 5.54343 19.1049 5.76283 19.1049C5.89447 19.1049 5.9676 19.1635 5.9676 19.2514C5.9676 19.3979 5.82134 19.4565 5.51418 19.4565C4.08079 19.4565 3.07156 19.3832 2.83754 19.3832C2.60351 19.3832 1.5504 19.4565 0.409539 19.4565C0.160889 19.4565 0 19.4272 0 19.2514C0 19.1488 0.0731426 19.1049 0.204781 19.1049C0.409551 19.1049 0.86297 19.0756 1.24326 18.9583C1.8722 18.7825 2.00384 18.05 2.00384 15.7498L2.03308 1.25998C2.03308 0.278369 2.10621 0 2.31098 0C2.51575 0 2.93993 0.556741 3.18858 0.805807C3.56887 1.23069 7.32785 5.30365 11.2185 9.47917C13.7196 12.1603 16.4694 15.237 17.2738 16.0721L16.996 3.22321C16.9667 1.5823 16.7912 1.02557 16.016 0.820456C15.5626 0.717899 14.9775 0.688597 14.7727 0.688597C14.5972 0.688597 14.568 0.615344 14.568 0.512787C14.568 0.366277 14.7727 0.336977 15.0799 0.336977C16.2207 0.336977 17.4201 0.410231 17.698 0.410231C17.9759 0.410231 18.8096 0.336977 19.8481 0.336977C20.126 0.336977 20.3015 0.366277 20.3015 0.512787C20.3015 0.615344 20.1991 0.688597 20.0236 0.688597C19.892 0.688597 19.7165 0.688596 19.4239 0.761851C18.5902 0.937662 18.4878 1.4944 18.4878 3.0181L18.444 17.8302C18.444 19.5004 18.4001 19.6323 18.2099 19.6323C18.0052 19.6323 17.7126 19.3539 16.367 18.006C16.0891 17.757 12.4617 14.0356 9.78511 11.1494C6.85981 7.98477 4.00765 4.80552 3.2032 3.89716L3.52498 16.0135V16.0282Z" fill="var(--fill-0, #BD9B60)"/>
</svg>
