<svg preserveAspectRatio="none" width="100%" height="100%" overflow="visible" style="display: block;" viewBox="0 0 19.2923 19.4711" fill="none" xmlns="http://www.w3.org/2000/svg">
<path id="Vector" d="M8.87826 0.981617C9.18542 0.146513 9.2878 0 9.43407 0C9.58033 0 9.68272 0.131863 9.98987 0.908364C10.3702 1.87533 14.3339 12.3068 15.8697 16.16C16.7766 18.4163 17.5079 18.8118 18.0344 18.973C18.4147 19.1049 18.795 19.1195 19.0437 19.1195C19.1899 19.1195 19.2923 19.1488 19.2923 19.266C19.2923 19.4125 19.0583 19.4711 18.7804 19.4711C18.4001 19.4711 16.5572 19.4711 14.8166 19.4125C14.3339 19.3832 14.056 19.3832 14.056 19.2367C14.056 19.1342 14.1292 19.0902 14.2315 19.0609C14.3778 19.0023 14.5387 18.7825 14.3778 18.3723L12.023 12.1456C11.9791 12.0431 11.9206 11.9991 11.7889 11.9991H6.36251C6.23087 11.9991 6.15774 12.0724 6.11386 12.2043L4.59271 16.6728C4.37331 17.3028 4.24167 17.9181 4.24167 18.3723C4.24167 18.8704 4.76823 19.1049 5.19239 19.1049H5.44104C5.61656 19.1049 5.68969 19.1488 5.68969 19.2514C5.68969 19.3979 5.54343 19.4565 5.3094 19.4565C4.70972 19.4565 3.61274 19.3832 3.33483 19.3832C3.05693 19.3832 1.66742 19.4565 0.482673 19.4565C0.160891 19.4565 0 19.3979 0 19.2514C0 19.1488 0.102385 19.1049 0.234023 19.1049C0.409541 19.1049 0.760576 19.0756 0.965346 19.0609C2.12084 18.9144 2.63276 17.9474 3.08618 16.6874L8.81976 0.981617H8.87826ZM11.511 11.1054C11.6427 11.1054 11.6427 11.0322 11.6134 10.9296L9.21467 4.10227C9.08303 3.72135 8.96602 3.72135 8.83438 4.10227L6.61116 10.9296C6.56728 11.0615 6.61116 11.1054 6.68429 11.1054H11.511Z" fill="var(--fill-0, #BD9B60)"/>
</svg>
