<svg preserveAspectRatio="none" width="100%" height="100%" overflow="visible" style="display: block;" viewBox="0 0 7.76028 20.3707" fill="none" xmlns="http://www.w3.org/2000/svg">
<path id="Vector" d="M4.81511 6.92697C7.1993 8.8023 7.76028 10.0564 7.76028 11.6856C7.76028 12.5178 7.43304 14.0532 6.04227 15.0377C5.65659 15.2956 5.25923 15.4831 4.81511 15.6238C4.56968 15.7644 3.56459 16.7373 3.37759 16.9131C4.62812 17.0303 5.39947 17.5225 5.39947 18.343C5.39947 19.1635 4.65149 19.7143 3.97364 20.0074C3.42434 20.2535 2.78155 20.3707 2.39587 20.3707C2.25562 20.3707 2.13875 20.3121 2.13875 20.2066C2.13875 20.0308 2.31406 20.0074 2.53611 19.9839C3.23734 19.9019 4.03208 19.4799 4.03208 18.7532C4.03208 18.1672 3.77496 17.6163 2.58286 17.2764C2.36081 17.2178 2.279 17.1709 2.279 17.1006C2.279 17.042 2.36081 16.96 2.53611 16.8193L3.72821 15.823C3.61133 15.8465 3.48277 15.8582 3.3659 15.8582C3.24903 15.8816 3.12047 15.8816 3.0036 15.8816C2.05694 15.8816 1.12197 15.741 0.303864 15.3308C0.0233724 15.1901 0 15.1081 0 14.5572C0 13.5492 0.0818104 12.7405 0.105185 12.4123C0.128559 12.1896 0.16362 12.0841 0.268804 12.0841C0.385676 12.0841 0.409049 12.1427 0.409049 12.3068C0.409049 12.4943 0.409048 12.7756 0.467484 13.0569C0.771351 14.5572 2.10369 15.1198 3.4594 15.1198C5.39947 15.1198 6.34613 13.725 6.34613 12.424C6.34613 11.0292 5.76178 10.2205 4.03208 8.77885L3.12047 8.02873C0.98172 6.27061 0.502549 5.01649 0.502549 3.64516C0.502549 1.47681 2.11538 0 4.67487 0C5.45791 0 6.04227 0.0820432 6.54481 0.199251C6.93049 0.281296 7.09411 0.304738 7.24605 0.304738C7.39798 0.304738 7.44473 0.339899 7.44473 0.445386C7.44473 0.550873 7.36292 1.21896 7.36292 2.59029C7.36292 2.91847 7.32786 3.05912 7.22267 3.05912C7.1058 3.05912 7.08243 2.95363 7.05905 2.80126C7.03568 2.55513 6.9188 2.01597 6.79024 1.79328C6.67337 1.57058 6.12408 0.726686 4.26581 0.726686C2.87504 0.726686 1.78814 1.59402 1.78814 3.07084C1.78814 4.21948 2.31406 4.94616 4.25413 6.46986L4.81511 6.91525V6.92697Z" fill="var(--fill-0, #BD9B60)"/>
</svg>
