<svg preserveAspectRatio="none" width="100%" height="100%" overflow="visible" style="display: block;" viewBox="0 0 19.8627 19.1195" fill="none" xmlns="http://www.w3.org/2000/svg">
<path id="Vector" d="M17.4055 11.7794C17.4055 14.2114 17.4055 16.204 17.5371 17.2735C17.6103 18.006 17.7712 18.5628 18.5171 18.6653C18.8681 18.7093 19.4239 18.7679 19.658 18.7679C19.8042 18.7679 19.8627 18.8411 19.8627 18.9144C19.8627 19.0462 19.7311 19.1195 19.4532 19.1195C18.0637 19.1195 16.4694 19.0462 16.3524 19.0462C16.2354 19.0462 14.6411 19.1195 13.8805 19.1195C13.6026 19.1195 13.471 19.0756 13.471 18.9144C13.471 18.8411 13.5149 18.7679 13.6757 18.7679C13.9098 18.7679 14.2023 18.7239 14.4363 18.6653C14.9482 18.5628 15.0653 18.006 15.1676 17.2735C15.2993 16.2186 15.2993 14.2114 15.2993 11.7794V9.12755C15.2993 9.02499 15.2261 8.98104 15.153 8.98104H4.44645C4.37331 8.98104 4.30018 9.01034 4.30018 9.12755V11.7794C4.30018 14.2114 4.30019 16.204 4.43183 17.2735C4.50496 18.006 4.66585 18.5628 5.4118 18.6653C5.76283 18.7093 6.31864 18.7679 6.55266 18.7679C6.69892 18.7679 6.75743 18.8411 6.75743 18.9144C6.75743 19.0462 6.62579 19.1195 6.34789 19.1195C4.95838 19.1195 3.36409 19.0462 3.24708 19.0462C3.13006 19.0462 1.53579 19.1195 0.775212 19.1195C0.497309 19.1195 0.365662 19.0756 0.365662 18.9144C0.365662 18.8411 0.409551 18.7679 0.570442 18.7679C0.789839 18.7679 1.09699 18.7239 1.33101 18.6653C1.82831 18.5628 1.95995 18.006 2.06234 17.2735C2.19397 16.2186 2.19397 14.2114 2.19397 11.7794V7.32548C2.19397 3.38437 2.19397 2.68113 2.15009 1.86067C2.10621 0.996266 1.90144 0.600691 1.06774 0.424879C0.862966 0.380926 0.438804 0.351626 0.204781 0.351626C0.102395 0.351626 0 0.307669 0 0.205113C0 0.0586029 0.131648 0 0.40955 0C1.55041 0 3.13007 0.0732537 3.26171 0.0732537C3.39334 0.0732537 4.973 0 5.73358 0C6.01148 0 6.14312 0.043952 6.14312 0.205113C6.14312 0.307669 6.04074 0.351626 5.93835 0.351626C5.76283 0.351626 5.61657 0.380926 5.30941 0.424879C4.62197 0.556738 4.43183 0.981615 4.37332 1.86067C4.32944 2.66648 4.32944 3.38437 4.32944 7.32548V7.85292C4.32944 7.98477 4.40257 7.99942 4.4757 7.99942H15.1823C15.2554 7.99942 15.3285 7.97012 15.3285 7.85292V7.32548C15.3285 3.38437 15.3285 2.68113 15.2847 1.86067C15.2408 0.996266 15.036 0.600691 14.2023 0.424879C13.9975 0.380926 13.5734 0.351626 13.3393 0.351626C13.237 0.351626 13.1346 0.307669 13.1346 0.205113C13.1346 0.0586029 13.2662 0 13.5441 0C14.685 0 16.2646 0.0732537 16.3963 0.0732537C16.5279 0.0732537 18.1076 0 18.8681 0C19.146 0 19.2777 0.043952 19.2777 0.205113C19.2777 0.307669 19.1753 0.351626 19.0729 0.351626C18.8974 0.351626 18.7511 0.380926 18.444 0.424879C17.7565 0.556738 17.5664 0.981615 17.5079 1.86067C17.464 2.66648 17.464 3.38437 17.464 7.32548V11.7794H17.4055Z" fill="var(--fill-0, #BD9B60)"/>
</svg>
