<svg preserveAspectRatio="none" width="100%" height="100%" overflow="visible" style="display: block;" viewBox="0 0 15.8712 15.2956" fill="none" xmlns="http://www.w3.org/2000/svg">
<path id="Vector" d="M13.9077 9.4235C13.9077 11.3691 13.9077 12.9632 14.0129 13.8188C14.0714 14.4048 14.1999 14.8502 14.796 14.9323C15.0765 14.9674 15.5206 15.0143 15.7076 15.0143C15.8244 15.0143 15.8712 15.0729 15.8712 15.1315C15.8712 15.237 15.766 15.2956 15.5439 15.2956C14.4337 15.2956 13.1598 15.237 13.0663 15.237C12.9728 15.237 11.6989 15.2956 11.0911 15.2956C10.8691 15.2956 10.7639 15.2604 10.7639 15.1315C10.7639 15.0729 10.799 15.0143 10.9275 15.0143C11.1145 15.0143 11.3482 14.9791 11.5352 14.9323C11.9443 14.8502 12.0378 14.4048 12.1196 13.8188C12.2248 12.9749 12.2248 11.3691 12.2248 9.4235V7.30204C12.2248 7.21999 12.1663 7.18483 12.1079 7.18483H3.5529C3.49447 7.18483 3.43603 7.20827 3.43603 7.30204V9.4235C3.43603 11.3691 3.43604 12.9632 3.54122 13.8188C3.59966 14.4048 3.72821 14.8502 4.32426 14.9323C4.60475 14.9674 5.04886 15.0143 5.23586 15.0143C5.35273 15.0143 5.39948 15.0729 5.39948 15.1315C5.39948 15.237 5.29429 15.2956 5.07224 15.2956C3.96196 15.2956 2.68805 15.237 2.59455 15.237C2.50106 15.237 1.22716 15.2956 0.619428 15.2956C0.397371 15.2956 0.292179 15.2604 0.292179 15.1315C0.292179 15.0729 0.327249 15.0143 0.455808 15.0143C0.631115 15.0143 0.876542 14.9791 1.06354 14.9323C1.4609 14.8502 1.56609 14.4048 1.6479 13.8188C1.75308 12.9749 1.75308 11.3691 1.75308 9.4235V5.86038C1.75308 2.7075 1.75308 2.1449 1.71802 1.48854C1.68295 0.797013 1.51934 0.480553 0.853167 0.339903C0.689547 0.304741 0.350623 0.2813 0.163629 0.2813C0.0818184 0.2813 0 0.246135 0 0.16409C0 0.0468824 0.105192 0 0.327248 0C1.23885 0 2.50106 0.058603 2.60624 0.058603C2.71143 0.058603 3.97365 0 4.58138 0C4.80343 0 4.90862 0.0351616 4.90862 0.16409C4.90862 0.246135 4.82681 0.2813 4.745 0.2813C4.60475 0.2813 4.48788 0.304741 4.24245 0.339903C3.69315 0.44539 3.54122 0.785292 3.49447 1.48854C3.45941 2.13318 3.45941 2.7075 3.45941 5.86038V6.28233C3.45941 6.38782 3.51784 6.39954 3.57628 6.39954H12.1313C12.1897 6.39954 12.2482 6.3761 12.2482 6.28233V5.86038C12.2482 2.7075 12.2482 2.1449 12.2131 1.48854C12.178 0.797013 12.0144 0.480553 11.3483 0.339903C11.1846 0.304741 10.8457 0.2813 10.6587 0.2813C10.5769 0.2813 10.4951 0.246135 10.4951 0.16409C10.4951 0.0468824 10.6003 0 10.8223 0C11.7339 0 12.9961 0.058603 13.1013 0.058603C13.2065 0.058603 14.4687 0 15.0765 0C15.2985 0 15.4037 0.0351616 15.4037 0.16409C15.4037 0.246135 15.3219 0.2813 15.2401 0.2813C15.0998 0.2813 14.983 0.304741 14.7375 0.339903C14.1882 0.44539 14.0363 0.785292 13.9895 1.48854C13.9545 2.13318 13.9545 2.7075 13.9545 5.86038V9.4235H13.9077Z" fill="var(--fill-0, #BD9B60)"/>
</svg>
