<svg preserveAspectRatio="none" width="100%" height="100%" overflow="visible" style="display: block;" viewBox="0 0 19.2484 19.4711" fill="none" xmlns="http://www.w3.org/2000/svg">
<path id="Vector" d="M8.83438 0.981617C9.14154 0.146513 9.24392 0 9.39019 0C9.53645 0 9.63884 0.131863 9.946 0.908364C10.3263 1.87533 14.2901 12.3068 15.8258 16.16C16.7327 18.4163 17.464 18.8118 17.9906 18.973C18.3708 19.1049 18.7511 19.1195 18.9998 19.1195C19.146 19.1195 19.2484 19.1488 19.2484 19.266C19.2484 19.4125 19.0144 19.4711 18.7365 19.4711C18.3562 19.4711 16.5133 19.4711 14.7727 19.4125C14.2901 19.3832 14.0122 19.3832 14.0122 19.2367C14.0122 19.1342 14.0853 19.0902 14.1877 19.0609C14.3339 19.0023 14.4948 18.7825 14.3339 18.3723L11.9937 12.1456C11.9352 12.0431 11.8913 11.9991 11.7597 11.9991H6.33326C6.20162 11.9991 6.12849 12.0724 6.08461 12.2043L4.57809 16.6728C4.34407 17.3028 4.22705 17.9181 4.22705 18.3723C4.22705 18.8704 4.7536 19.1049 5.1924 19.1049H5.44105C5.61656 19.1049 5.68969 19.1488 5.68969 19.2514C5.68969 19.3979 5.54344 19.4565 5.30941 19.4565C4.70973 19.4565 3.61273 19.3832 3.33483 19.3832C3.05693 19.3832 1.66742 19.4565 0.482676 19.4565C0.160894 19.4565 0 19.3979 0 19.2514C0 19.1488 0.102387 19.1049 0.219399 19.1049C0.394917 19.1049 0.745952 19.0756 0.950722 19.0609C2.10621 18.9144 2.61813 17.9474 3.07155 16.6874L8.80514 0.981617H8.83438ZM11.4525 11.1054C11.5842 11.1054 11.5842 11.0322 11.5549 10.9296L9.15617 4.10227C9.02453 3.72135 8.90751 3.72135 8.77588 4.10227L6.55266 10.9296C6.50878 11.0615 6.55265 11.1054 6.62579 11.1054H11.4525Z" fill="var(--fill-0, #BD9B60)"/>
</svg>
