<svg preserveAspectRatio="none" width="100%" height="100%" overflow="visible" style="display: block;" viewBox="0 0 9.71197 25.4634" fill="none" xmlns="http://www.w3.org/2000/svg">
<path id="Vector" d="M6.0261 8.65872C9.0099 11.0029 9.71197 12.5705 9.71197 14.607C9.71197 15.6472 9.30243 17.5665 7.56188 18.7972C7.0792 19.1195 6.58191 19.3539 6.0261 19.5297C5.71894 19.7055 4.46107 20.9216 4.22705 21.1413C5.79208 21.2878 6.75742 21.9032 6.75742 22.9288C6.75742 23.9543 5.82133 24.6429 4.97299 25.0092C4.28555 25.3169 3.4811 25.4634 2.99842 25.4634C2.82291 25.4634 2.67664 25.3901 2.67664 25.2583C2.67664 25.0385 2.89604 25.0092 3.17394 24.9799C4.05153 24.8773 5.04613 24.3499 5.04613 23.4415C5.04613 22.709 4.72435 22.0204 3.23245 21.5955C2.95454 21.5223 2.85216 21.4637 2.85216 21.3757C2.85216 21.3025 2.95454 21.1999 3.17394 21.0241L4.66584 19.7788C4.51957 19.8081 4.35868 19.8227 4.21242 19.8227C4.06615 19.8521 3.90526 19.8521 3.759 19.8521C2.57426 19.8521 1.40414 19.6762 0.380286 19.1635C0.0292505 18.9876 0 18.8851 0 18.1965C0 16.9365 0.102385 15.9256 0.131638 15.5154C0.160891 15.237 0.20477 15.1051 0.336408 15.1051C0.482673 15.1051 0.511924 15.1784 0.511924 15.3835C0.511924 15.6179 0.511923 15.9695 0.585055 16.3212C0.965343 18.1965 2.63276 18.8997 4.32943 18.8997C6.75742 18.8997 7.94217 17.1563 7.94217 15.53C7.94217 13.7866 7.21085 12.7756 5.04613 10.9736L3.90526 10.0359C1.22862 7.83826 0.628938 6.27061 0.628938 4.55644C0.628938 1.84602 2.64739 0 5.85058 0C6.83056 0 7.56188 0.102554 8.19082 0.249064C8.67349 0.35162 8.87826 0.380923 9.06841 0.380923C9.25855 0.380923 9.31705 0.424874 9.31705 0.556733C9.31705 0.688591 9.21467 1.5237 9.21467 3.23786C9.21467 3.64809 9.17079 3.8239 9.03915 3.8239C8.89289 3.8239 8.86364 3.69204 8.83438 3.50158C8.80513 3.19391 8.65886 2.51996 8.49797 2.2416C8.35171 1.96323 7.66426 0.908358 5.33865 0.908358C3.59811 0.908358 2.23785 1.99253 2.23785 3.83855C2.23785 5.27434 2.89604 6.1827 5.32403 8.08733L6.0261 8.64406V8.65872Z" fill="var(--fill-0, #BD9B60)"/>
</svg>
