<svg preserveAspectRatio="none" width="100%" height="100%" overflow="visible" style="display: block;" viewBox="0 0 15.3803 15.5769" fill="none" xmlns="http://www.w3.org/2000/svg">
<path id="Vector" d="M7.05905 0.785294C7.30448 0.11721 7.38629 0 7.50316 0C7.62003 0 7.70185 0.10549 7.94728 0.726691C8.25115 1.50026 11.4184 9.84545 12.6455 12.928C13.3701 14.733 13.9545 15.0495 14.3752 15.1784C14.6791 15.2839 14.983 15.2956 15.1816 15.2956C15.2985 15.2956 15.3803 15.319 15.3803 15.4128C15.3803 15.53 15.1933 15.5769 14.9713 15.5769C14.6674 15.5769 13.1948 15.5769 11.804 15.53C11.4184 15.5066 11.1963 15.5066 11.1963 15.3894C11.1963 15.3073 11.2548 15.2722 11.3366 15.2487C11.4534 15.2018 11.582 15.026 11.4534 14.6978L9.58349 9.71652C9.53674 9.63447 9.50167 9.59931 9.39649 9.59931H5.06055C4.95536 9.59931 4.89693 9.65792 4.86187 9.7634L3.65809 13.3382C3.4711 13.8422 3.37759 14.3345 3.37759 14.6978C3.37759 15.0964 3.79833 15.2839 4.14895 15.2839H4.34763C4.48788 15.2839 4.54631 15.319 4.54631 15.4011C4.54631 15.5183 4.42944 15.5652 4.24245 15.5652C3.76327 15.5652 2.88673 15.5066 2.66467 15.5066C2.44262 15.5066 1.33234 15.5652 0.385679 15.5652C0.128561 15.5652 0 15.5183 0 15.4011C0 15.319 0.081812 15.2839 0.175309 15.2839C0.315555 15.2839 0.596048 15.2604 0.759668 15.2487C1.68295 15.1315 2.092 14.3579 2.4543 13.35L7.03568 0.785294H7.05905ZM9.15106 8.88435C9.25624 8.88435 9.25624 8.82574 9.23287 8.7437L7.31617 3.28182C7.21099 2.97708 7.11749 2.97708 7.0123 3.28182L5.23586 8.7437C5.2008 8.84918 5.23585 8.88435 5.29429 8.88435H9.15106Z" fill="var(--fill-0, #BD9B60)"/>
</svg>
