<svg preserveAspectRatio="none" width="100%" height="100%" overflow="visible" style="display: block;" viewBox="0 0 15.4154 15.5769" fill="none" xmlns="http://www.w3.org/2000/svg">
<path id="Vector" d="M7.09411 0.785294C7.33954 0.11721 7.42135 0 7.53823 0C7.6551 0 7.73691 0.10549 7.98234 0.726691C8.28621 1.50026 11.4534 9.84545 12.6806 12.928C13.4052 14.733 13.9895 15.0495 14.4103 15.1784C14.7141 15.2839 15.018 15.2956 15.2167 15.2956C15.3336 15.2956 15.4154 15.319 15.4154 15.4128C15.4154 15.53 15.2284 15.5769 15.0063 15.5769C14.7025 15.5769 13.2299 15.5769 11.8391 15.53C11.4534 15.5066 11.2314 15.5066 11.2314 15.3894C11.2314 15.3073 11.2898 15.2722 11.3716 15.2487C11.4885 15.2018 11.617 15.026 11.4885 14.6978L9.60686 9.71652C9.57179 9.63447 9.52505 9.59931 9.41986 9.59931H5.08392C4.97874 9.59931 4.9203 9.65792 4.88524 9.7634L3.66977 13.3382C3.49446 13.8422 3.38928 14.3345 3.38928 14.6978C3.38928 15.0964 3.81002 15.2839 4.14895 15.2839H4.34763C4.48787 15.2839 4.54631 15.319 4.54631 15.4011C4.54631 15.5183 4.42944 15.5652 4.24244 15.5652C3.76327 15.5652 2.88673 15.5066 2.66468 15.5066C2.44262 15.5066 1.33234 15.5652 0.385677 15.5652C0.128559 15.5652 0 15.5183 0 15.4011C0 15.319 0.0818102 15.2839 0.186995 15.2839C0.327241 15.2839 0.607733 15.2604 0.771353 15.2487C1.69464 15.1315 2.10369 14.3579 2.46599 13.35L7.04736 0.785294H7.09411ZM9.1978 8.88435C9.30299 8.88435 9.30299 8.82574 9.27961 8.7437L7.36292 3.28182C7.25773 2.97708 7.16424 2.97708 7.05905 3.28182L5.2826 8.7437C5.24754 8.84918 5.2826 8.88435 5.34104 8.88435H9.1978Z" fill="var(--fill-0, #BD9B60)"/>
</svg>
