<svg preserveAspectRatio="none" width="100%" height="100%" overflow="visible" style="display: block;" viewBox="0 0 16.2218 15.7058" fill="none" xmlns="http://www.w3.org/2000/svg">
<path id="Vector" d="M2.81661 12.8225C2.85167 14.4752 3.06204 15.0026 3.59965 15.1667C3.98533 15.2722 4.42944 15.2839 4.60475 15.2839C4.70993 15.2839 4.76837 15.3308 4.76837 15.4011C4.76837 15.5183 4.6515 15.5652 4.40607 15.5652C3.26073 15.5652 2.45431 15.5066 2.26731 15.5066C2.08032 15.5066 1.23884 15.5652 0.327239 15.5652C0.128557 15.5652 0 15.5417 0 15.4011C0 15.319 0.0584441 15.2839 0.163629 15.2839C0.327249 15.2839 0.68955 15.2604 0.993417 15.1667C1.49597 15.026 1.60115 14.44 1.60115 12.5998L1.62452 1.00799C1.62452 0.222695 1.68295 0 1.84658 0C2.0102 0 2.34913 0.445393 2.54781 0.644646C2.85168 0.984548 5.85527 4.24292 8.96406 7.58334C10.9626 9.72824 13.1598 12.1896 13.8025 12.8577L13.5805 2.57857C13.5571 1.26584 13.4169 0.820455 12.7974 0.656365C12.4351 0.574319 11.9677 0.550878 11.8041 0.550878C11.6638 0.550878 11.6404 0.492275 11.6404 0.41023C11.6404 0.293022 11.804 0.269582 12.0495 0.269582C12.9611 0.269582 13.9194 0.328185 14.1415 0.328185C14.3635 0.328185 15.0297 0.269582 15.8595 0.269582C16.0816 0.269582 16.2218 0.293022 16.2218 0.41023C16.2218 0.492275 16.14 0.550878 15.9997 0.550878C15.8946 0.550878 15.7543 0.550877 15.5206 0.609481C14.8544 0.75013 14.7726 1.19552 14.7726 2.41448L14.7375 14.2642C14.7375 15.6003 14.7025 15.7058 14.5505 15.7058C14.3869 15.7058 14.1532 15.4831 13.0779 14.4048C12.8559 14.2056 9.95747 11.2285 7.81872 8.91951C5.48129 6.38782 3.20229 3.84441 2.55949 3.11772L2.81661 12.8108V12.8225Z" fill="var(--fill-0, #BD9B60)"/>
</svg>
