<svg preserveAspectRatio="none" width="100%" height="100%" overflow="visible" style="display: block;" viewBox="0 0 88.1182 12.9879" fill="none" xmlns="http://www.w3.org/2000/svg">
<g id="Group">
<path id="Fill 1" fill-rule="evenodd" clip-rule="evenodd" d="M21.9162 10.1518L16.2742 10.0782L16.2814 5.55031L16.2897 2.42683L16.2957 1.39114L16.2985 1.09882C16.2985 0.463409 15.8455 0.524191 15.8455 0.524191H13.9995C13.6969 0.56178 13.5453 0.713335 13.5437 0.981256L13.5381 10.0782C13.5381 11.6341 14.7967 12.8953 16.3484 12.8953H21.9162C22.2149 12.9297 22.3676 12.7774 22.372 12.4387V10.6092C22.4079 10.3781 22.2563 10.2257 21.9162 10.1518" fill="var(--fill-0, #DDCFAB)"/>
<path id="Fill 3" fill-rule="evenodd" clip-rule="evenodd" d="M11.9045 8.11681H9.87147C9.6984 8.1288 9.56999 8.20038 9.48425 8.33234C8.83982 9.37044 7.69252 10.0598 6.38531 10.0598C4.36907 10.0598 2.73605 8.42272 2.73605 6.40171C2.73605 4.38191 4.36907 2.74319 6.38531 2.74319C7.69252 2.74319 8.83982 3.43259 9.48425 4.47108C9.60708 4.62024 9.73708 4.69142 9.87147 4.68702H11.9045C12.306 4.65663 12.4476 4.44829 12.3288 4.0628C11.3976 1.6847 9.08826 0 6.38531 0C2.85848 0 0 2.86675 0 6.40171C0 9.93787 2.85848 12.8038 6.38531 12.8038C9.08826 12.8038 11.3976 11.1199 12.3288 8.74142C12.4731 8.31075 12.3316 8.10241 11.9045 8.11681" fill="var(--fill-0, #DDCFAB)"/>
<path id="Fill 6" fill-rule="evenodd" clip-rule="evenodd" d="M57.9272 12.21L52.3354 6.39849L57.2429 1.298C57.603 0.803741 57.4945 0.545817 56.9159 0.522624H54.6823C54.5427 0.550216 54.4338 0.595402 54.3597 0.658184L48.8704 6.19495C48.6818 6.45288 48.6818 6.66841 48.872 6.84116L54.8769 12.8514C54.9626 12.957 55.0699 13.0009 55.1995 12.9845H57.6002C58.3116 12.9845 58.3503 12.7602 57.9272 12.21" fill="var(--fill-0, #DDCFAB)"/>
<path id="Fill 8" fill-rule="evenodd" clip-rule="evenodd" d="M47.3175 8.11681H45.2829C45.129 8.09641 45.0002 8.16919 44.8961 8.33234C44.2517 9.37044 43.1044 10.0598 41.7968 10.0598C39.7825 10.0598 38.1479 8.42272 38.1479 6.40171C38.1479 4.38191 39.7825 2.74319 41.7968 2.74319C43.1044 2.74319 44.2517 3.43259 44.8961 4.47108C44.9818 4.63463 45.1119 4.70621 45.2829 4.68702H47.3175C47.759 4.72061 47.9021 4.51147 47.7418 4.0628C46.8107 1.6847 44.5005 0 41.7968 0C38.2707 0 35.4119 2.86675 35.4119 6.40171C35.4119 9.93787 38.2707 12.8038 41.7968 12.8038C44.5005 12.8038 46.8107 11.1199 47.7418 8.74142C47.9336 8.29155 47.7917 8.08362 47.3175 8.11681" fill="var(--fill-0, #DDCFAB)"/>
<path id="Fill 10" fill-rule="evenodd" clip-rule="evenodd" d="M28.2589 10.0618C26.243 10.0618 24.61 8.42429 24.61 6.40369C24.61 4.38348 26.243 2.74516 28.2589 2.74516C30.2735 2.74516 31.9066 4.38348 31.9066 6.40369C31.9066 8.42429 30.2735 10.0618 28.2589 10.0618M28.2586 0.00105794C24.7326 0.00105794 21.8737 2.86781 21.8737 6.40317C21.8737 9.93893 24.7326 12.8049 28.2586 12.8049C31.7835 12.8049 34.6423 9.93893 34.6423 6.40317C34.6423 2.86781 31.7835 0.00105794 28.2586 0.00105794" fill="var(--fill-0, #DDCFAB)"/>
<path id="Fill 13" fill-rule="evenodd" clip-rule="evenodd" d="M70.8632 3.75163C69.4543 3.75163 68.3126 4.89649 68.3126 6.30887C68.3126 7.72086 69.4543 8.86492 70.8632 8.86492C72.2705 8.86492 73.4122 7.72086 73.4122 6.30887C73.4122 4.89649 72.2705 3.75163 70.8632 3.75163M70.8626 2.61523C72.8956 2.61523 74.5442 4.26835 74.5442 6.30855C74.5442 8.34754 72.8956 10.0011 70.8626 10.0011C68.828 10.0011 67.1795 8.34754 67.1795 6.30855C67.1795 4.26835 68.828 2.61523 70.8626 2.61523" fill="var(--fill-0, #DDCFAB)"/>
<path id="Fill 15" fill-rule="evenodd" clip-rule="evenodd" d="M86.4896 10.3105H88.1182L84.4546 6.50327L87.6939 3.13786H86.2064L83.4133 6.0406V3.29781C83.4133 3.26102 83.4189 3.22623 83.4305 3.19384H82.2844L82.28 3.29781V10.3105H83.4133V7.18546H83.4835L86.4896 10.3105Z" fill="var(--fill-0, #DDCFAB)"/>
<path id="Fill 18" fill-rule="evenodd" clip-rule="evenodd" d="M78.1525 4.24341C78.9668 4.24341 79.6284 4.90601 79.6284 5.72337C79.6284 6.54073 78.9668 7.20334 78.1525 7.20334C77.3366 7.20334 76.6766 6.54073 76.6766 5.72337C76.6766 4.90601 77.3366 4.24341 78.1525 4.24341V4.24341ZM81.1884 10.3439L78.828 8.24609C79.9314 7.94658 80.7442 6.93848 80.7442 5.73803C80.7442 4.30166 79.5829 3.1368 78.1497 3.1368C77.5926 3.1368 77.0782 3.31435 76.655 3.61386C76.6566 3.35314 76.6582 3.19558 76.6594 3.19118H75.5137L75.5109 10.3439H76.6439C76.6439 10.3439 76.6439 9.2274 76.6455 7.877L79.5598 10.3439H81.1884Z" fill="var(--fill-0, #DDCFAB)"/>
<path id="Fill 20" fill-rule="evenodd" clip-rule="evenodd" d="M65.9702 3.13766C65.9671 3.15926 64.8712 6.28714 64.1354 8.38852C63.4412 6.51507 62.4737 3.90064 62.4725 3.87905L61.8911 5.81687L61.8867 5.81527C61.8855 5.83407 61.4353 7.13768 61.0253 8.32773C60.2625 6.22635 59.1495 3.15846 59.1479 3.13766H57.8048L60.3765 10.2016C60.3634 10.2352 60.3582 10.2544 60.3582 10.2544H60.3953H61.724H61.7511L62.5722 7.88906L63.4328 10.2544H63.4814H64.8273H64.8325L67.3345 3.13766H65.9702Z" fill="var(--fill-0, #DDCFAB)"/>
</g>
</svg>
