<svg preserveAspectRatio="none" width="100%" height="100%" overflow="visible" style="display: block;" viewBox="0 0 14 14" fill="none" xmlns="http://www.w3.org/2000/svg">
<g id="Frame">
<path id="Vector" d="M7.59973 1.16709C8.25621 1.16818 8.58888 1.17165 8.87635 1.18021L8.98957 1.18391C9.12036 1.18856 9.24939 1.19439 9.40497 1.20168C10.0257 1.23037 10.4491 1.32856 10.821 1.47293C11.2055 1.6212 11.5302 1.82148 11.8544 2.14572C12.1782 2.46995 12.3785 2.79564 12.5273 3.17918C12.6711 3.55057 12.7693 3.97447 12.7985 4.59523C12.8054 4.75078 12.811 4.87982 12.8157 5.01062L12.8193 5.12384C12.8278 5.41127 12.8318 5.744 12.833 6.40051L12.8334 6.83544C12.8335 6.88858 12.8335 6.94342 12.8335 7L12.8334 7.16456L12.8331 7.59955C12.832 8.25603 12.8285 8.58877 12.82 8.87618L12.8162 8.9894C12.8116 9.12024 12.8058 9.24927 12.7985 9.40479C12.7698 10.0256 12.6711 10.449 12.5273 10.8208C12.379 11.2054 12.1782 11.5301 11.8544 11.8543C11.5302 12.1781 11.204 12.3783 10.821 12.5271C10.4491 12.671 10.0257 12.7692 9.40497 12.7983C9.24939 12.8053 9.12036 12.8109 8.98957 12.8155L8.87635 12.8192C8.58888 12.8277 8.25621 12.8316 7.59973 12.8329L7.16473 12.8333C7.11159 12.8333 7.05676 12.8333 7.00018 12.8333H6.83562L6.40062 12.8329C5.74414 12.8319 5.41142 12.8284 5.12398 12.8198L5.01077 12.8161C4.87996 12.8115 4.75092 12.8056 4.59537 12.7983C3.97461 12.7697 3.55169 12.671 3.17933 12.5271C2.7953 12.3789 2.47009 12.1781 2.14586 11.8543C1.82162 11.5301 1.62183 11.2039 1.47308 10.8208C1.3287 10.449 1.231 10.0256 1.20183 9.40479C1.1949 9.24927 1.18925 9.12024 1.18467 8.9894L1.181 8.87618C1.17246 8.58877 1.16857 8.25603 1.16731 7.59955L1.16724 6.40051C1.16832 5.744 1.17179 5.41127 1.18035 5.12384L1.18406 5.01062C1.1887 4.87982 1.19454 4.75078 1.20183 4.59523C1.23051 3.97398 1.3287 3.55106 1.47308 3.17918C1.62134 2.79516 1.82162 2.46995 2.14586 2.14572C2.47009 1.82148 2.79579 1.62168 3.17933 1.47293C3.5512 1.32856 3.97412 1.23085 4.59537 1.20168C4.75092 1.19476 4.87996 1.18911 5.01077 1.18453L5.12398 1.18086C5.41142 1.17232 5.74414 1.16843 6.40062 1.16717L7.59973 1.16709ZM7.00018 4.08335C5.38847 4.08335 4.0835 5.38974 4.0835 7C4.0835 8.61169 5.38989 9.91667 7.00018 9.91667C8.61187 9.91667 9.91684 8.61029 9.91684 7C9.91684 5.38833 8.61041 4.08335 7.00018 4.08335ZM7.00018 5.25002C7.9667 5.25002 8.75018 6.03324 8.75018 7C8.75018 7.96652 7.96693 8.75 7.00018 8.75C6.03365 8.75 5.25016 7.96682 5.25016 7C5.25016 6.03347 6.03336 5.25002 7.00018 5.25002ZM10.0627 3.20835C9.66058 3.20835 9.33351 3.53496 9.33351 3.93702C9.33351 4.33908 9.66012 4.6662 10.0627 4.6662C10.4647 4.6662 10.7918 4.33959 10.7918 3.93702C10.7918 3.53496 10.4642 3.20785 10.0627 3.20835Z" fill="var(--fill-0, #BD9B60)"/>
</g>
</svg>
