<svg preserveAspectRatio="none" width="100%" height="100%" overflow="visible" style="display: block;" viewBox="0 0 14 14" fill="none" xmlns="http://www.w3.org/2000/svg">
<g id="Frame">
<path id="Vector" d="M4.04861 2.91663C4.0484 3.39164 3.76021 3.8191 3.31995 3.99743C2.87968 4.17576 2.37526 4.06936 2.04453 3.7284C1.71379 3.38744 1.6228 2.88 1.81446 2.44537C2.00612 2.01074 2.44215 1.73571 2.91695 1.74996C3.54757 1.76889 4.0489 2.28572 4.04861 2.91663ZM4.08361 4.94663H1.75028V12.2499H4.08361V4.94663ZM7.77029 4.94663H5.44861V12.2499H7.74696V8.41744C7.74696 6.28244 10.5295 6.08411 10.5295 8.41744V12.2499H12.8336V7.62411C12.8336 4.02496 8.71529 4.15913 7.74696 5.92661L7.77029 4.94663Z" fill="var(--fill-0, #BD9B60)"/>
</g>
</svg>
