<svg preserveAspectRatio="none" width="100%" height="100%" overflow="visible" style="display: block;" viewBox="0 0 14 14" fill="none" xmlns="http://www.w3.org/2000/svg">
<g id="Frame">
<path id="Vector" d="M7.14227 2.33333C7.45383 2.33505 8.23334 2.34258 9.06156 2.37576L9.35521 2.38856C10.1891 2.42804 11.0223 2.49549 11.4355 2.61071C11.9867 2.76555 12.4199 3.21738 12.5663 3.7901C12.7995 4.69957 12.8287 6.47465 12.8323 6.90422L12.8328 6.99323V6.99948C12.8328 6.99948 12.8328 7.00163 12.8328 7.00578L12.8323 7.09479C12.8287 7.52436 12.7995 9.29944 12.5663 10.2089C12.4179 10.7837 11.9846 11.2356 11.4355 11.3883C11.0223 11.5035 10.1891 11.5709 9.35521 11.6104L9.06156 11.6232C8.23334 11.6564 7.45383 11.6639 7.14227 11.6657L7.00554 11.6661H6.99947C6.99947 11.6661 6.99743 11.6661 6.99341 11.6661L6.85679 11.6657C6.19739 11.6621 3.44034 11.6323 2.56346 11.3883C2.01227 11.2334 1.57904 10.7816 1.43259 10.2089C1.19945 9.29944 1.17031 7.52436 1.16667 7.09479V6.90422C1.17031 6.47465 1.19945 4.69957 1.43259 3.7901C1.58107 3.21525 2.0143 2.76344 2.56346 2.61071C3.44034 2.36672 6.19739 2.33696 6.85679 2.33333H7.14227ZM5.83281 4.95783V9.04114L9.33281 6.99948L5.83281 4.95783Z" fill="var(--fill-0, #BD9B60)"/>
</g>
</svg>
