<svg preserveAspectRatio="none" width="100%" height="100%" overflow="visible" style="display: block;" viewBox="0 0 25.2632 28.2218" fill="none" xmlns="http://www.w3.org/2000/svg">
<path id="Vector" d="M24.9277 17.5573C23.8864 17.3647 22.8385 17.3282 21.8072 17.4411V11.0862C21.8072 10.7774 21.5552 10.5251 21.2468 10.5251H14.4223C14.1139 10.5251 13.8486 10.7675 13.8453 11.0762C13.8387 11.3917 14.0907 11.6473 14.4057 11.6473H20.6864V17.6237C20.577 17.647 20.4675 17.6735 20.3581 17.7001C19.6816 17.8694 19.0184 18.1018 18.385 18.3973V14.5127C18.385 14.2039 18.133 13.9516 17.8246 13.9516H14.4024C14.094 13.9516 13.842 14.2039 13.842 14.5127V22.365C13.6596 22.6472 13.4905 22.9394 13.3379 23.2382C13.0859 23.7263 12.8704 24.2343 12.6913 24.7555C12.5156 24.2343 12.3 23.7263 12.0447 23.2382C11.8888 22.9394 11.7197 22.6472 11.5406 22.365V3.98758C11.5406 3.6788 11.2886 3.42646 10.9802 3.42646H7.558C7.24961 3.42646 6.99759 3.6788 6.99759 3.98758V18.394C6.3609 18.0985 5.701 17.8661 5.02451 17.6968C4.91508 17.6702 4.80565 17.6436 4.69622 17.6204V1.12223H14.1769C14.4886 1.12223 14.744 0.866577 14.7373 0.551156C14.7307 0.242376 14.4687 0 14.1603 0H4.13912C3.83072 0 3.5787 0.252336 3.5787 0.561117V17.4378C2.55071 17.3282 1.49951 17.3647 0.458262 17.554C0.179711 17.6038 -0.0126184 17.8561 0.000645898 18.1284C0.0105942 19.4764 0.292461 20.7879 0.813086 21.9964C1.33703 23.2116 2.10304 24.3239 3.08129 25.2602C4.05622 26.1932 5.20358 26.907 6.44049 27.3785C7.67739 27.8467 9.00714 28.0658 10.3568 28.0127C10.6652 27.9994 10.9039 27.7404 10.894 27.4316C10.894 27.3851 10.884 27.342 10.8741 27.3021C10.4198 25.7084 9.63388 24.2542 8.58599 23.0191C7.53811 21.7839 6.22825 20.7746 4.72938 20.0674C4.45083 19.9379 4.11922 20.0574 3.98658 20.3363C3.85725 20.6152 3.97663 20.9472 4.25519 21.0801C5.60483 21.7142 6.78536 22.6273 7.73376 23.7429C8.51967 24.6692 9.14641 25.735 9.56755 26.8971C8.62578 26.8572 7.70391 26.6647 6.8351 26.336C5.73748 25.9209 4.71944 25.2868 3.85062 24.4567C2.98512 23.63 2.30532 22.6406 1.84107 21.5615C1.43651 20.6219 1.19443 19.6158 1.13143 18.5866C2.09309 18.4571 3.06471 18.477 4.00648 18.6331C4.02969 18.6397 4.0529 18.643 4.07611 18.6463C4.30492 18.6862 4.53042 18.7327 4.75591 18.7891C5.62473 19.0049 6.4637 19.3403 7.24961 19.7918C7.26619 19.8018 7.28609 19.8151 7.30598 19.825C7.69728 20.0541 8.07863 20.3098 8.44008 20.5953C9.53771 21.4619 10.4231 22.5443 11.0532 23.7562C11.6832 24.9713 12.0579 26.3194 12.1342 27.7138V27.7304V27.7437V27.757V27.7703V27.7836V27.7969V27.8101V27.8234H12.1375V27.8367H12.1408V27.85H12.1442V27.8599H12.1475V27.8699H12.1508C12.1574 27.8865 12.1641 27.9031 12.1707 27.9164L12.1773 27.9297C12.1939 27.9662 12.2171 27.9994 12.2436 28.0293L12.2503 28.0392L12.2569 28.0492L12.2668 28.0625L12.2735 28.0691L12.2801 28.0791L12.2901 28.089L12.2967 28.099L12.3033 28.109C12.3332 28.1355 12.3696 28.1588 12.4028 28.1754L12.4128 28.182C12.4128 28.182 12.4459 28.1986 12.4592 28.2052L12.4691 28.2086L12.4791 28.2119L12.4923 28.2152L12.5056 28.2185L12.5189 28.2218H12.5321H12.5454H12.5587H12.5719H12.5852H12.5985H12.6117H12.625H12.6383H12.6515H12.6648H12.678H12.6913H12.7046H12.7178H12.7311H12.7444H12.7576H12.7709V28.2185H12.7842V28.2152H12.7974V28.2119H12.8074V28.2086H12.8173V28.2052C12.8339 28.1986 12.8505 28.192 12.8637 28.1853L12.8737 28.1787C12.9102 28.1621 12.9433 28.1388 12.9732 28.1123L12.9798 28.1056L12.9864 28.0957L12.9964 28.0857L13.003 28.0791L13.0097 28.0691L13.0196 28.0592L13.0262 28.0492L13.0329 28.0392C13.0594 28.0093 13.0793 27.9728 13.0992 27.9396L13.1058 27.9297C13.1124 27.9131 13.1191 27.8965 13.1257 27.8799L13.129 27.8666L13.1323 27.8533L13.1357 27.84V27.8267V27.8135V27.8002V27.7869V27.7736V27.7603V27.747V27.7338V27.7205C13.2119 26.3227 13.5867 24.978 14.2167 23.7595C14.8468 22.5476 15.7322 21.4652 16.8298 20.5986C17.1912 20.3131 17.5693 20.0574 17.9639 19.8283C17.9838 19.8184 18.0004 19.8084 18.0203 19.7951C18.8062 19.3436 19.6451 19.0082 20.514 18.7924C20.7395 18.736 20.9649 18.6895 21.1938 18.6497C21.217 18.6497 21.2402 18.643 21.2634 18.6364C22.2085 18.4803 23.1768 18.4637 24.1384 18.5899C24.0754 19.6225 23.8334 20.6285 23.4288 21.5648C22.9645 22.6472 22.2847 23.6333 21.4159 24.46C20.5471 25.2901 19.5324 25.9243 18.4315 26.3393C17.5626 26.668 16.6375 26.8606 15.699 26.9004C16.1235 25.7383 16.7469 24.6725 17.5328 23.7462C18.4779 22.6306 19.6584 21.7175 21.0114 21.0834C21.2899 20.9539 21.4093 20.6219 21.28 20.3396C21.1506 20.0607 20.819 19.9412 20.5372 20.0707C19.0383 20.7779 17.7284 21.7873 16.6806 23.0224C15.6327 24.2575 14.8434 25.7118 14.3925 27.3055C14.3792 27.3486 14.3726 27.3918 14.3726 27.4383C14.3593 27.747 14.6014 28.006 14.9065 28.0193C16.2561 28.0724 17.5859 27.8533 18.8228 27.3851C20.063 26.917 21.207 26.2031 22.1819 25.2668C23.1602 24.3305 23.9262 23.2183 24.4501 22.0031C24.9708 20.7978 25.2526 19.483 25.2626 18.135C25.2759 17.8594 25.0835 17.6104 24.805 17.5606M10.4231 20.9041C10.0285 20.4725 9.5974 20.0707 9.13315 19.7055C8.80817 19.4498 8.46993 19.2108 8.12174 18.995V4.54538H10.4231V20.9008V20.9041ZM17.2675 18.995C16.9193 19.2108 16.5811 19.4465 16.2561 19.7055C15.7918 20.0707 15.3608 20.4725 14.9661 20.9041V15.0705H17.2675V18.9983V18.995Z" fill="var(--fill-0, #4B3D2A)"/>
</svg>
