<svg preserveAspectRatio="none" width="100%" height="100%" overflow="visible" style="display: block;" viewBox="0 0 9.92504 13.1481" fill="none" xmlns="http://www.w3.org/2000/svg">
<path id="Vector" d="M6.5758 12.3744C8.37975 12.3744 8.9269 12.0491 9.28836 11.5311C9.4409 11.3087 9.59675 10.8438 9.63323 10.6015C9.66639 10.4288 9.70287 10.3259 9.78909 10.3259C9.89189 10.3259 9.92504 10.3956 9.92504 10.721C9.92504 11.2555 9.68629 12.2682 9.58017 12.6998C9.47737 13.1115 9.46079 13.1481 9.06618 13.1481C6.19776 13.1481 3.31277 13.0617 0.308394 13.0617C0.102796 13.0617 0 13.0451 0 12.9256C0 12.8393 0.0331594 12.7529 0.242073 12.4442C2.79878 8.57612 5.39196 4.70807 7.77954 0.823415H4.05226C3.17681 0.823415 2.12893 0.873218 1.57846 1.16872C0.961663 1.4941 0.649952 2.13158 0.600211 2.52668C0.56705 2.78566 0.497415 2.83546 0.411197 2.83546C0.324978 2.83546 0.308394 2.74914 0.308394 2.61301C0.308394 2.40716 0.567053 0.843336 0.649955 0.325382C0.683116 0.0830065 0.719589 0 0.822388 0C0.974928 0 1.08104 0.102927 1.54198 0.119528C3.17349 0.189253 3.99589 0.169332 4.52978 0.169332H9.32152C9.58017 0.169332 9.66639 0.202533 9.66639 0.305459C9.66639 0.375184 9.66639 0.408387 9.59675 0.511314C7.10637 4.46569 4.5132 8.42007 1.90344 12.3744H6.57248H6.5758Z" fill="var(--fill-0, #BD9A5F)"/>
</svg>
