<svg preserveAspectRatio="none" width="100%" height="100%" overflow="visible" style="display: block;" viewBox="0 0 12.9825 13.002" fill="none" xmlns="http://www.w3.org/2000/svg">
<path id="Vector" d="M1.49224 4.98365C1.49224 2.30091 1.49224 1.81948 1.45908 1.27164C1.42592 0.687285 1.28664 0.411708 0.719585 0.292181C0.583626 0.258978 0.291817 0.239056 0.135961 0.239056C0.0663229 0.239056 0 0.205855 0 0.13613C0 0.0332034 0.0862138 0 0.275231 0C1.04788 0 2.12893 0.0498038 2.21514 0.0498038C2.40416 0.0498038 3.70739 0 4.24128 0C5.32232 0 6.473 0.102926 7.38492 0.757009C7.8127 1.06579 8.56877 1.90912 8.56877 3.09444C8.56877 4.36608 8.03488 5.63773 6.48958 7.06542C7.89892 8.87162 9.06618 10.3989 10.061 11.468C10.9895 12.4475 11.7257 12.6367 12.1568 12.7065C12.4818 12.7596 12.7238 12.7596 12.8266 12.7596C12.9128 12.7596 12.9825 12.8094 12.9825 12.8625C12.9825 12.9654 12.8797 12.9986 12.5713 12.9986H11.351C10.3893 12.9986 9.96152 12.9123 9.51385 12.6733C8.77437 12.2782 8.17415 11.4348 7.1959 10.1466C6.47299 9.20032 5.66719 8.0482 5.32563 7.60329C5.256 7.53357 5.20625 7.50037 5.10345 7.50037L2.99111 7.46717C2.90489 7.46717 2.87173 7.52029 2.87173 7.60329V8.015C2.87173 9.66515 2.87173 11.0231 2.95794 11.7469C3.00768 12.245 3.11381 12.6235 3.6278 12.6932C3.86656 12.7264 4.24459 12.7629 4.40044 12.7629C4.50324 12.7629 4.5364 12.8127 4.5364 12.8658C4.5364 12.9522 4.45019 13.002 4.26117 13.002C3.31609 13.002 2.23504 12.9522 2.14882 12.9522C2.13224 12.9522 1.05119 13.002 0.533885 13.002C0.344868 13.002 0.258654 12.9688 0.258654 12.8658C0.258654 12.8127 0.291816 12.7629 0.394615 12.7629C0.550471 12.7629 0.756064 12.7297 0.908604 12.6932C1.25348 12.6235 1.33638 12.245 1.40602 11.7469C1.49224 11.0264 1.49224 9.66515 1.49224 8.015V4.99028V4.98365ZM2.86841 6.48106C2.86841 6.56739 2.90157 6.63711 2.98779 6.68692C3.24644 6.84297 4.03567 6.96249 4.79174 6.96249C5.20293 6.96249 5.68377 6.90937 6.07838 6.63711C6.67859 6.22541 7.12627 5.29575 7.12627 3.9909C7.12627 1.84272 5.99217 0.551157 4.15506 0.551157C3.64106 0.551157 3.17681 0.60096 3.00437 0.654083C2.91816 0.687285 2.86841 0.757011 2.86841 0.859937V6.48106Z" fill="var(--fill-0, #BD9A5F)"/>
</svg>
