<svg preserveAspectRatio="none" width="100%" height="100%" overflow="visible" style="display: block;" viewBox="0 0 11.666 17.3016" fill="none" xmlns="http://www.w3.org/2000/svg">
<path id="Vector" d="M7.75301 12.6932C9.03965 12.6932 10.0544 12.5371 10.7408 11.8333C11.1023 11.4547 11.3244 10.6977 11.3742 10.389C11.4073 10.1997 11.4438 10.13 11.5466 10.13C11.6328 10.13 11.666 10.2495 11.666 10.389C11.666 10.5085 11.4604 12.0059 11.288 12.5903C11.1852 12.9156 11.152 12.9522 10.8403 13.0883C10.1539 13.3639 8.84732 13.4834 7.74969 13.4834C7.61373 13.4834 7.49104 13.4834 7.37166 13.4668C7.07984 13.7059 6.52937 14.2404 6.41 14.3599C7.47446 14.4629 8.12773 14.8746 8.12773 15.5818C8.12773 16.289 7.49104 16.7505 6.90741 16.9929C6.44316 17.1987 5.896 17.3016 5.56771 17.3016C5.44833 17.3016 5.34553 17.2485 5.34553 17.1622C5.34553 17.0061 5.50139 16.9895 5.68709 16.9729C6.2873 16.9032 6.95715 16.5413 6.95715 15.9238C6.95715 15.4257 6.73497 14.9609 5.72025 14.6687C5.53123 14.6189 5.46159 14.5824 5.46159 14.5127C5.46159 14.4629 5.53123 14.3931 5.68377 14.2703L6.69849 13.427C4.68895 13.2908 3.24645 12.6699 2.07918 11.6208C0.414507 10.1267 0 8.16441 0 6.53087C0 5.37875 0.394615 3.3667 1.92333 1.8394C2.95463 0.806813 4.51651 0 7.15943 0C7.84586 0 8.80752 0.0531244 9.64981 0.205854C10.3031 0.325382 10.8502 0.428308 11.4007 0.464831C11.5897 0.481432 11.6229 0.551156 11.6229 0.654083C11.6229 0.790212 11.5731 0.999386 11.5367 1.61695C11.5035 2.1847 11.5035 3.13097 11.4869 3.38662C11.4703 3.6456 11.4339 3.74852 11.3311 3.74852C11.2117 3.74852 11.1951 3.629 11.1951 3.38662C11.1951 2.71594 10.9199 2.01205 10.4755 1.63355C9.8753 1.11891 8.55219 0.654083 7.04005 0.654083C4.75527 0.654083 3.6908 1.32477 3.09059 1.90912C1.83711 3.11104 1.5453 4.64166 1.5453 6.39474C1.5453 9.67843 4.06884 12.6865 7.74306 12.6865" fill="var(--fill-0, #BD9A5F)"/>
</svg>
