<svg preserveAspectRatio="none" width="100%" height="100%" overflow="visible" style="display: block;" viewBox="0 0 10.89 13.2377" fill="none" xmlns="http://www.w3.org/2000/svg">
<path id="Vector" d="M6.28398 8.25074C6.28398 9.90088 6.28398 11.2589 6.3702 11.9827C6.41994 12.4807 6.52274 12.8592 7.04005 12.9289C7.27881 12.9621 7.65684 12.9986 7.8127 12.9986C7.9155 12.9986 7.95197 13.0484 7.95197 13.1016C7.95197 13.1879 7.86575 13.2377 7.67674 13.2377C6.73165 13.2377 5.65061 13.1879 5.56439 13.1879C5.47817 13.1879 4.39713 13.2377 3.88314 13.2377C3.69412 13.2377 3.6079 13.2045 3.6079 13.1016C3.6079 13.0484 3.64106 12.9986 3.74386 12.9986C3.89972 12.9986 4.10531 12.9654 4.25785 12.9289C4.60273 12.8592 4.68563 12.4807 4.75527 11.9827C4.84148 11.2622 4.84149 9.9042 4.84149 8.25074V0.979463L2.30136 1.01266C1.2369 1.02927 0.825704 1.14879 0.550469 1.56382C0.361452 1.856 0.308396 1.97553 0.258654 2.09506C0.205597 2.23118 0.155854 2.26771 0.0862164 2.26771C0.0364751 2.26771 0 2.2179 0 2.11166C0 1.93901 0.344873 0.461509 0.378034 0.32538C0.411194 0.222453 0.480831 0 0.550469 0C0.669848 0 0.842284 0.17265 1.30654 0.205852C1.80395 0.255655 2.45722 0.292178 2.66282 0.292178H9.10266C9.65313 0.292178 10.0477 0.258975 10.323 0.205852C10.5816 0.17265 10.7342 0.119528 10.8038 0.119528C10.89 0.119528 10.89 0.222453 10.89 0.32538C10.89 0.840013 10.837 2.02865 10.837 2.2179C10.837 2.37063 10.7872 2.44036 10.7176 2.44036C10.6314 2.44036 10.5982 2.39055 10.5783 2.14818L10.5617 1.95893C10.512 1.44429 10.0975 1.04919 8.44939 1.01266L6.2873 0.979463V8.25074H6.28398Z" fill="var(--fill-0, #BD9A5F)"/>
</svg>
