<svg preserveAspectRatio="none" width="100%" height="100%" overflow="visible" style="display: block;" viewBox="0 0 13.0853 13.2344" fill="none" xmlns="http://www.w3.org/2000/svg">
<path id="Vector" d="M5.99548 0.670683C6.20108 0.102926 6.27072 0 6.37352 0C6.47632 0 6.54595 0.0863258 6.75155 0.61756C7.0102 1.27164 9.70619 8.37027 10.7508 10.9833C11.3675 12.5139 11.865 12.7895 12.2264 12.8924C12.4851 12.9787 12.7404 12.9953 12.9128 12.9953C13.0156 12.9953 13.0853 13.0119 13.0853 13.0983C13.0853 13.2012 12.9294 13.2344 12.7404 13.2344C12.4818 13.2344 11.2283 13.2344 10.0444 13.2012C9.71945 13.1846 9.53043 13.1846 9.53043 13.0817C9.53043 13.0119 9.58349 12.9787 9.64981 12.9621C9.75261 12.9289 9.85541 12.7729 9.75261 12.4973L8.15425 8.26734C8.12109 8.19761 8.08462 8.16441 7.9984 8.16441H4.30759C4.22137 8.16441 4.16832 8.21754 4.13516 8.30054L3.10385 11.3419C2.948 11.7735 2.8651 12.1852 2.8651 12.494C2.8651 12.8393 3.22655 12.992 3.51836 12.992H3.69081C3.81018 12.992 3.86324 13.0252 3.86324 13.0949C3.86324 13.1979 3.76044 13.2311 3.60458 13.2311C3.19339 13.2311 2.4539 13.1813 2.26488 13.1813C2.07587 13.1813 1.13079 13.2311 0.32498 13.2311C0.102802 13.2311 0 13.1979 0 13.0949C0 13.0252 0.0696382 12.992 0.155856 12.992C0.275236 12.992 0.51731 12.9754 0.653269 12.9588C1.4425 12.8559 1.78737 12.2018 2.09577 11.3419L5.99217 0.667362L5.99548 0.670683ZM7.77954 7.54685C7.86575 7.54685 7.86576 7.49705 7.84918 7.42732L6.21766 2.78566C6.13144 2.52668 6.04523 2.52668 5.95901 2.78566L4.44687 7.42732C4.41371 7.51365 4.44687 7.54685 4.49661 7.54685H7.77623H7.77954Z" fill="var(--fill-0, #BD9A5F)"/>
</svg>
