<svg preserveAspectRatio="none" width="100%" height="100%" overflow="visible" style="display: block;" viewBox="0 0 7.54078 13.1381" fill="none" xmlns="http://www.w3.org/2000/svg">
<path id="Vector" d="M1.49224 5.11977C1.49224 2.43704 1.49224 1.95561 1.45908 1.40777C1.42592 0.823413 1.28664 0.547836 0.71959 0.428308C0.583631 0.395106 0.291814 0.378504 0.135958 0.378504C0.0663204 0.378504 0 0.345301 0 0.275576C0 0.172649 0.0862189 0.139448 0.275236 0.139448C0.66985 0.139448 1.1341 0.139447 1.51213 0.156048L2.21515 0.189252C2.56002 0.205853 6.04523 0.189251 6.43984 0.17265C6.76482 0.156049 7.04005 0.156049 7.19591 0.102926C7.29871 0.0697237 7.36835 0 7.43798 0C7.50762 0 7.54078 0.0697224 7.54078 0.156048C7.54078 0.275576 7.45456 0.481429 7.40482 0.962861C7.38824 1.13551 7.35176 1.89252 7.3186 2.09838C7.30202 2.1847 7.26886 2.28763 7.18264 2.28763C7.09642 2.28763 7.06326 2.2013 7.06326 2.08177C7.06326 1.94565 7.01352 1.65347 6.90741 1.42769C6.80461 1.20524 6.41 0.893138 5.74015 0.876537L3.09722 0.826733C2.99443 0.826733 2.94137 0.876536 2.94137 1.01599V5.76057C2.94137 5.8635 2.95795 5.91663 3.06075 5.91663L5.25931 5.90002C5.55113 5.90002 5.7932 5.90002 6.03196 5.88342C6.44315 5.85022 6.66865 5.7971 6.82119 5.57464C6.89083 5.48832 6.94057 5.40199 7.01021 5.40199C7.07985 5.40199 7.09643 5.45512 7.09643 5.53812C7.09643 5.64105 7.01021 5.93322 6.96047 6.50098C6.9273 6.84628 6.89083 7.53357 6.89083 7.6531C6.89083 7.80915 6.89083 7.97848 6.77145 7.97848C6.68523 7.97848 6.65207 7.90875 6.65207 7.82243C6.63549 7.64977 6.61891 7.41072 6.54927 7.20487C6.46305 6.96249 6.18782 6.65371 5.65724 6.58731C5.22615 6.53419 3.35588 6.53419 3.06406 6.53419C2.97785 6.53419 2.94468 6.56739 2.94468 6.69024V8.15113C2.94468 9.80128 2.94468 11.1592 3.0309 11.8831C3.08396 12.3811 3.18676 12.7596 3.70075 12.8293C3.94283 12.8625 4.31754 12.899 4.4734 12.899C4.5762 12.899 4.60936 12.9522 4.60936 13.002C4.60936 13.0883 4.52314 13.1381 4.33413 13.1381C3.38904 13.1381 2.308 13.0883 2.22178 13.0883C2.13556 13.0883 1.05451 13.1381 0.540521 13.1381C0.351504 13.1381 0.265285 13.1049 0.265285 13.002C0.265285 12.9488 0.298448 12.899 0.401246 12.899C0.557102 12.899 0.762701 12.8658 0.915241 12.8293C1.26011 12.7596 1.34302 12.3811 1.41265 11.8831C1.49887 11.1626 1.49887 9.8046 1.49887 8.15113V5.12641L1.49224 5.11977Z" fill="var(--fill-0, #BD9A5F)"/>
</svg>
