<svg preserveAspectRatio="none" width="100%" height="100%" overflow="visible" style="display: block;" viewBox="0 0 4.39713 16.0898" fill="none" xmlns="http://www.w3.org/2000/svg">
<path id="Vector" d="M2.73246 11.1028C2.73246 12.7529 2.73246 14.1109 2.81867 14.8347C2.87173 15.3328 2.97453 15.7113 3.48852 15.781C3.7306 15.8142 4.10532 15.8507 4.26117 15.8507C4.36397 15.8507 4.39713 15.9005 4.39713 15.9536C4.39713 16.04 4.31091 16.0898 4.1219 16.0898C3.17681 16.0898 2.09577 16.04 2.00955 16.04C1.92333 16.04 0.842286 16.0898 0.328293 16.0898C0.139276 16.0898 0.0530573 16.0566 0.0530573 15.9536C0.0530573 15.9005 0.0862181 15.8507 0.189017 15.8507C0.344873 15.8507 0.55047 15.8175 0.70301 15.781C1.04788 15.7113 1.13079 15.3328 1.20042 14.8347C1.28664 14.1142 1.28664 12.7563 1.28664 11.1028V8.07809C1.28664 5.39535 1.28664 4.91392 1.25348 4.36608C1.22032 3.78173 1.04788 3.48955 0.66985 3.40322C0.480833 3.35342 0.258655 3.3335 0.135959 3.3335C0.0663217 3.3335 0 3.3003 0 3.23057C0 3.12764 0.0862189 3.09444 0.275236 3.09444C0.842287 3.09444 1.92333 3.14425 2.00955 3.14425C2.09577 3.14425 3.17681 3.09444 3.6908 3.09444C3.87982 3.09444 3.96604 3.12764 3.96604 3.23057C3.96604 3.3003 3.8964 3.3335 3.82676 3.3335C3.70738 3.3335 3.60459 3.3501 3.39899 3.3833C2.93474 3.46963 2.79878 3.7618 2.7623 4.36276C2.72914 4.91392 2.72914 5.39535 2.72914 8.07477V11.0995L2.73246 11.1028ZM1.13742 0.893139C1.13742 0.514634 1.39607 0 2.01286 0C2.51028 0 2.90489 0.325382 2.90489 0.843335C2.90489 1.36129 2.54344 1.773 2.01286 1.773C1.39607 1.773 1.13742 1.29157 1.13742 0.89646" fill="var(--fill-0, #BD9A5F)"/>
</svg>
