<svg preserveAspectRatio="none" width="100%" height="100%" overflow="visible" style="display: block;" viewBox="0 0 4.39713 16.0898" fill="none" xmlns="http://www.w3.org/2000/svg">
<path id="Vector" d="M2.73246 11.1028C2.73246 12.7529 2.73246 14.1109 2.81867 14.8347C2.87173 15.3328 2.97454 15.7113 3.48853 15.781C3.7306 15.8142 4.10532 15.8507 4.26117 15.8507C4.36397 15.8507 4.39713 15.9005 4.39713 15.9536C4.39713 16.04 4.31091 16.0898 4.12189 16.0898C3.17681 16.0898 2.09577 16.04 2.00955 16.04C1.92333 16.04 0.842293 16.0898 0.328299 16.0898C0.139283 16.0898 0.0530586 16.0566 0.0530586 15.9536C0.0530586 15.9005 0.0862207 15.8507 0.189019 15.8507C0.344875 15.8507 0.550469 15.8175 0.703009 15.781C1.04788 15.7113 1.1341 15.3328 1.20042 14.8347C1.28664 14.1142 1.28664 12.7563 1.28664 11.1028V8.07809C1.28664 5.39535 1.28664 4.91392 1.25348 4.36608C1.22032 3.78173 1.04789 3.48955 0.669856 3.40322C0.480839 3.35342 0.258656 3.3335 0.135961 3.3335C0.066323 3.3335 0 3.3003 0 3.23057C0 3.12764 0.0862239 3.09444 0.275241 3.09444C0.842292 3.09444 1.92333 3.14425 2.00955 3.14425C2.09577 3.14425 3.17681 3.09444 3.69081 3.09444C3.87982 3.09444 3.96605 3.12764 3.96605 3.23057C3.96605 3.3003 3.8964 3.3335 3.82677 3.3335C3.70739 3.3335 3.60459 3.3501 3.39899 3.3833C2.93474 3.46963 2.79878 3.7618 2.76231 4.36276C2.72915 4.91392 2.72914 5.39535 2.72914 8.07477V11.0995L2.73246 11.1028ZM1.13742 0.893139C1.13742 0.514634 1.39607 0 2.01287 0C2.51028 0 2.9049 0.325382 2.9049 0.843335C2.9049 1.36129 2.54344 1.773 2.01287 1.773C1.39607 1.773 1.13742 1.29157 1.13742 0.89646" fill="var(--fill-0, #BD9A5F)"/>
</svg>
