<svg preserveAspectRatio="none" width="100%" height="100%" overflow="visible" style="display: block;" viewBox="0 0 11.6627 17.3016" fill="none" xmlns="http://www.w3.org/2000/svg">
<path id="Vector" d="M7.74638 12.6932C9.03302 12.6932 10.0477 12.5371 10.7342 11.8333C11.0956 11.4547 11.3178 10.6977 11.3709 10.389C11.404 10.1997 11.4405 10.13 11.5433 10.13C11.6295 10.13 11.6627 10.2495 11.6627 10.389C11.6627 10.5085 11.4571 12.0059 11.2846 12.5903C11.1818 12.9156 11.1454 12.9522 10.837 13.0883C10.1505 13.3639 8.844 13.4834 7.74638 13.4834C7.61042 13.4834 7.48772 13.4834 7.36834 13.4668C7.07653 13.7059 6.52606 14.2404 6.40668 14.3599C7.47114 14.4629 8.12441 14.8746 8.12441 15.5818C8.12441 16.289 7.48772 16.7505 6.90409 16.9929C6.43984 17.1987 5.89269 17.3016 5.56439 17.3016C5.44501 17.3016 5.34222 17.2485 5.34222 17.1622C5.34222 17.0061 5.49807 16.9895 5.68709 16.9729C6.2873 16.9032 6.95715 16.5413 6.95715 15.9238C6.95715 15.4257 6.73497 14.9609 5.72025 14.6687C5.53123 14.6189 5.46159 14.5824 5.46159 14.5127C5.46159 14.4629 5.53123 14.3931 5.68377 14.2703L6.69518 13.427C4.68563 13.2908 3.24313 12.6699 2.07587 11.6208C0.411195 10.1267 0 8.16441 0 6.53087C0 5.37875 0.394614 3.3667 1.92333 1.8394C2.95463 0.806813 4.51651 0 7.15943 0C7.84586 0 8.80753 0.0531244 9.64981 0.205854C10.3031 0.325382 10.8502 0.428308 11.4007 0.464831C11.5897 0.481432 11.6229 0.551156 11.6229 0.654083C11.6229 0.790212 11.5731 0.999386 11.5367 1.61695C11.5035 2.1847 11.5035 3.13097 11.4869 3.38662C11.4703 3.6456 11.4339 3.74852 11.3311 3.74852C11.2117 3.74852 11.1951 3.629 11.1951 3.38662C11.1951 2.71594 10.9199 2.01205 10.4722 1.63355C9.87199 1.11891 8.54887 0.654083 7.03674 0.654083C4.75195 0.654083 3.68749 1.32477 3.08728 1.90912C1.8338 3.11104 1.54198 4.64166 1.54198 6.39474C1.54198 9.67843 4.06552 12.6865 7.73975 12.6865" fill="var(--fill-0, #BD9A5F)"/>
</svg>
