<svg preserveAspectRatio="none" width="100%" height="100%" overflow="visible" style="display: block;" viewBox="0 0 12.7575 12.8877" fill="none" xmlns="http://www.w3.org/2000/svg">
<path id="Vector" d="M1.766 1.77802C2.94073 0.590069 4.47571 0 6.37093 0C8.26616 0 9.80114 0.593977 10.9837 1.77802C12.1663 2.96597 12.7575 4.51734 12.7575 6.44386C12.7575 8.37037 12.1663 9.92174 10.9837 11.1097C9.80114 12.2976 8.26224 12.8877 6.37093 12.8877C4.47962 12.8877 2.94465 12.2937 1.766 11.1097C0.587362 9.92174 0 8.36646 0 6.44386C0 4.52125 0.587362 2.96597 1.766 1.77802ZM2.74103 10.7267C3.65732 11.8131 4.8712 12.3563 6.37877 12.3563C7.88633 12.3563 9.10022 11.8131 10.0165 10.7267C10.9328 9.64038 11.3909 8.21406 11.3909 6.44386C11.3909 5.27544 11.1834 4.2438 10.7722 3.34502C10.3572 2.44624 9.76982 1.75457 9.00624 1.26611C8.24267 0.777641 7.36554 0.531452 6.37093 0.531452C4.86728 0.531452 3.66123 1.07463 2.74103 2.16098C1.82474 3.24733 1.3666 4.67365 1.3666 6.44386C1.3666 8.21406 1.82474 9.64038 2.74103 10.7267Z" fill="var(--fill-0, #B8A876)"/>
</svg>
