<svg preserveAspectRatio="none" width="100%" height="100%" overflow="visible" style="display: block;" viewBox="0 0 22.1945 27.6941" fill="none" xmlns="http://www.w3.org/2000/svg">
<path id="Vector" d="M7.04445 20.668L6.93481 20.5547L7.07186 20.4961C7.43211 20.3398 7.78844 20.1756 8.13303 20.0037C9.13155 19.5113 10.1105 18.9291 11.0464 18.2726L11.0894 18.2413L11.1325 18.2726C12.0684 18.9252 13.0512 19.5074 14.0458 20.0037C14.3904 20.1756 14.7507 20.3398 15.107 20.4961L15.244 20.5547L15.1344 20.668C14.9817 20.8243 14.8251 20.9767 14.6723 21.1252L14.6332 21.1643L14.5862 21.1447C14.3395 21.0314 14.1398 20.9376 13.9558 20.8439C12.9768 20.3593 12.0096 19.7888 11.0894 19.1518C10.1653 19.7888 9.20203 20.3593 8.21918 20.8439C8.03513 20.9376 7.83152 21.0314 7.58874 21.1447L7.54175 21.1643L7.50259 21.1252C7.34596 20.9767 7.19325 20.8243 7.04053 20.668M3.71997 15.6778L4.11546 16.4125C4.95343 16.1194 5.77966 15.7716 6.57847 15.3769C6.62546 15.3535 6.66854 15.33 6.71553 15.3066L6.74685 15.291C7.78061 16.4437 8.91226 17.4988 10.1027 18.4172L10.1457 18.4523L10.1927 18.4211C10.3689 18.3077 10.5256 18.2061 10.6665 18.1084L10.7918 18.0225L10.6704 17.9326C9.30384 16.9244 8.01164 15.7443 6.83691 14.4274L6.79384 14.3805L6.65287 14.4547C6.59805 14.4821 6.54323 14.5133 6.48841 14.5368C5.58779 14.9823 4.65584 15.3652 3.71997 15.6778ZM11.0933 0.945672L12.041 1.96168L12.4443 1.43805L11.0933 0L9.74241 1.43805L10.1457 1.96168L11.0973 0.945672H11.0933ZM7.3068 7.54583L7.24415 7.59664C6.22214 8.41726 5.13356 9.15191 4.00974 9.77715L3.91967 9.82795L3.97841 9.92564C4.07239 10.0859 4.1742 10.2539 4.27992 10.4219L4.323 10.4923L4.38956 10.4532C5.392 9.87875 6.36311 9.21834 7.2794 8.49151C7.51434 8.78849 7.74928 9.07767 7.98031 9.3473C8.68515 10.1757 9.44481 10.9573 10.2358 11.6763L10.2867 11.7232L10.3376 11.6802C10.4942 11.5591 10.6195 11.4575 10.737 11.3598L10.8349 11.2777L10.7409 11.1957C9.83247 10.3985 8.95926 9.51533 8.14869 8.56575C7.88634 8.25704 7.62398 7.93661 7.36946 7.60836L7.31855 7.54193L7.3068 7.54583ZM9.06106 1.90697C9.49571 2.59474 9.94994 3.25123 10.4198 3.86866L10.4825 3.95072L10.5491 3.87256C10.643 3.76315 10.8271 3.54041 10.8271 3.54041L10.8819 3.47398L8.95534 0.683853L6.54323 5.79126L6.94264 6.40868L9.06889 1.90697H9.06106ZM3.55942 21.2776L1.07292 16.4633L3.09736 16.4867C3.35189 17.0338 4.83988 19.5973 5.66219 20.5977L5.69743 20.6446L5.74833 20.625C5.90105 20.5703 6.04985 20.5156 6.19473 20.457L6.33178 20.4062L6.19082 20.246C6.14383 20.1913 6.09292 20.1366 6.04593 20.0779C5.02783 18.8861 3.43803 15.8615 3.42237 15.8302L3.39888 15.7833L0 15.7443L2.93682 21.4222L3.56726 21.2776H3.55942ZM3.32056 15.4707L2.01662 10.1249L3.39104 10.6486C3.55159 10.8987 5.0944 13.3136 5.92845 14.3375L5.96761 14.3883L6.02243 14.3609C6.13599 14.3062 6.24955 14.2515 6.35919 14.1968C6.37094 14.189 6.42576 14.1616 6.42576 14.1616L6.54323 14.103L6.45317 13.9975C5.47032 12.8408 3.66907 10.0546 3.6534 10.0272L3.63774 10.0038L1.08858 8.91745L2.72145 15.459L3.31665 15.4668L3.32056 15.4707ZM5.18446 5.47474L6.62155 7.63962L7.08752 7.2762L4.90644 3.8882L3.68864 9.51924L4.40131 9.0933L5.18055 5.47864L5.18446 5.47474ZM15.4751 15.3066C15.5181 15.33 15.5651 15.3535 15.6121 15.3769C16.4109 15.7716 17.2411 16.1194 18.0791 16.4125L18.4745 15.6778C17.5387 15.3652 16.6067 14.9823 15.7061 14.5368C15.6513 14.5094 15.5965 14.4821 15.5416 14.4547L15.4007 14.3805L15.3576 14.4274C14.1829 15.7482 12.8946 16.9283 11.5241 17.9326L11.4027 18.0225L11.528 18.1084C11.669 18.2061 11.8256 18.3077 12.0018 18.4211L12.0488 18.4523L12.0919 18.4172C13.2862 17.4949 14.4139 16.4437 15.4477 15.291L15.479 15.3066H15.4751ZM11.0933 11.5122L11.0424 11.5552C9.84813 12.5555 8.56376 13.4309 7.22066 14.1577L7.10318 14.2202L7.19716 14.3218C7.31855 14.4547 7.45169 14.5993 7.6044 14.7595L7.64747 14.8064L7.7023 14.7751C8.89269 14.0991 10.0361 13.3137 11.0973 12.4344C12.1584 13.3137 13.2979 14.103 14.4922 14.7751L14.5431 14.8064L14.5862 14.7595C14.7389 14.5954 14.872 14.4547 14.9934 14.3218L15.0874 14.2202L14.9699 14.1577C13.6268 13.4309 12.3425 12.5555 11.1482 11.5552L11.0973 11.5122H11.0933ZM11.5593 4.30242C11.4223 4.1422 11.2891 3.98198 11.156 3.81786L11.0933 3.7397L11.0307 3.81786C10.9015 3.97807 10.7644 4.1422 10.6274 4.30242C9.70325 5.38095 8.70081 6.37742 7.64747 7.26448L7.56916 7.33091L7.63573 7.41688C7.7297 7.53802 7.83152 7.66697 7.95682 7.81547L8.00773 7.8819L8.07037 7.82719C9.03757 6.99094 9.95386 6.06871 10.7957 5.08005C10.8897 4.97064 10.9837 4.85731 11.0973 4.72054C11.2069 4.85341 11.3048 4.97064 11.3949 5.08005C12.2367 6.06871 13.153 6.99094 14.1202 7.82719L14.1829 7.8819L14.2377 7.81547C14.3591 7.66307 14.4609 7.53802 14.5588 7.41688L14.6254 7.33091L14.547 7.26448C13.4937 6.37742 12.4874 5.38095 11.5671 4.30242M17.8715 10.4923L17.9146 10.4219C18.0203 10.2539 18.1182 10.0859 18.2161 9.92564L18.2748 9.82795L18.1809 9.77715C17.057 9.15191 15.9685 8.42117 14.9465 7.59664L14.8838 7.54583L14.8329 7.61227C14.5784 7.94052 14.316 8.26095 14.0537 8.56966C13.2431 9.51924 12.3738 10.4024 11.4614 11.1996L11.3674 11.2816L11.4653 11.3637C11.5828 11.4614 11.7081 11.563 11.8647 11.6841L11.9157 11.7271L11.9666 11.6802C12.7575 10.9612 13.5172 10.1757 14.222 9.35121C14.4531 9.08157 14.688 8.7924 14.923 8.49541C15.8392 9.22225 16.8103 9.88266 17.8128 10.4571L17.8794 10.4962L17.8715 10.4923ZM18.823 21.6996L20.3502 22.0357L16.2308 26.3459L14.0654 26.0021L11.2147 27.6941H10.9798L8.12911 26.0021L5.9637 26.3459L1.84432 22.0357L3.37147 21.6996L3.47328 21.6723C4.51878 21.4339 5.55255 21.1096 6.55106 20.711L6.59805 20.6915L6.63721 20.7305C7.80411 21.9693 9.11197 23.0009 10.5216 23.7903L10.7018 23.8919L10.5177 23.9779C10.3102 24.0756 10.0909 24.1693 9.86379 24.2592L9.82855 24.2748L9.79723 24.2553C8.63033 23.5285 7.53783 22.6297 6.54715 21.5902C5.48597 22.0084 4.38565 22.3405 3.27749 22.5828L6.13208 25.5683C7.84326 25.3925 9.50355 24.904 11.0659 24.1185L11.1012 24.1029L11.1364 24.1185C12.6988 24.904 14.3591 25.3925 16.0703 25.5683L18.9249 22.5828C17.8128 22.3405 16.7164 22.0084 15.6552 21.5902C14.6645 22.6297 13.572 23.5285 12.4051 24.2553L12.3699 24.2748L12.3346 24.2592C12.1075 24.1693 11.8882 24.0756 11.6807 23.9779L11.4967 23.8919L11.6768 23.7903C13.0865 23.0009 14.3943 21.9693 15.5651 20.7305L15.6043 20.6915L15.6513 20.711C16.6498 21.1096 17.6836 21.4339 18.7291 21.6723L18.8309 21.6996H18.823ZM13.0747 25.795C12.3973 25.5722 11.7316 25.3026 11.0933 24.9861C10.4551 25.3026 9.78939 25.5722 9.11197 25.795L11.0933 26.9712L13.0747 25.795ZM11.3674 3.54041C11.3674 3.54041 11.5515 3.76315 11.6455 3.87256L11.712 3.95072L11.7747 3.86866C12.2446 3.25123 12.6988 2.59474 13.1335 1.90697L15.2597 6.40868L15.6591 5.79126L13.247 0.683853L11.3205 3.47398L11.3753 3.54041H11.3674ZM19.2577 21.4222L22.1945 15.7443L18.7956 15.7833L18.7721 15.8302C18.7565 15.8615 17.1667 18.8861 16.1486 20.0779C16.1016 20.1326 16.0507 20.1913 16.0037 20.246L15.8627 20.4062L15.9998 20.457C16.1447 20.5117 16.2935 20.5703 16.4462 20.625L16.4971 20.6446L16.5362 20.5977C17.3586 19.5973 18.8465 17.0338 19.1011 16.4867L21.1255 16.4633L18.639 21.2776L19.2694 21.4222H19.2577ZM15.6395 14.103L15.757 14.1616C15.757 14.1616 15.8118 14.189 15.8275 14.1968C15.9411 14.2515 16.0507 14.3062 16.1642 14.3609L16.2191 14.3883L16.2621 14.3375C17.1001 13.3097 18.639 10.8948 18.7996 10.6486L20.174 10.1249L18.87 15.4707L19.4652 15.4629L21.0981 8.92136L18.5489 10.0077L18.5333 10.0312C18.5176 10.0585 16.7164 12.8447 15.7335 14.0014L15.6435 14.1069L15.6395 14.103ZM15.5691 7.63571L17.0061 5.47083L17.7854 9.08548L18.498 9.51142L17.2802 3.88038L15.0992 7.26839L15.5651 7.63181L15.5691 7.63571Z" fill="var(--fill-0, #B8A876)"/>
</svg>
