<svg preserveAspectRatio="none" width="100%" height="100%" overflow="visible" style="display: block;" viewBox="0 0 11.5358 12.8877" fill="none" xmlns="http://www.w3.org/2000/svg">
<path id="Vector" d="M1.76601 11.1019C0.587365 9.92173 0 8.36646 0 6.43604C0 4.50561 0.587365 2.95034 1.76601 1.7702C2.94465 0.590067 4.49921 0 6.44142 0C8.02731 0 9.42523 0.402494 10.6469 1.20358L11.0033 3.70062H10.8427C10.5804 2.68461 10.0557 1.90306 9.26469 1.35598C8.4737 0.804991 7.53392 0.531449 6.44534 0.531449C4.8947 0.531449 3.65732 1.07072 2.72928 2.14144C1.80125 3.21606 1.33528 4.63848 1.33528 6.40868C1.33528 8.17888 1.79342 9.60521 2.7097 10.6837C3.62599 11.7623 4.83596 12.3211 6.33961 12.3563C7.66314 12.3563 8.7713 11.9967 9.65626 11.2777C10.6156 10.5001 11.1912 9.23007 11.3949 7.47159H11.5358L11.3244 10.25C10.2475 12.0085 8.58726 12.8877 6.33961 12.8877C4.4718 12.876 2.94857 12.2781 1.76992 11.098" fill="var(--fill-0, #B8A876)"/>
</svg>
