<svg preserveAspectRatio="none" width="100%" height="100%" overflow="visible" style="display: block;" viewBox="0 0 8.45412 12.3797" fill="none" xmlns="http://www.w3.org/2000/svg">
<path id="Vector" d="M4.32691 12.3719H0.00391361L0.019577 12.196H0.231028C0.536457 12.196 0.80273 12.0905 1.0181 11.8795C1.23738 11.6685 1.35093 11.4067 1.36268 11.1019V1.27001C1.36268 0.961303 1.24912 0.70339 1.02593 0.492372C0.802729 0.281355 0.536457 0.175847 0.227112 0.175847H0.0156604L0 0H3.5281C4.7459 0 5.68959 0.269633 6.3631 0.804992C7.03661 1.34035 7.37337 2.05546 7.37337 2.95424C7.37337 3.66154 7.18542 4.2477 6.80559 4.71272C6.42576 5.17774 5.96761 5.48646 5.42332 5.64277C6.35527 5.78344 7.09535 6.1664 7.63964 6.79164C8.18394 7.41688 8.45412 8.20233 8.45412 9.15191C8.45412 10.1015 8.08995 10.8752 7.36554 11.477C6.63721 12.0788 5.62694 12.3797 4.32691 12.3797M2.51783 11.7388H4.28775C5.18446 11.7388 5.88147 11.4926 6.37877 11.0042C6.87607 10.5157 7.12276 9.82405 7.12276 8.92527C7.12276 8.41726 7.03661 7.97568 6.86432 7.58882C6.69203 7.20586 6.47666 6.90106 6.21822 6.67832C5.53297 6.1117 4.50704 5.83034 3.13652 5.83034H3.12086V5.67012H3.28923C3.39104 5.67012 3.53593 5.6584 3.72388 5.63495C3.91184 5.6115 4.12329 5.57243 4.36215 5.5099C4.5971 5.45129 4.81247 5.3575 5.00042 5.22855C5.18838 5.09959 5.36459 4.94329 5.53297 4.76744C5.87364 4.37666 6.04593 3.79832 6.04593 3.02459C6.04593 2.25085 5.82273 1.64906 5.38025 1.2114C4.93777 0.777639 4.29558 0.558806 3.45761 0.558806H2.51783V11.7349V11.7388Z" fill="var(--fill-0, #6A6D71)"/>
</svg>
