<svg preserveAspectRatio="none" width="100%" height="100%" overflow="visible" style="display: block;" viewBox="0 0 13.3057 12.8916" fill="none" xmlns="http://www.w3.org/2000/svg">
<path id="Vector" d="M12.9886 0.445481C12.6949 0.445481 12.4404 0.547083 12.225 0.754193C12.0135 0.961303 11.9 1.2114 11.8882 1.50448V10.629C11.8882 11.3129 11.9274 11.9616 12.0135 12.5751L12.0488 12.8916H11.8882L2.23198 2.59865V11.4067C2.24373 11.817 2.42777 12.1257 2.78019 12.325C2.94465 12.4188 3.12086 12.4657 3.31273 12.4657H3.64949V12.6415H0V12.4657H0.336755C0.630437 12.4657 0.88496 12.3641 1.10033 12.157C1.31178 11.9499 1.42142 11.6958 1.42142 11.3871V2.20787C1.42142 1.48885 1.37835 0.847979 1.29612 0.281357L1.26087 0H1.43708L11.0933 10.293V1.52011C11.0816 1.21531 10.968 0.957394 10.7566 0.750284C10.5451 0.543174 10.2906 0.441576 9.99302 0.441576H9.65626V0.265726H13.3057V0.441576H12.9847L12.9886 0.445481Z" fill="var(--fill-0, #6A6D71)"/>
</svg>
