<svg preserveAspectRatio="none" width="100%" height="100%" overflow="visible" style="display: block;" viewBox="0 0 12.6714 15.6192" fill="none" xmlns="http://www.w3.org/2000/svg">
<path id="Vector" d="M1.766 13.8295C0.587362 12.6493 0 11.098 0 9.17536C0 7.25276 0.587362 5.69748 1.766 4.50953C2.94073 3.32157 4.47571 2.73151 6.37094 2.73151C8.00381 2.73151 9.44089 3.134 10.6822 3.93509L11.0385 6.43213H10.878C10.6156 5.41612 10.0948 4.63457 9.30776 4.08749C8.52069 3.54041 7.54175 3.26296 6.37094 3.26296C4.86729 3.26296 3.6534 3.80613 2.72536 4.89248C1.79733 5.97883 1.33136 7.40516 1.33136 9.17536C1.33136 10.9456 1.79341 12.3719 2.72536 13.4504C3.6534 14.529 4.86729 15.076 6.37094 15.0878C7.93333 15.0878 9.2686 14.5719 10.3807 13.5481V10.4141C10.3807 10.1562 10.3024 9.9569 10.1418 9.82013C9.98127 9.68336 9.76198 9.61693 9.47613 9.61693H9.1942V9.44109H12.6714V9.61693H12.4051C12.1075 9.61693 11.8843 9.68336 11.7316 9.82013C11.5789 9.9569 11.5084 10.1523 11.5202 10.4141V13.3371C11.0346 13.9741 10.3611 14.5133 9.49571 14.9549C8.63425 15.3965 7.59266 15.6192 6.37485 15.6192C4.48354 15.6075 2.94857 15.0096 1.76992 13.8295M8.21526 0.00390857C8.21526 0.336066 8.13303 0.640869 7.96465 0.926134C7.80019 1.20749 7.57307 1.43414 7.29114 1.59826C7.00529 1.76239 6.66071 1.84445 6.25347 1.84445C5.84623 1.84445 5.46248 1.66079 5.10223 1.29346C4.74198 0.926132 4.56186 0.496282 4.56186 0H4.73806C4.83204 0.261818 5.03175 0.484559 5.33326 0.672131C5.63477 0.859702 5.98328 0.953488 6.37877 0.953488C6.77426 0.953488 7.12668 0.859702 7.43603 0.672131C7.74537 0.484559 7.94507 0.25791 8.03905 0H8.21526V0.00390857Z" fill="var(--fill-0, #B8A876)"/>
</svg>
