<svg preserveAspectRatio="none" width="100%" height="100%" overflow="visible" style="display: block;" viewBox="0 0 12.2916 12.3953" fill="none" xmlns="http://www.w3.org/2000/svg">
<path id="Vector" d="M8.63816 12.2117C8.94751 12.2117 9.20986 12.1062 9.42915 11.8912C9.64843 11.6802 9.76198 11.4184 9.77373 11.1136V6.52982H2.51783V11.098C2.51783 11.4067 2.63139 11.6685 2.85459 11.8873C3.07779 12.1062 3.34406 12.2156 3.6534 12.2156H3.88443V12.3914H0V12.2156H0.23103C0.540375 12.2156 0.80273 12.1062 1.02201 11.8873C1.2413 11.6685 1.35485 11.4067 1.3666 11.098V1.27392C1.35485 0.965211 1.2413 0.707302 1.02201 0.496284C0.80273 0.285266 0.540375 0.17585 0.23103 0.17585H0V0H3.88443V0.17585H3.6534C3.34406 0.17585 3.0817 0.281359 2.86242 0.496284C2.64314 0.707302 2.52958 0.969119 2.51783 1.27392V6.00228H9.77373V1.27392C9.76198 0.847979 9.57403 0.531454 9.20595 0.316528C9.02974 0.222743 8.83787 0.17585 8.63816 0.17585H8.40713V0H12.2916V0.17585H12.0605C11.7512 0.17585 11.4888 0.285265 11.2696 0.504098C11.0503 0.722931 10.9367 0.984751 10.925 1.29346V11.1019C10.9367 11.4106 11.0503 11.6724 11.2696 11.8912C11.4888 12.1101 11.7512 12.2195 12.0605 12.2195H12.2916V12.3953H8.40713V12.2195H8.63816V12.2117Z" fill="var(--fill-0, #B8A876)"/>
</svg>
