<svg preserveAspectRatio="none" width="100%" height="100%" overflow="visible" style="display: block;" viewBox="0 0 15.9645 12.8721" fill="none" xmlns="http://www.w3.org/2000/svg">
<path id="Vector" d="M15.6826 12.45H15.9645V12.6259H12.1193V12.4657H12.3855C12.5852 12.4657 12.7575 12.3875 12.8985 12.2273C13.0395 12.0671 13.0982 11.8951 13.0747 11.7076L12.2798 2.81357L8.55985 11.0706C8.22701 11.7896 8.0273 12.3914 7.95682 12.8721H7.78061L3.24225 3.05976L2.48259 11.7076C2.45909 11.8951 2.51783 12.071 2.6588 12.2273C2.79977 12.3836 2.96423 12.4657 3.1561 12.4657H3.43804V12.6259H0V12.45H0.281935C0.610859 12.45 0.896707 12.3523 1.13948 12.1491C1.38226 11.9499 1.52714 11.6763 1.57413 11.3363L2.90158 0H3.07779L8.01947 10.6642L12.8554 0H13.016L14.3787 11.3363C14.4374 11.8092 14.6723 12.1374 15.0874 12.325C15.2636 12.4071 15.4594 12.45 15.6709 12.45" fill="var(--fill-0, #6A6D71)"/>
</svg>
