<svg preserveAspectRatio="none" width="100%" height="100%" overflow="visible" style="display: block;" viewBox="0 0 11.5084 16.0725" fill="none" xmlns="http://www.w3.org/2000/svg">
<path id="Vector" d="M5.92063 13.6341C6.28479 13.5051 6.61763 13.4817 6.91131 13.5637C7.49085 13.7161 7.78061 14.0757 7.78061 14.6423C7.78061 15.2089 7.52217 15.6153 7.00138 15.8615C6.70769 16.0022 6.41401 16.0725 6.12425 16.0725C5.83448 16.0725 5.55254 16.0295 5.28236 15.9475L5.30194 15.7716C5.72484 15.7716 6.09684 15.6817 6.41793 15.5059C6.73902 15.33 6.89565 15.0565 6.89565 14.6931C6.89565 14.1734 6.59414 13.9154 5.99111 13.9154C5.80315 13.9154 5.60737 13.9623 5.40766 14.0561L5.3176 13.8803L6.09684 12.8721C4.29167 12.8135 2.82326 12.196 1.69552 11.0237C0.563869 9.8553 0 8.31175 0 6.40087C0 4.48999 0.587364 2.94643 1.76209 1.7702C2.93682 0.590067 4.49529 0 6.42967 0C8.01164 0 9.41348 0.402497 10.6313 1.20358L10.9837 3.69671H10.8232C10.5647 2.6807 10.0361 1.90307 9.24511 1.35208C8.45412 0.804993 7.51434 0.531452 6.42576 0.531452C4.87903 0.531452 3.64165 1.06681 2.71362 2.14144C1.78559 3.21606 1.32353 4.63457 1.32353 6.40478C1.32353 8.17498 1.78167 9.59739 2.69796 10.6759C3.61424 11.7545 4.8203 12.3133 6.32003 12.3484C7.64356 12.3484 8.7478 11.9889 9.63277 11.2699C10.5882 10.4923 11.1677 9.22616 11.3674 7.46768H11.5084L11.297 10.2461C10.271 11.9303 8.6969 12.8095 6.58239 12.8799L5.90888 13.6419L5.92063 13.6341Z" fill="var(--fill-0, #6A6D71)"/>
</svg>
