<svg preserveAspectRatio="none" width="100%" height="100%" overflow="visible" style="display: block;" viewBox="0 0 12.1506 12.6376" fill="none" xmlns="http://www.w3.org/2000/svg">
<path id="Vector" d="M12.1506 0.175847H11.8647C11.618 0.175847 11.4027 0.254002 11.2186 0.414219C11.0346 0.574436 10.9367 0.773729 10.925 1.00819V8.01867C10.925 9.3981 10.4864 10.5157 9.61318 11.3637C8.73997 12.2156 7.57308 12.6376 6.12033 12.6376C4.66759 12.6376 3.48502 12.2156 2.58048 11.3715C1.67594 10.5274 1.22171 9.41373 1.22171 8.0343V1.059C1.22171 0.703392 1.069 0.445479 0.759658 0.281354C0.618691 0.211015 0.458144 0.175847 0.281935 0.175847H0V0H3.6025V0.175847H3.31665C3.05821 0.175847 2.83893 0.254002 2.6588 0.414219C2.48259 0.574436 2.3847 0.777637 2.37687 1.02382V7.78811C2.37687 9.07376 2.72145 10.1132 3.41454 10.9026C4.10763 11.6919 5.03175 12.0905 6.19081 12.0905C7.34988 12.0905 8.28966 11.7154 9.01016 10.9651C9.73066 10.2148 10.0909 9.23397 10.0909 8.01867V1.02382C10.0792 0.777637 9.98519 0.574436 9.80506 0.414219C9.62885 0.254002 9.40956 0.175847 9.14721 0.175847H8.86527V0H12.1467V0.175847H12.1506Z" fill="var(--fill-0, #B8A876)"/>
</svg>
