<svg preserveAspectRatio="none" width="100%" height="100%" overflow="visible" style="display: block;" viewBox="0 0 13.3214 12.9072" fill="none" xmlns="http://www.w3.org/2000/svg">
<path id="Vector" d="M13.0042 0.441573C12.7066 0.441573 12.456 0.547082 12.2407 0.750284C12.0292 0.957394 11.9156 1.20749 11.9039 1.50448V10.6408C11.9039 11.3246 11.947 11.9733 12.0292 12.5868L12.0644 12.9072H11.9039L2.2359 2.60255V11.4184C2.24764 11.8326 2.43168 12.1374 2.7841 12.3406C2.94856 12.4344 3.12869 12.4813 3.31664 12.4813H3.6534V12.6571H0V12.4813H0.336752C0.630434 12.4813 0.88496 12.3797 1.10033 12.1726C1.31178 11.9655 1.42142 11.7115 1.42142 11.4028V2.21568C1.42142 1.49666 1.37835 0.851884 1.29611 0.285263L1.26087 0H1.43708L11.1051 10.3047V1.52401C11.0933 1.2153 10.9798 0.961303 10.7683 0.754193C10.5569 0.547083 10.3024 0.445481 10.0048 0.445481H9.668V0.269632H13.3214V0.445481H13.0003L13.0042 0.441573Z" fill="var(--fill-0, #B8A876)"/>
</svg>
