<svg preserveAspectRatio="none" width="100%" height="100%" overflow="visible" style="display: block;" viewBox="0 0 8.39147 12.3953" fill="none" xmlns="http://www.w3.org/2000/svg">
<path id="Vector" d="M0.231028 12.2195C0.540373 12.2195 0.802731 12.1101 1.02201 11.8912C1.2413 11.6724 1.35485 11.4106 1.3666 11.1019V1.29346C1.35485 0.988656 1.2413 0.722931 1.02201 0.504098C0.802731 0.285265 0.540373 0.175847 0.231028 0.175847H0V0H3.88443V0.175847H3.6534C3.22658 0.175847 2.90158 0.359512 2.67838 0.726839C2.57265 0.902687 2.51783 1.09026 2.51783 1.29346V11.8443H5.05524C5.93237 11.8443 6.59805 11.649 7.06011 11.2621C7.52217 10.8713 7.90591 10.293 8.21526 9.52705H8.39147L7.36162 12.3953H0V12.2195H0.231028Z" fill="var(--fill-0, #B8A876)"/>
</svg>
