<svg preserveAspectRatio="none" width="100%" height="100%" overflow="visible" style="display: block;" viewBox="0 0 12.1428 12.6259" fill="none" xmlns="http://www.w3.org/2000/svg">
<path id="Vector" d="M12.1349 0.175847H11.853C11.6063 0.175847 11.3909 0.254002 11.2069 0.414219C11.0229 0.574436 10.925 0.769824 10.9132 1.0082V8.01085C10.9132 9.39028 10.4746 10.504 9.60143 11.352C8.72822 12.1999 7.56524 12.6259 6.11249 12.6259C4.65975 12.6259 3.4811 12.2039 2.57656 11.3637C1.67202 10.5196 1.22171 9.40982 1.22171 8.03039V1.0629C1.22171 0.7073 1.069 0.449388 0.759658 0.285263C0.618691 0.214924 0.458144 0.179755 0.281935 0.179755H0V0.00390857H3.59858V0.179755H3.31665C3.05821 0.179755 2.83892 0.25791 2.66271 0.418127C2.4865 0.578344 2.39252 0.781546 2.38078 1.02773V7.78421C2.38078 9.06985 2.72537 10.1054 3.41846 10.8948C4.10763 11.6841 5.03175 12.0788 6.19081 12.0788C7.34988 12.0788 8.28574 11.7037 9.00624 10.9573C9.72674 10.207 10.087 9.22616 10.087 8.01085V1.02383C10.0752 0.77764 9.98127 0.574436 9.80506 0.414219C9.62885 0.254002 9.40956 0.175847 9.14721 0.175847H8.86527V0H12.1428V0.175847H12.1349Z" fill="var(--fill-0, #6A6D71)"/>
</svg>
