<svg preserveAspectRatio="none" width="100%" height="100%" overflow="visible" style="display: block;" viewBox="0 0 3.88443 12.3914" fill="none" xmlns="http://www.w3.org/2000/svg">
<path id="Vector" d="M0.231028 12.2156C0.540373 12.2156 0.802731 12.1062 1.02201 11.8873C1.2413 11.6685 1.35485 11.4067 1.3666 11.098V1.27392C1.35485 0.965208 1.2413 0.707299 1.02201 0.496281C0.802731 0.285263 0.540373 0.175847 0.231028 0.175847H0V0H3.88443V0.175847H3.6534C3.34405 0.175847 3.0817 0.281356 2.86242 0.496281C2.64314 0.707299 2.52958 0.969116 2.51783 1.27392V11.098C2.51783 11.4067 2.63139 11.6685 2.85459 11.8873C3.07778 12.1062 3.34405 12.2156 3.6534 12.2156H3.88443V12.3914H0V12.2156H0.231028Z" fill="var(--fill-0, #B8A876)"/>
</svg>
