<svg preserveAspectRatio="none" width="100%" height="100%" overflow="visible" style="display: block;" viewBox="0 0 11.1325 12.3719" fill="none" xmlns="http://www.w3.org/2000/svg">
<path id="Vector" d="M3.64949 0.543175H2.51392V11.0823C2.51392 11.3871 2.62356 11.649 2.84284 11.8678C3.06213 12.0866 3.3284 12.196 3.64949 12.196H3.86094L3.88052 12.3719H0V12.196H0.231034C0.536463 12.196 0.802733 12.0905 1.0181 11.8795C1.23738 11.6685 1.35094 11.4067 1.36269 11.1019V1.28955C1.35094 0.980839 1.23738 0.719023 1.0181 0.504098C0.798817 0.285265 0.536463 0.175847 0.231034 0.175847H0V0H4.78506C5.86189 0 6.70378 0.296987 7.31855 0.890963C7.93333 1.48885 8.23876 2.25867 8.23876 3.20825C8.23876 4.15783 7.94507 4.97845 7.36163 5.66621C6.77818 6.35788 6.06551 6.70176 5.22754 6.70176C5.40375 6.78383 5.6152 6.94795 5.85798 7.18632C6.10075 7.4286 6.31612 7.67869 6.50407 7.9366C7.51826 9.38637 8.18002 10.2812 8.48937 10.6173C8.79871 10.9534 9.01408 11.1839 9.1433 11.3051C9.27252 11.4301 9.41348 11.5513 9.57011 11.6685C9.72283 11.7857 9.87555 11.8795 10.0322 11.9498C10.3768 12.114 10.7409 12.196 11.1325 12.196V12.3719H10.1575C9.64843 12.3719 9.17854 12.282 8.73998 12.0983C8.30141 11.9147 7.9764 11.7271 7.75712 11.5317C7.53783 11.3363 7.34988 11.1488 7.18933 10.9651C7.02879 10.7814 6.59022 10.1718 5.86972 9.13628C5.14922 8.10073 4.73024 7.50676 4.61276 7.35826C4.49529 7.20977 4.36999 7.06518 4.24077 6.9245C3.86094 6.52591 3.48503 6.32271 3.1052 6.32271V6.14687C3.19918 6.15859 3.32448 6.1664 3.4772 6.1664C3.62991 6.1664 3.81786 6.15859 4.04498 6.14687C5.50947 6.1117 6.42967 5.49818 6.8095 4.31023C6.87999 4.07576 6.91523 3.85302 6.91523 3.64591V3.24732C6.89174 2.45796 6.6842 1.821 6.29654 1.33644C5.90496 0.851885 5.38025 0.593976 4.71849 0.558806C4.43656 0.547083 4.08022 0.539266 3.6534 0.539266" fill="var(--fill-0, #6A6D71)"/>
</svg>
