<svg preserveAspectRatio="none" width="100%" height="100%" overflow="visible" style="display: block;" viewBox="0 0 12.9886 12.6259" fill="none" xmlns="http://www.w3.org/2000/svg">
<path id="Vector" d="M12.8476 12.45H12.9886V12.6259H9.00233V12.45H9.16287C9.40957 12.45 9.59752 12.3719 9.71891 12.2117C9.84422 12.0515 9.90687 11.903 9.90687 11.7623C9.90687 11.6216 9.88337 11.477 9.83638 11.3363L8.70082 8.33129H3.91576L2.72928 11.3559C2.68229 11.4966 2.6588 11.6372 2.6588 11.7701C2.6588 11.903 2.72145 12.0515 2.84284 12.2117C2.96815 12.3719 3.15218 12.45 3.40279 12.45H3.56334V12.6259H0V12.45H0.160546C0.454228 12.45 0.743994 12.3563 1.02984 12.1687C1.31178 11.9811 1.54281 11.7037 1.71902 11.3363L5.72484 1.821C6.1634 0.867515 6.37877 0.25791 6.37877 0H6.53932L11.2891 11.3363C11.4536 11.6998 11.6807 11.9772 11.9626 12.1687C12.2485 12.3563 12.5422 12.45 12.8476 12.45ZM4.13112 7.79983H8.48936L6.36311 2.1219L4.13112 7.79983Z" fill="var(--fill-0, #6A6D71)"/>
</svg>
