<svg preserveAspectRatio="none" width="100%" height="100%" overflow="visible" style="display: block;" viewBox="0 0 12.9925 12.6415" fill="none" xmlns="http://www.w3.org/2000/svg">
<path id="Vector" d="M12.8515 12.4618H12.9925V12.6376H9.00233V12.4618H9.16287C9.40957 12.4618 9.59752 12.3836 9.72283 12.2234C9.84813 12.0632 9.91078 11.9147 9.91078 11.774C9.91078 11.6333 9.88729 11.4926 9.8403 11.3481L8.70473 8.33911H3.91576L2.72928 11.3676C2.68229 11.5083 2.6588 11.649 2.6588 11.7857C2.6588 11.9225 2.72145 12.0671 2.84676 12.2273C2.97206 12.3875 3.1561 12.4657 3.40671 12.4657H3.56726V12.6415H0V12.4657H0.160546C0.454228 12.4657 0.743994 12.3719 1.02984 12.1804C1.3157 11.9928 1.54673 11.7154 1.72293 11.3481L5.73267 1.82491C6.17123 0.867519 6.39052 0.261818 6.39052 0H6.55106L11.3048 11.3481C11.4693 11.7154 11.6964 11.9928 11.9783 12.1804C12.2642 12.368 12.5578 12.4657 12.8672 12.4657M4.12329 7.80765H8.48545L6.35528 2.12581L4.11938 7.80765H4.12329Z" fill="var(--fill-0, #B8A876)"/>
</svg>
