<svg preserveAspectRatio="none" width="100%" height="100%" overflow="visible" style="display: block;" viewBox="0 0 11.0445 13.3954" fill="none" xmlns="http://www.w3.org/2000/svg">
<path id="Vector" d="M6.37648 8.34901C6.37648 10.0188 6.37648 11.393 6.46392 12.1254C6.51437 12.6294 6.62199 13.0124 7.14327 13.0829C7.38542 13.1165 7.76881 13.1535 7.92688 13.1535C8.03114 13.1535 8.06477 13.2039 8.06477 13.2576C8.06477 13.345 7.97733 13.3954 7.78563 13.3954C6.82714 13.3954 5.73076 13.345 5.64332 13.345C5.55588 13.345 4.4595 13.3954 3.93822 13.3954C3.74652 13.3954 3.65908 13.3618 3.65908 13.2576C3.65908 13.2039 3.69271 13.1535 3.79697 13.1535C3.95503 13.1535 4.16355 13.1199 4.31825 13.0829C4.66801 13.0124 4.75209 12.6294 4.82272 12.1254C4.91016 11.3963 4.91016 10.0222 4.91016 8.34901V0.991129L2.33401 1.02473C1.25444 1.04153 0.837418 1.16248 0.558278 1.58245C0.36658 1.87811 0.31277 1.99906 0.262324 2.12001C0.211877 2.25776 0.158067 2.29472 0.0874412 2.29472C0.0369943 2.29472 0 2.24432 0 2.13681C0 1.9621 0.349765 0.467006 0.383396 0.329255C0.417027 0.225103 0.487653 0 0.558278 0C0.679351 0 0.854233 0.174706 1.32507 0.208304C1.82954 0.2587 2.49207 0.295658 2.70059 0.295658H9.23177C9.79005 0.295658 10.1903 0.26206 10.4694 0.208304C10.7317 0.174706 10.8864 0.120949 10.9571 0.120949C11.0445 0.120949 11.0445 0.225103 11.0445 0.329255C11.0445 0.850019 10.9907 2.05282 10.9907 2.24432C10.9907 2.39887 10.9402 2.46943 10.8696 2.46943C10.7822 2.46943 10.7485 2.41903 10.7317 2.17376L10.7149 1.98226C10.6645 1.4615 10.2441 1.06168 8.5726 1.02473L6.37984 0.991129V8.34901H6.37648Z" fill="var(--fill-0, #BD9A5F)"/>
</svg>
