<svg preserveAspectRatio="none" width="100%" height="100%" overflow="visible" style="display: block;" viewBox="0 0 13.2709 13.392" fill="none" xmlns="http://www.w3.org/2000/svg">
<path id="Vector" d="M6.08052 0.678671C6.28904 0.104152 6.35967 0 6.46392 0C6.56818 0 6.6388 0.087354 6.84731 0.624916C7.10964 1.28679 9.84386 8.46996 10.9032 11.1141C11.5288 12.6629 12.0333 12.9418 12.3998 13.046C12.6622 13.1333 12.9211 13.1501 13.096 13.1501C13.2003 13.1501 13.2709 13.1669 13.2709 13.2543C13.2709 13.3584 13.1128 13.392 12.9211 13.392C12.6588 13.392 11.3875 13.392 10.1869 13.3584C9.85731 13.3416 9.66561 13.3416 9.66561 13.2375C9.66561 13.1669 9.71942 13.1333 9.78668 13.1165C9.89094 13.0829 9.9952 12.925 9.89095 12.6461L8.26992 8.36581C8.23629 8.29525 8.19929 8.26166 8.11185 8.26166H4.36869C4.28125 8.26166 4.22745 8.31541 4.19381 8.39941L3.14788 11.477C2.98981 11.9137 2.90573 12.3303 2.90573 12.6428C2.90573 12.9922 3.27231 13.1468 3.56827 13.1468H3.74315C3.86422 13.1468 3.91804 13.1804 3.91804 13.2509C3.91804 13.3551 3.81378 13.3887 3.65571 13.3887C3.23869 13.3887 2.48871 13.3383 2.29701 13.3383C2.10531 13.3383 1.14682 13.3887 0.329579 13.3887C0.10425 13.3887 0 13.3551 0 13.2509C0 13.1804 0.070626 13.1468 0.158067 13.1468C0.27914 13.1468 0.524648 13.13 0.662536 13.1132C1.46296 13.009 1.81272 12.3471 2.12549 11.477L6.07716 0.675313L6.08052 0.678671ZM7.89325 7.6401C7.98069 7.6401 7.98069 7.58971 7.96387 7.51915L6.30921 2.8222C6.22177 2.56014 6.13433 2.56014 6.04689 2.8222L4.51331 7.51915C4.47967 7.60651 4.5133 7.6401 4.56375 7.6401H7.88988H7.89325Z" fill="var(--fill-0, #BD9A5F)"/>
</svg>
