<svg preserveAspectRatio="none" width="100%" height="100%" overflow="visible" style="display: block;" viewBox="0 0 13.2675 13.3073" fill="none" xmlns="http://www.w3.org/2000/svg">
<path id="Vector" d="M1.51341 5.04562C1.51341 2.33093 1.51341 1.84376 1.47978 1.2894C1.44615 0.698083 1.3049 0.419221 0.729802 0.298269C0.591914 0.264672 0.295956 0.247875 0.137889 0.247875C0.0672637 0.247875 0 0.214276 0 0.143721C0 0.0395679 0.087447 0.0026111 0.279145 0.0026111C1.06275 0.0026111 2.15913 0.0530081 2.24657 0.0530081C2.45509 0.0530081 3.55146 0.0026111 4.59739 0.0026111C6.32268 0.0026111 9.50756 -0.155297 11.5792 1.98487C12.4503 2.88865 13.2675 4.33335 13.2675 6.40296C13.2675 8.59353 12.3628 10.2835 11.3875 11.3082C10.6376 12.091 9.07035 13.3073 6.1108 13.3073C5.36082 13.3073 4.43932 13.2535 3.68935 13.2031C2.92255 13.1527 2.33065 13.099 2.24321 13.099C2.20958 13.099 1.91362 13.099 1.54704 13.1158C1.19727 13.1158 0.797062 13.1494 0.538102 13.1494C0.346404 13.1494 0.258967 13.1158 0.258967 13.0116C0.258967 12.9579 0.2926 12.9075 0.396856 12.9075C0.554923 12.9075 0.763433 12.8739 0.918136 12.8369C1.2679 12.7664 1.35198 12.3833 1.4226 11.8794C1.51005 11.1469 1.51005 9.77281 1.51005 8.103V5.04226L1.51341 5.04562ZM2.97637 6.92372C2.97637 8.76823 2.99318 10.3675 3.01 10.6967C3.02682 11.1335 3.06045 11.829 3.2017 12.0205C3.42703 12.3497 4.10638 12.716 6.16124 12.716C7.78227 12.716 9.27886 12.1246 10.3046 11.0965C11.2093 10.2096 11.6969 8.53977 11.6969 6.93717C11.6969 4.7298 10.7385 3.3019 10.0255 2.55267C8.38764 0.832474 6.40339 0.587209 4.3317 0.587209C3.98194 0.587209 3.33958 0.640966 3.19833 0.708161C3.04027 0.778716 2.98982 0.86607 2.98982 1.05758C2.97301 1.6489 2.97301 3.42285 2.97301 4.7634V6.92037L2.97637 6.92372Z" fill="var(--fill-0, #BD9A5F)"/>
</svg>
