<svg preserveAspectRatio="none" width="100%" height="100%" overflow="visible" style="display: block;" viewBox="0 0 4.4595 13.1501" fill="none" xmlns="http://www.w3.org/2000/svg">
<path id="Vector" d="M2.77121 8.10375C2.77121 9.77355 2.77121 11.1477 2.85865 11.8801C2.9091 12.3841 3.01335 12.7671 3.538 12.8377C3.78015 12.8713 4.16355 12.9082 4.32162 12.9082C4.42587 12.9082 4.4595 12.9586 4.4595 13.0124C4.4595 13.0997 4.37206 13.1501 4.18036 13.1501C3.22187 13.1501 2.12549 13.0997 2.03805 13.0997C1.95061 13.0997 0.85423 13.1501 0.332946 13.1501C0.141248 13.1501 0.0538112 13.1165 0.0538112 13.0124C0.0538112 12.9586 0.0874437 12.9082 0.1917 12.9082C0.349767 12.9082 0.558277 12.8746 0.71298 12.8377C1.06275 12.7671 1.14682 12.3841 1.21745 11.8801C1.30489 11.1511 1.30489 9.77691 1.30489 8.10375V5.04301C1.30489 2.32832 1.30489 1.84115 1.27126 1.28679C1.23763 0.695472 1.06274 0.399812 0.679347 0.312458C0.487649 0.258702 0.262325 0.241903 0.137889 0.241903C0.0672637 0.241903 0 0.208307 0 0.137752C0 0.0335989 0.087447 0 0.279145 0C0.854239 0 1.95061 0.050397 2.03805 0.050397C2.12549 0.050397 3.22187 0 3.74316 0C3.93486 0 4.02229 0.0335989 4.02229 0.137752C4.02229 0.208307 3.95168 0.241903 3.88441 0.241903C3.76334 0.241903 3.65908 0.258701 3.45057 0.295658C2.97973 0.383012 2.84184 0.678673 2.80484 1.28679C2.77121 1.84451 2.77121 2.33168 2.77121 5.04301V8.10375Z" fill="var(--fill-0, #BD9A5F)"/>
</svg>
