<svg preserveAspectRatio="none" width="100%" height="100%" overflow="visible" style="display: block;" viewBox="0 0 12.9682 13.6406" fill="none" xmlns="http://www.w3.org/2000/svg">
<path id="Vector" d="M10.2542 8.96049C10.2542 7.55275 10.1667 7.36124 9.47055 7.16973C9.33266 7.13614 9.03335 7.11598 8.87864 7.11598C8.80802 7.11598 8.73739 7.08238 8.73739 7.01182C8.73739 6.90767 8.82483 6.87407 9.01653 6.87407C9.80014 6.87407 10.8965 6.92447 10.984 6.92447C11.0714 6.92447 12.1678 6.87407 12.6891 6.87407C12.8808 6.87407 12.9682 6.90767 12.9682 7.01182C12.9682 7.08238 12.8976 7.11598 12.8303 7.11598C12.7092 7.11598 12.605 7.13278 12.3965 7.16973C11.9256 7.25709 11.7877 7.55275 11.7507 8.16086C11.7171 8.71858 11.7171 9.23935 11.7171 9.96842V11.9171C11.7171 12.6999 11.7003 12.7335 11.4918 12.8578C10.3786 13.4491 8.81138 13.6406 7.79908 13.6406C6.47737 13.6406 4.00211 13.4659 2.07168 11.7793C1.00893 10.8588 0 8.99745 0 6.82032C0 4.03844 1.3587 2.06961 2.9091 1.09528C4.47631 0.120952 6.2016 0 7.54012 0C8.6365 0 9.87413 0.225103 10.2037 0.295658C10.5703 0.383012 11.179 0.453569 11.6129 0.470367C11.7877 0.487166 11.8214 0.557719 11.8214 0.628274C11.8214 0.873537 11.7003 1.35734 11.7003 3.0977C11.7003 3.37656 11.6667 3.46391 11.5422 3.46391C11.4548 3.46391 11.438 3.35976 11.4212 3.20185C11.4043 2.95659 11.3169 2.47279 11.0546 2.05282C10.6207 1.39094 9.20823 0.645074 6.96166 0.645074C5.86529 0.645074 4.56039 0.749226 3.23532 1.79411C2.22639 2.59374 1.51004 4.17618 1.51004 6.2122C1.51004 8.66483 2.74767 10.4388 3.3564 11.0301C4.73191 12.3706 6.31594 12.8914 7.92015 12.8914C8.54569 12.8914 9.45374 12.7873 9.9044 12.5252C10.1297 12.4042 10.2542 12.2127 10.2542 11.9171V8.96049Z" fill="var(--fill-0, #BD9A5F)"/>
</svg>
