<svg preserveAspectRatio="none" width="100%" height="100%" overflow="visible" style="display: block;" viewBox="0 0 13.1666 13.1568" fill="none" xmlns="http://www.w3.org/2000/svg">
<path id="Vector" d="M1.51341 5.04301C1.51341 2.32832 1.5134 1.84115 1.47977 1.28679C1.44614 0.695472 1.30489 0.41661 0.729798 0.295658C0.59191 0.262061 0.295955 0.241903 0.137888 0.241903C0.0672624 0.241903 0 0.208307 0 0.137752C0 0.0335989 0.0874405 0 0.279139 0C1.06275 0 2.15913 0.050397 2.24657 0.050397C2.43827 0.050397 3.75997 0 4.30143 0C5.39781 0 6.56482 0.104152 7.48968 0.766026C7.92352 1.07848 8.69031 1.93186 8.69031 3.1313C8.69031 4.41809 8.14885 5.70488 6.58163 7.14958C8.01096 8.97729 9.19478 10.5228 10.2037 11.6046C11.1454 12.5958 11.892 12.7873 12.3292 12.8578C12.6588 12.9116 12.9043 12.9116 13.0086 12.9116C13.096 12.9116 13.1666 12.962 13.1666 13.0157C13.1666 13.1199 13.0624 13.1535 12.7496 13.1535H11.5153C10.54 13.1535 10.1062 13.0661 9.65216 12.8242C8.90219 12.4244 8.29346 11.571 7.30134 10.2674C6.56818 9.30991 5.75094 8.14407 5.40454 7.69386C5.33391 7.6233 5.28347 7.58971 5.17921 7.58971L3.0369 7.55611C2.94946 7.55611 2.91583 7.60986 2.91583 7.69386V8.11047C2.91583 9.78027 2.91583 11.1544 3.00327 11.8868C3.05708 12.3908 3.16134 12.7738 3.68262 12.8444C3.92477 12.878 4.30816 12.9149 4.46623 12.9149C4.57049 12.9149 4.60412 12.9653 4.60412 13.0191C4.60412 13.1064 4.51668 13.1568 4.32498 13.1568C3.36649 13.1568 2.27011 13.1064 2.18267 13.1064C2.16585 13.1064 1.06947 13.1568 0.544826 13.1568C0.353128 13.1568 0.265686 13.1232 0.265686 13.0191C0.265686 12.9653 0.299318 12.9149 0.403575 12.9149C0.561642 12.9149 0.770157 12.8813 0.92486 12.8444C1.27462 12.7738 1.3587 12.3908 1.42933 11.8868C1.51677 11.1578 1.51677 9.78027 1.51677 8.11047V5.04972L1.51341 5.04301ZM2.90574 6.5549C2.90574 6.64225 2.93937 6.71281 3.02681 6.7632C3.28914 6.92111 4.08956 7.04206 4.85635 7.04206C5.27338 7.04206 5.76103 6.98831 6.16124 6.71281C6.76997 6.2962 7.22399 5.35546 7.22399 4.03508C7.22399 1.86131 6.0738 0.554361 4.21063 0.554361C3.68935 0.554361 3.21851 0.604757 3.04363 0.658513C2.95619 0.692111 2.90238 0.762667 2.90238 0.86682V6.5549H2.90574Z" fill="var(--fill-0, #BD9A5F)"/>
</svg>
