<svg preserveAspectRatio="none" width="100%" height="100%" overflow="visible" style="display: block;" viewBox="0 0 27.8954 17.1415" fill="none" xmlns="http://www.w3.org/2000/svg">
<path id="Vector" d="M27.1362 9.52157H22.4716C22.5052 9.20911 22.5287 8.88993 22.5287 8.57076C22.5287 7.27389 22.2328 6.05093 21.7182 4.94893C21.5669 4.62303 21.3954 4.31058 21.2037 4.0082C19.6835 1.60261 17.0065 0 13.9494 0C11.0807 0 8.54822 1.4111 6.9911 3.57143H4.65373C3.33202 3.57143 2.13139 4.08883 1.23343 4.92541C0.749142 5.38234 0.352291 5.92998 0.0798777 6.54482C0.0731515 6.55826 0.066426 6.5717 0.0596998 6.58849C-0.152177 7.07566 0.227857 7.61658 0.75923 7.61658H5.42388C5.39025 7.92904 5.36671 8.24822 5.36671 8.57076C5.36671 9.86762 5.66266 11.0906 6.17722 12.1926C6.32856 12.5185 6.50008 12.8309 6.69178 13.1333C8.21191 15.5389 10.889 17.1415 13.946 17.1415C16.8148 17.1415 19.3472 15.7304 20.9043 13.5701H23.2417C24.5668 13.5701 25.7641 13.0527 26.662 12.2161C27.1497 11.7592 27.5431 11.2115 27.8189 10.5933C27.8256 10.5799 27.8324 10.5665 27.8357 10.5497C28.0476 10.0625 27.6676 9.52157 27.1362 9.52157ZM18.3282 9.52157H9.2982C9.20739 9.52157 9.11995 9.50477 9.02915 9.49469C8.84418 9.47453 8.66929 9.43421 8.49777 9.3771C7.70744 9.1016 7.10208 8.44308 6.91711 7.61658H18.5905C18.6813 7.61658 18.7688 7.63338 18.8596 7.64346C19.0445 7.66362 19.2194 7.70058 19.3909 7.76105C20.1813 8.03655 20.7866 8.69507 20.9716 9.52157H18.3282ZM13.946 1.07176C16.6096 1.07176 18.9436 2.46271 20.2754 4.54912C20.4705 4.8515 20.642 5.17068 20.79 5.49993C21.1364 6.26596 21.355 7.10254 21.4223 7.97944C21.0086 7.415 20.4301 6.98159 19.7575 6.7464C19.4145 6.62545 19.0479 6.5549 18.6645 6.54818C18.641 6.54818 18.6174 6.54482 18.5939 6.54482H18.5199C17.743 4.79438 15.9875 3.56807 13.946 3.56807H8.35989C9.73541 2.03602 11.723 1.0684 13.946 1.0684M1.28388 6.54818C1.97332 5.40922 3.22104 4.64319 4.65037 4.64319H13.946C15.3754 4.64319 16.6231 5.40922 17.3125 6.54818H1.28724H1.28388ZM13.946 16.0697C11.2824 16.0697 8.94843 14.6788 7.61664 12.5924C7.42158 12.29 7.25006 11.9708 7.10208 11.6416C6.75568 10.8756 6.53707 10.039 6.46981 9.16207C6.88348 9.72651 7.46194 10.1599 8.13456 10.3951C8.4776 10.5161 8.84418 10.5866 9.22758 10.5933C9.25112 10.5933 9.27466 10.5967 9.2982 10.5967H9.37219C10.1491 12.3471 11.9046 13.5734 13.946 13.5734H19.5322C18.1567 15.1055 16.1691 16.0731 13.946 16.0731M23.2417 12.4983H13.946C12.5167 12.4983 11.269 11.7323 10.5795 10.5933H26.6048C25.9154 11.7323 24.6677 12.4983 23.2383 12.4983" fill="var(--fill-0, #4B3D2A)"/>
</svg>
