<svg preserveAspectRatio="none" width="100%" height="100%" overflow="visible" style="display: block;" viewBox="0 0 10.0658 13.3047" fill="none" xmlns="http://www.w3.org/2000/svg">
<path id="Vector" d="M6.66907 12.5218C8.49861 12.5218 9.05353 12.1926 9.42011 11.6685C9.57817 11.4434 9.73288 10.973 9.76987 10.7277C9.8035 10.553 9.84049 10.4489 9.92794 10.4489C10.0322 10.4489 10.0658 10.5194 10.0658 10.8487C10.0658 11.3896 9.82368 12.4143 9.71606 12.8511C9.61181 13.2677 9.59499 13.3047 9.19478 13.3047C6.28568 13.3047 3.35976 13.2173 0.312768 13.2173C0.104254 13.2173 0 13.2005 0 13.0796C0 12.9922 0.0336298 12.9049 0.245507 12.5924C2.83847 8.67827 5.46844 4.76415 7.88988 0.833222H4.10974C3.22187 0.833222 2.15912 0.883619 1.60084 1.18264C0.975304 1.51189 0.659171 2.15697 0.608724 2.55678C0.575093 2.81884 0.504465 2.86924 0.417024 2.86924C0.329583 2.86924 0.312768 2.78188 0.312768 2.64413C0.312768 2.43583 0.575091 0.853381 0.659169 0.329258C0.6928 0.0839952 0.729796 0 0.834053 0C0.988757 0 1.09638 0.104153 1.56385 0.120952C3.21851 0.191507 4.05256 0.171349 4.59403 0.171349H9.45374C9.71606 0.171349 9.8035 0.204945 9.8035 0.309098C9.8035 0.379653 9.8035 0.413251 9.73288 0.517404C7.20717 4.51888 4.57721 8.52036 1.93043 12.5218H6.66571H6.66907Z" fill="var(--fill-0, #BD9A5F)"/>
</svg>
