<svg width="192" height="192" viewBox="0 0 192 192" fill="none" xmlns="http://www.w3.org/2000/svg">
<g clip-path="url(#clip0_81_7294)">
<path d="M110.408 100.792L144 95.9831L104.178 91.2085L119.992 72.0085L93.8497 93.8497L100.792 81.5915L96.0169 48L91.2085 87.8222L72.0085 72.0085L93.8497 98.1503L81.5915 91.2085L48 95.9831L87.8561 100.792L72.0085 119.992L98.1503 98.1503L91.2085 110.375L96.0169 144L100.792 104.144L119.992 119.992L98.1503 93.8497L110.408 100.792Z" fill="#BD9B60"/>
<path d="M159.031 46.8419L157.885 45.5268L159.158 43.1877L156.221 39.8155L153.739 40.7672L152.578 39.434L163.048 35.6082L164.273 37.0138L159.031 46.8419ZM162.249 37.4924L157.578 39.291L159.853 41.9031L162.249 37.4924Z" fill="#BD9B60"/>
<path d="M166.744 50.2244L166.099 48.927C165.22 47.1622 165.45 45.6724 166.849 44.7716C168.456 43.7365 170.264 44.3423 171.563 46.3602C172.811 48.2973 172.584 50.251 170.957 51.5365L170.052 50.1307C171.022 49.2585 171.142 48.3062 170.371 47.109C169.648 45.9857 168.62 45.6009 167.786 46.1379C167.1 46.5797 167.051 47.2579 167.564 48.3646L168.159 49.599C169.15 51.5964 168.909 53.055 167.416 54.0164C165.956 54.9562 164.249 54.4475 163.011 52.7612L162.428 52.8895L162.493 52.9904C162.921 53.6563 162.725 54.4298 162.005 54.8932C161.279 55.361 160.485 55.1486 159.97 54.3482L159.251 53.2316L160.119 52.6729L160.747 53.6482C160.95 53.9644 161.2 54.0416 161.456 53.877C161.711 53.7124 161.742 53.4355 161.552 53.1396L161.322 52.7831L161.562 52.1811L162.49 51.9363C161.458 49.9936 161.78 48.1592 163.245 46.9776L164.164 48.4035C163.173 49.2887 163.13 50.3443 163.987 51.6761C164.684 52.759 165.688 53.1501 166.529 52.6087C167.235 52.154 167.301 51.3406 166.744 50.2244Z" fill="#BD9B60"/>
<path d="M176.166 54.1844L176.85 55.6925L172.974 57.4503L175.092 62.1205L178.968 60.3627L179.642 61.849L170.163 66.1476L169.489 64.6613L173.678 62.7615L171.56 58.0913L167.371 59.9911L166.687 58.483L176.166 54.1844Z" fill="#BD9B60"/>
<path d="M174.022 78.3614L173.55 76.6824L175.702 75.1139L174.493 70.8086L171.843 70.6057L171.365 68.9036L182.465 69.9317L182.969 71.7262L174.022 78.3614ZM180.936 71.292L175.944 70.9161L176.881 74.251L180.936 71.292Z" fill="#BD9B60"/>
<path d="M185.88 86.8887L186.077 88.5088L175.745 89.7642L175.535 88.0329L182.936 81.9599L174.915 82.9344L174.716 81.2905L185.048 80.0352L185.3 82.1079L178.217 87.8199L185.88 86.8887Z" fill="#BD9B60"/>
<path d="M171.743 118.901C172.439 118.999 173.244 118.931 174.158 118.696C175.083 118.464 176.016 118.011 176.958 117.337C177.897 116.673 178.597 115.933 179.058 115.117L179.699 115.321C179.627 116.25 179.74 117.198 180.036 118.165C180.34 119.146 180.797 120.031 181.408 120.818C182.037 121.623 182.718 122.226 183.452 122.627L183.248 123.268C182.711 123.197 182.129 123.214 181.503 123.317C180.887 123.423 180.267 123.612 179.644 123.884C179.027 124.169 178.439 124.519 177.882 124.935C177.057 125.557 176.421 126.255 175.972 127.03L175.332 126.827C175.398 126.232 175.354 125.58 175.199 124.87C175.041 124.171 174.804 123.491 174.488 122.831C174.182 122.174 173.822 121.6 173.407 121.11C172.797 120.389 172.174 119.866 171.539 119.541L171.743 118.901Z" fill="#BD9B60"/>
<path d="M152.392 152.838L153.566 151.548L156.036 152.541L159.046 149.233L157.813 146.879L159.003 145.571L164.015 155.528L162.761 156.907L152.392 152.838ZM162.051 154.952L159.724 150.521L157.393 153.083L162.051 154.952Z" fill="#BD9B60"/>
<path d="M149.936 160.891L151.149 160.098C152.799 159.018 154.305 159.073 155.363 160.357C156.58 161.832 156.189 163.698 154.338 165.225C152.56 166.69 150.593 166.694 149.126 165.229L150.416 164.165C151.396 165.027 152.355 165.034 153.454 164.128C154.485 163.278 154.747 162.212 154.116 161.447C153.597 160.817 152.918 160.849 151.879 161.487L150.722 162.223C148.855 163.441 147.378 163.372 146.248 162.002C145.144 160.662 145.45 158.907 146.979 157.48L146.784 156.916L146.691 156.992C146.08 157.496 145.289 157.391 144.744 156.731C144.195 156.064 144.313 155.252 145.048 154.646L146.072 153.801L146.729 154.598L145.834 155.336C145.543 155.575 145.496 155.832 145.689 156.066C145.883 156.301 146.161 156.299 146.433 156.075L146.76 155.806L147.386 155.974L147.738 156.866C149.546 155.614 151.406 155.719 152.751 157.036L151.442 158.115C150.447 157.235 149.394 157.315 148.171 158.323C147.177 159.142 146.907 160.184 147.543 160.956C148.077 161.604 148.892 161.575 149.936 160.891Z" fill="#BD9B60"/>
<path d="M147.103 170.713L145.685 171.568L143.487 167.923L139.096 170.572L141.294 174.216L139.896 175.059L134.521 166.147L135.918 165.304L138.294 169.243L142.685 166.594L140.31 162.655L141.728 161.8L147.103 170.713Z" fill="#BD9B60"/>
<path d="M122.836 171.393L124.449 170.73L126.256 172.687L130.393 170.988L130.288 168.333L131.924 167.662L132.184 178.806L130.46 179.514L122.836 171.393ZM130.657 177.444L130.454 172.442L127.249 173.758L130.657 177.444Z" fill="#BD9B60"/>
<path d="M115.738 184.157L114.152 184.54L111.71 174.422L113.405 174.013L120.294 180.663L118.398 172.808L120.008 172.42L122.45 182.537L120.42 183.027L113.927 176.652L115.738 184.157Z" fill="#BD9B60"/>
<path d="M77.3795 172.795C77.3177 173.496 77.4282 174.296 77.7109 175.197C77.9909 176.108 78.4922 177.016 79.2147 177.922C79.9269 178.825 80.7025 179.485 81.5415 179.903L81.3715 180.553C80.4404 180.53 79.4995 180.692 78.5489 181.039C77.5853 181.393 76.7261 181.896 75.9715 182.548C75.2011 183.218 74.6347 183.93 74.2722 184.684L73.622 184.514C73.664 183.974 73.6171 183.394 73.4815 182.774C73.3431 182.164 73.1219 181.555 72.818 180.947C72.501 180.346 72.1203 179.778 71.6758 179.242C71.0116 178.451 70.2806 177.852 69.4829 177.445L69.6529 176.795C70.2501 176.83 70.899 176.752 71.5996 176.56C72.2899 176.366 72.9564 176.093 73.5992 175.743C74.2393 175.403 74.7932 175.013 75.261 174.573C75.9484 173.926 76.4378 173.277 76.7294 172.625L77.3795 172.795Z" fill="#BD9B60"/>
<path d="M38.8076 151.711L40.0839 152.899L39.062 155.358L42.3347 158.406L44.7032 157.201L45.997 158.406L35.9826 163.302L34.6185 162.032L38.8076 151.711ZM36.5809 161.345L41.0395 159.069L38.5044 156.709L36.5809 161.345Z" fill="#BD9B60"/>
<path d="M30.7832 149.157L31.5609 150.379C32.6209 152.042 32.5484 153.548 31.2517 154.591C29.7617 155.789 27.9003 155.376 26.3963 153.506C24.9525 151.71 24.9725 149.744 26.4557 148.295L27.5034 149.597C26.63 150.567 26.6112 151.526 27.5036 152.636C28.3408 153.677 29.4035 153.952 30.1765 153.33C30.8124 152.819 30.7895 152.139 30.1634 151.093L29.4421 149.927C28.2467 148.045 28.3329 146.569 29.7169 145.456C31.0698 144.369 32.821 144.695 34.2292 146.242L34.796 146.053L34.7208 145.96C34.2245 145.343 34.3387 144.553 35.0057 144.016C35.679 143.475 36.4902 143.603 37.0868 144.345L37.919 145.38L37.1148 146.026L36.3879 145.122C36.1522 144.829 35.896 144.779 35.6591 144.969C35.4222 145.16 35.4204 145.438 35.641 145.713L35.9067 146.043L35.7308 146.667L34.8346 147.008C36.0649 148.831 35.9371 150.689 34.6036 152.018L33.5408 150.697C34.4329 149.712 34.3652 148.658 33.3726 147.424C32.5655 146.42 31.5265 146.137 30.7472 146.763C30.0926 147.29 30.1122 148.105 30.7832 149.157Z" fill="#BD9B60"/>
<path d="M20.9998 146.212L20.1608 144.784L23.83 142.628L21.2318 138.207L17.5625 140.363L16.7356 138.956L25.7088 133.683L26.5357 135.09L22.5698 137.421L25.1681 141.842L29.1339 139.511L29.9729 140.939L20.9998 146.212Z" fill="#BD9B60"/>
<path d="M20.5912 121.942L21.2361 123.562L19.2601 125.347L20.9136 129.502L23.5699 129.427L24.2236 131.069L13.0772 131.208L12.388 129.477L20.5912 121.942ZM14.4555 129.696L19.4591 129.547L18.1783 126.329L14.4555 129.696Z" fill="#BD9B60"/>
<path d="M7.90509 114.705L7.53958 113.114L17.6832 110.783L18.0738 112.483L11.3494 119.298L19.2241 117.488L19.595 119.102L9.4514 121.433L8.98375 119.398L15.429 112.975L7.90509 114.705Z" fill="#BD9B60"/>
<path d="M19.7116 76.4708C19.0119 76.4012 18.2101 76.5027 17.3062 76.7754C16.3921 77.0453 15.4783 77.5364 14.5648 78.2488C13.6542 78.9509 12.9853 79.7191 12.5583 80.5534L11.9101 80.3762C11.9433 79.4454 11.7918 78.5028 11.4555 77.5483C11.1117 76.5808 10.6182 75.7161 9.97499 74.9543C9.31398 74.1765 8.60844 73.6022 7.85834 73.2313L8.03549 72.5831C8.57526 72.6311 9.15579 72.5907 9.77705 72.4619C10.388 72.3303 10.9995 72.116 11.6115 71.8188C12.216 71.5085 12.7883 71.1341 13.3283 70.6956C14.1267 70.0403 14.7337 69.316 15.1495 68.5229L15.7978 68.7001C15.7563 69.2969 15.8275 69.9467 16.0114 70.6494C16.1982 71.3417 16.463 72.0113 16.806 72.6579C17.1388 73.3017 17.5225 73.86 17.9573 74.3326C18.5968 75.0271 19.2406 75.5238 19.8888 75.8225L19.7116 76.4708Z" fill="#BD9B60"/>
<path d="M41.2197 38.1313L40.0177 39.3949L37.5696 38.347L34.4874 41.5872L35.6673 43.9683L34.4488 45.2493L29.659 35.1835L30.9437 33.8329L41.2197 38.1313ZM31.6097 35.8024L33.8381 40.285L36.2255 37.7751L31.6097 35.8024Z" fill="#BD9B60"/>
<path d="M43.8697 30.1352L42.6379 30.8981C40.9625 31.9379 39.4578 31.8473 38.4307 30.5381C37.2506 29.0337 37.6857 27.1775 39.574 25.6962C41.3867 24.2741 43.353 24.3178 44.7842 25.8183L43.4687 26.8503C42.5101 25.9653 41.5508 25.9349 40.4304 26.8138C39.3793 27.6384 39.0918 28.6977 39.7041 29.4782C40.2077 30.1202 40.8875 30.1055 41.9417 29.4921L43.1154 28.7849C45.012 27.6122 46.4866 27.7163 47.5828 29.1136C48.6543 30.4795 48.3065 32.2266 46.7427 33.6161L46.9247 34.1851L47.0191 34.111C47.6422 33.6222 48.4307 33.7459 48.959 34.4194C49.4923 35.0992 49.3546 35.9088 48.6056 36.4964L47.5607 37.316L46.9238 36.504L47.8365 35.7881C48.1323 35.556 48.186 35.3004 47.9983 35.0612C47.8107 34.822 47.5321 34.8169 47.2552 35.0341L46.9216 35.2958L46.2998 35.1125L45.9698 34.2122C44.1316 35.4204 42.2751 35.2702 40.9623 33.9208L42.2967 32.874C43.2702 33.7779 44.3252 33.723 45.5715 32.7453C46.5849 31.9503 46.8809 30.9149 46.2637 30.1281C45.7452 29.4672 44.9293 29.4769 43.8697 30.1352Z" fill="#BD9B60"/>
<path d="M46.9269 20.3901L48.364 19.5673L50.4787 23.2607L54.9289 20.7127L52.8142 17.0193L54.2305 16.2084L59.402 25.2407L57.9857 26.0516L55.7001 22.0596L51.2499 24.6076L53.5355 28.5996L52.0984 29.4224L46.9269 20.3901Z" fill="#BD9B60"/>
<path d="M71.1995 20.2503L69.5723 20.8777L67.8085 18.8826L63.6359 20.4914L63.6829 23.1484L62.0332 23.7844L62.0138 12.6371L63.753 11.9665L71.1995 20.2503ZM63.5118 14.0316L63.6066 19.0365L66.8387 17.7904L63.5118 14.0316Z" fill="#BD9B60"/>
<path d="M78.6003 7.65374L80.1955 7.30884L82.395 17.4818L80.6904 17.8503L73.9628 11.0382L75.6704 18.9357L74.0518 19.2857L71.8523 9.11276L73.8931 8.6715L80.2318 15.1994L78.6003 7.65374Z" fill="#BD9B60"/>
<path d="M121.507 21.3551C121.629 20.6627 121.589 19.8555 121.386 18.9336C121.186 18.0016 120.765 17.0532 120.124 16.0884C119.493 15.1272 118.778 14.4021 117.978 13.913L118.204 13.2801C119.13 13.3838 120.081 13.3041 121.058 13.0411C122.049 12.7716 122.949 12.3451 123.757 11.7614C124.583 11.1612 125.209 10.5012 125.635 9.78136L126.268 10.0071C126.18 10.5417 126.176 11.1236 126.257 11.7529C126.342 12.372 126.509 12.998 126.759 13.6308C127.023 14.257 127.353 14.856 127.749 15.4277C128.342 16.2735 129.018 16.9337 129.778 17.4084L129.552 18.0413C128.96 17.9547 128.307 17.9765 127.592 18.1067C126.888 18.2404 126.2 18.4538 125.529 18.7468C124.862 19.0298 124.276 19.3701 123.772 19.7678C123.031 20.3529 122.487 20.9572 122.14 21.5809L121.507 21.3551Z" fill="#BD9B60"/>
</g>
<defs>
<clipPath id="clip0_81_7294">
<rect width="192" height="192" fill="white"/>
</clipPath>
</defs>
</svg>
