<svg width="192" height="192" viewBox="0 0 192 192" fill="none" xmlns="http://www.w3.org/2000/svg">
<path d="M110.408 100.792L144 95.9831L104.178 91.2085L119.992 72.0085L93.8497 93.8497L100.792 81.5915L96.0169 48L91.2085 87.8222L72.0085 72.0085L93.8497 98.1503L81.5915 91.2085L48 95.9831L87.8561 100.792L72.0085 119.992L98.1503 98.1503L91.2085 110.375L96.0169 144L100.792 104.144L119.992 119.992L98.1503 93.8497L110.408 100.792Z" fill="#BD9B60"/>
<path d="M105.77 16.7845L104.03 16.6645L103.276 14.1106L98.8146 13.803L97.7331 16.2304L95.9693 16.1088L100.668 6L102.527 6.1282L105.77 16.7845ZM101.435 7.89727L99.4035 12.4724L102.859 12.7106L101.435 7.89727Z" fill="#BD9B60"/>
<path d="M113.616 13.7219L112.243 13.2607C110.373 12.6346 109.482 11.4184 109.834 9.79213C110.239 7.92348 111.946 7.07355 114.291 7.5817C116.543 8.06952 117.765 9.61105 117.523 11.6706L115.889 11.3166C115.958 10.0138 115.369 9.25589 113.978 8.95439C112.672 8.67152 111.673 9.12633 111.463 10.0958C111.29 10.8933 111.736 11.4073 112.881 11.8272L114.174 12.2794C116.287 12.9909 117.149 14.1925 116.773 15.9282C116.405 17.6249 114.838 18.4723 112.77 18.1553L112.448 18.6586L112.566 18.684C113.34 18.8517 113.748 19.5376 113.566 20.3742C113.384 21.2186 112.672 21.6294 111.742 21.4278L110.444 21.1467L110.663 20.1381L111.796 20.3837C112.164 20.4633 112.395 20.3414 112.459 20.0443C112.524 19.7472 112.35 19.5295 112.006 19.4549L111.591 19.3652L111.336 18.7695L111.818 17.9409C109.715 17.2969 108.645 15.7719 108.846 13.9L110.504 14.2591C110.429 15.5854 111.145 16.3626 112.693 16.6979C113.952 16.9707 114.938 16.5376 115.15 15.5603C115.327 14.7393 114.799 14.1174 113.616 13.7219Z" fill="#BD9B60"/>
<path d="M123.078 9.85991L124.628 10.4427L123.131 14.4264L127.93 16.2312L129.428 12.2475L130.956 12.8218L127.293 22.564L125.765 21.9896L127.384 17.6839L122.584 15.8791L120.965 20.1848L119.415 19.602L123.078 9.85991Z" fill="#BD9B60"/>
<path d="M138.658 28.4716L137.137 27.6179L137.55 24.9871L133.65 22.7981L131.633 24.5282L130.092 23.6628L138.667 16.541L140.293 17.4535L138.658 28.4716ZM138.548 18.5841L134.752 21.848L137.773 23.5436L138.548 18.5841Z" fill="#BD9B60"/>
<path d="M153.073 26.1161L154.358 27.1225L147.94 35.316L146.567 34.2406L147.506 24.7126L142.524 31.0734L141.22 30.0522L147.638 21.8587L149.282 23.1463L148.312 32.1936L153.073 26.1161Z" fill="#BD9B60"/>
<path d="M165.712 58.7491C166.274 58.3264 166.795 57.7086 167.275 56.8958C167.765 56.0781 168.105 55.0979 168.294 53.9551C168.489 52.8218 168.461 51.8036 168.21 50.9006L168.807 50.5919C169.413 51.2992 170.163 51.8901 171.056 52.3646C171.965 52.8436 172.913 53.1455 173.903 53.2704C174.916 53.3949 175.824 53.3396 176.627 53.1044L176.936 53.7013C176.506 54.0316 176.106 54.4545 175.736 54.97C175.376 55.4806 175.071 56.0525 174.822 56.6856C174.588 57.3233 174.42 57.9863 174.32 58.6747C174.176 59.6976 174.22 60.6416 174.451 61.5067L173.855 61.8154C173.481 61.3482 172.988 60.9184 172.377 60.526C171.771 60.143 171.122 59.8298 170.432 59.5864C169.751 59.3381 169.091 59.1873 168.451 59.134C167.51 59.0561 166.7 59.1268 166.021 59.346L165.712 58.7491Z" fill="#BD9B60"/>
<path d="M176.026 96.429L175.944 94.687L178.393 93.6422L178.182 89.1752L175.646 88.382L175.563 86.616L186.147 90.1122L186.235 91.9741L176.026 96.429ZM184.352 91.0941L179.572 89.606L179.736 93.0662L184.352 91.0941Z" fill="#BD9B60"/>
<path d="M179.984 103.86L180.281 102.442C180.684 100.512 181.788 99.485 183.444 99.6446C185.347 99.8279 186.391 101.423 186.161 103.812C185.94 106.106 184.552 107.499 182.478 107.5L182.639 105.836C183.941 105.752 184.624 105.079 184.761 103.661C184.889 102.332 184.32 101.393 183.333 101.298C182.521 101.219 182.062 101.722 181.779 102.908L181.482 104.246C181.022 106.428 179.93 107.424 178.162 107.253C176.434 107.087 175.409 105.63 175.482 103.539L174.944 103.278L174.933 103.398C174.857 104.186 174.223 104.672 173.371 104.59C172.511 104.507 172.02 103.849 172.111 102.901L172.239 101.579L173.266 101.678L173.155 102.833C173.119 103.207 173.267 103.422 173.569 103.451C173.872 103.48 174.068 103.282 174.102 102.932L174.142 102.51L174.704 102.186L175.583 102.568C175.977 100.404 177.366 99.1636 179.249 99.144L179.086 100.832C177.76 100.913 177.072 101.715 176.92 103.292C176.797 104.574 177.342 105.503 178.338 105.598C179.174 105.679 179.73 105.081 179.984 103.86Z" fill="#BD9B60"/>
<path d="M184.926 112.808L184.528 114.416L180.396 113.393L179.164 118.371L183.295 119.394L182.903 120.978L172.8 118.477L173.192 116.892L177.658 117.998L178.89 113.02L174.425 111.915L174.823 110.307L184.926 112.808Z" fill="#BD9B60"/>
<path d="M168.247 130.449L168.92 128.839L171.581 128.945L173.305 124.819L171.353 123.015L172.035 121.384L180.099 129.08L179.381 130.8L168.247 130.449ZM178.056 129.198L174.376 125.804L173.04 129L178.056 129.198Z" fill="#BD9B60"/>
<path d="M172.254 144.493L171.403 145.886L162.522 140.458L163.432 138.97L173.005 138.801L166.11 134.588L166.974 133.175L175.854 138.602L174.766 140.384L165.667 140.467L172.254 144.493Z" fill="#BD9B60"/>
<path d="M137.096 163.583C137.548 164.122 138.192 164.61 139.029 165.047C139.871 165.493 140.868 165.781 142.019 165.91C143.161 166.045 144.176 165.964 145.065 165.666L145.405 166.246C144.73 166.888 144.179 167.668 143.752 168.585C143.322 169.517 143.07 170.48 142.997 171.475C142.926 172.493 143.029 173.397 143.306 174.187L142.726 174.526C142.373 174.114 141.93 173.737 141.396 173.395C140.867 173.062 140.28 172.788 139.635 172.572C138.986 172.371 138.315 172.239 137.622 172.175C136.593 172.085 135.653 172.179 134.801 172.455L134.461 171.875C134.908 171.477 135.312 170.963 135.671 170.332C136.022 169.706 136.301 169.043 136.508 168.34C136.72 167.648 136.836 166.98 136.856 166.338C136.884 165.395 136.771 164.589 136.516 163.922L137.096 163.583Z" fill="#BD9B60"/>
<path d="M94.913 175.949L96.6559 175.886L97.6722 178.348L102.141 178.189L102.964 175.662L104.731 175.599L101.112 186.142L99.249 186.209L94.913 175.949ZM100.151 184.335L101.694 179.573L98.2326 179.697L100.151 184.335Z" fill="#BD9B60"/>
<path d="M87.4331 179.817L88.8474 180.131C90.7726 180.557 91.7861 181.673 91.6065 183.328C91.4001 185.228 89.7922 186.253 87.4062 185.994C85.1157 185.745 83.7392 184.34 83.7632 182.267L85.4254 182.447C85.4932 183.75 86.1584 184.442 87.5741 184.596C88.9023 184.74 89.8479 184.183 89.955 183.197C90.0431 182.385 89.5463 181.921 88.3635 181.624L87.0295 181.31C84.8533 180.824 83.8707 179.72 84.0624 177.954C84.2498 176.228 85.7191 175.221 87.8087 175.319L88.0759 174.785L87.9566 174.772C87.1692 174.686 86.6915 174.047 86.7838 173.196C86.8771 172.337 87.5411 171.854 88.4876 171.957L89.8078 172.1L89.6964 173.126L88.5432 173.001C88.1694 172.96 87.9524 173.106 87.9196 173.408C87.8868 173.71 88.0825 173.908 88.4325 173.946L88.854 173.992L89.1708 174.558L88.7781 175.432C90.9375 175.852 92.161 177.256 92.1578 179.139L90.4717 178.956C90.4066 177.629 89.6132 176.931 88.0385 176.76C86.758 176.621 85.8229 177.155 85.715 178.15C85.6243 178.985 86.215 179.548 87.4331 179.817Z" fill="#BD9B60"/>
<path d="M78.4328 184.652L76.8299 184.236L77.8997 180.117L72.9363 178.828L71.8666 182.947L70.287 182.537L72.903 172.463L74.4826 172.873L73.3264 177.326L78.2898 178.614L79.446 174.162L81.0488 174.578L78.4328 184.652Z" fill="#BD9B60"/>
<path d="M60.982 167.779L62.5838 168.469L62.4488 171.129L66.5561 172.898L68.381 170.966L70.0048 171.665L62.2215 179.645L60.5095 178.908L60.982 167.779ZM62.1264 177.601L65.5594 173.958L62.3779 172.588L62.1264 177.601Z" fill="#BD9B60"/>
<path d="M46.8942 171.632L45.5111 170.766L51.0353 161.945L52.5134 162.871L52.5776 172.445L56.8662 165.597L58.2697 166.476L52.7455 175.297L50.9759 174.189L50.9918 165.09L46.8942 171.632Z" fill="#BD9B60"/>
<path d="M28.2074 136.249C27.6634 136.694 27.1682 137.333 26.7219 138.165C26.2663 139.002 25.9675 139.996 25.8253 141.145C25.6778 142.286 25.7481 143.302 26.036 144.194L25.4524 144.527C24.8177 143.845 24.044 143.286 23.1314 142.849C22.2041 142.407 21.2438 142.145 20.2502 142.061C19.2328 141.979 18.3278 142.071 17.5352 142.339L17.2021 141.756C17.6177 141.408 17.9996 140.969 18.3479 140.439C18.6868 139.914 18.9676 139.33 19.1902 138.687C19.3983 138.04 19.5382 137.371 19.6101 136.679C19.7111 135.651 19.6283 134.709 19.3615 133.854L19.9451 133.521C20.3378 133.973 20.8476 134.382 21.4746 134.749C22.0962 135.106 22.7569 135.392 23.4567 135.607C24.1472 135.827 24.8133 135.95 25.4549 135.977C26.3982 136.016 27.2047 135.912 27.8743 135.665L28.2074 136.249Z" fill="#BD9B60"/>
<path d="M16.3057 93.93L16.3493 95.6734L13.8773 96.6635L13.989 101.134L16.507 101.983L16.5512 103.751L6.0467 100.02L6.00012 98.1568L16.3057 93.93ZM7.86373 99.0785L12.609 100.672L12.5225 97.2095L7.86373 99.0785Z" fill="#BD9B60"/>
<path d="M12.5255 86.4021L12.194 87.8125C11.7445 89.7325 10.6165 90.7324 8.96447 90.5329C7.06627 90.3036 6.0613 88.6834 6.34909 86.3007C6.62536 84.0133 8.04663 82.654 10.1197 82.7029L9.91922 84.3628C8.61558 84.4149 7.91576 85.0717 7.74501 86.4854C7.58481 87.8118 8.13055 88.7641 9.1154 88.8831C9.92551 88.9809 10.3958 88.4898 10.7074 87.3106L11.0373 85.9806C11.5492 83.8103 12.6655 82.8412 14.4287 83.0541C16.1522 83.2623 17.1417 84.7436 17.0184 86.8319L17.5494 87.1056L17.5638 86.9864C17.6588 86.2002 18.3038 85.7301 19.1536 85.8328C20.0114 85.9364 20.4865 86.6062 20.3723 87.5513L20.2131 88.8697L19.1885 88.746L19.3276 87.5943C19.3727 87.2211 19.2299 87.0023 18.9281 86.9659C18.6263 86.9294 18.4257 87.1228 18.3834 87.4722L18.3326 87.8932L17.7633 88.2031L16.8934 87.7999C16.4479 89.954 15.029 91.1606 13.1465 91.1347L13.3499 89.4509C14.6773 89.4018 15.3845 88.6169 15.5745 87.0443C15.7289 85.7656 15.2061 84.8241 14.2133 84.7042C13.3793 84.6035 12.8092 85.1873 12.5255 86.4021Z" fill="#BD9B60"/>
<path d="M7.79648 77.3495L8.23084 75.7515L12.3378 76.8678L13.6829 71.9193L9.57588 70.803L10.0039 69.2281L20.0475 71.9581L19.6195 73.533L15.1805 72.3264L13.8355 77.2749L18.2744 78.4814L17.8401 80.0794L7.79648 77.3495Z" fill="#BD9B60"/>
<path d="M24.861 60.0873L24.1539 61.6815L21.496 61.518L19.6831 65.606L21.5951 67.4516L20.8783 69.0678L12.9823 61.1992L13.738 59.4952L24.861 60.0873ZM15.0276 61.126L18.6336 64.598L20.0379 61.4314L15.0276 61.126Z" fill="#BD9B60"/>
<path d="M21.187 45.947L22.071 44.5752L30.8197 50.2132L29.875 51.6792L20.301 51.6194L27.0928 55.9964L26.1957 57.3883L17.4471 51.7503L18.5781 49.9952L27.6762 50.129L21.187 45.947Z" fill="#BD9B60"/>
<path d="M61.215 25.2957C60.8119 24.7195 60.2125 24.1774 59.4167 23.6693C58.6164 23.1516 57.6485 22.7783 56.5129 22.5495C55.387 22.316 54.3685 22.3091 53.4573 22.5286L53.1694 21.9214C53.8972 21.3402 54.5136 20.6111 55.0186 19.7342C55.5287 18.8431 55.8632 17.9053 56.0221 16.921C56.1815 15.9128 56.1575 15.0034 55.9502 14.1927L56.5574 13.9048C56.8726 14.3455 57.2815 14.7596 57.7839 15.1471C58.2818 15.5248 58.8428 15.8491 59.467 16.1198C60.0962 16.3762 60.7531 16.5665 61.4376 16.6905C62.4549 16.8692 63.3998 16.8579 64.2724 16.6567L64.5603 17.2639C64.0805 17.6212 63.634 18.0986 63.2207 18.6959C62.8171 19.2887 62.4817 19.9258 62.2146 20.6073C61.943 21.2791 61.7694 21.934 61.6941 22.5718C61.5839 23.5094 61.6266 24.3214 61.8222 25.0078L61.215 25.2957Z" fill="#BD9B60"/>
</svg>
