<svg width="192" height="192" viewBox="0 0 192 192" fill="none" xmlns="http://www.w3.org/2000/svg">
<path d="M110.408 100.792L144 95.9831L104.178 91.2085L119.992 72.0085L93.8497 93.8497L100.792 81.5915L96.0169 48L91.2085 87.8222L72.0085 72.0085L93.8497 98.1503L81.5915 91.2085L48 95.9831L87.8561 100.792L72.0085 119.992L98.1503 98.1503L91.2085 110.375L96.0169 144L100.792 104.144L119.992 119.992L98.1503 93.8497L110.408 100.792Z" fill="#BD9B60"/>
<path d="M105.77 16.7845L104.03 16.6645L103.276 14.1106L98.8145 13.803L97.7329 16.2304L95.9691 16.1088L100.668 6L102.527 6.1282L105.77 16.7845ZM101.435 7.89727L99.4034 12.4724L102.859 12.7106L101.435 7.89727Z" fill="#BD9B60"/>
<path d="M113.616 13.7219L112.242 13.2607C110.373 12.6346 109.482 11.4184 109.834 9.79213C110.239 7.92348 111.946 7.07355 114.291 7.5817C116.543 8.06952 117.764 9.61105 117.523 11.6706L115.889 11.3166C115.958 10.0138 115.369 9.25589 113.978 8.95439C112.672 8.67152 111.673 9.12633 111.463 10.0958C111.29 10.8933 111.735 11.4073 112.88 11.8272L114.174 12.2794C116.287 12.9909 117.148 14.1925 116.772 15.9282C116.405 17.6249 114.838 18.4723 112.77 18.1553L112.448 18.6586L112.566 18.684C113.34 18.8517 113.748 19.5376 113.566 20.3742C113.383 21.2186 112.672 21.6294 111.742 21.4278L110.444 21.1467L110.663 20.1381L111.796 20.3837C112.164 20.4633 112.395 20.3414 112.459 20.0443C112.523 19.7472 112.35 19.5295 112.006 19.4549L111.591 19.3652L111.336 18.7695L111.818 17.9409C109.715 17.2969 108.645 15.7719 108.846 13.9L110.504 14.2591C110.429 15.5854 111.145 16.3626 112.693 16.6979C113.952 16.9707 114.938 16.5376 115.149 15.5603C115.327 14.7393 114.799 14.1174 113.616 13.7219Z" fill="#BD9B60"/>
<path d="M123.078 9.85991L124.628 10.4427L123.13 14.4264L127.93 16.2312L129.428 12.2475L130.956 12.8218L127.293 22.564L125.765 21.9896L127.384 17.6839L122.584 15.8791L120.965 20.1848L119.415 19.602L123.078 9.85991Z" fill="#BD9B60"/>
<path d="M138.658 28.4716L137.137 27.6179L137.55 24.9871L133.65 22.7981L131.633 24.5282L130.091 23.6628L138.667 16.541L140.293 17.4535L138.658 28.4716ZM138.548 18.5841L134.752 21.848L137.773 23.5436L138.548 18.5841Z" fill="#BD9B60"/>
<path d="M153.073 26.1161L154.358 27.1225L147.94 35.316L146.567 34.2406L147.506 24.7126L142.523 31.0734L141.22 30.0522L147.638 21.8587L149.282 23.1463L148.312 32.1936L153.073 26.1161Z" fill="#BD9B60"/>
<path d="M165.712 58.7491C166.274 58.3264 166.795 57.7086 167.275 56.8958C167.765 56.0781 168.105 55.0979 168.294 53.9551C168.489 52.8218 168.461 51.8036 168.21 50.9006L168.807 50.5919C169.413 51.2992 170.163 51.8901 171.056 52.3646C171.965 52.8436 172.913 53.1455 173.903 53.2704C174.916 53.3949 175.824 53.3396 176.627 53.1044L176.935 53.7013C176.506 54.0316 176.106 54.4545 175.736 54.97C175.376 55.4806 175.071 56.0525 174.822 56.6856C174.587 57.3233 174.42 57.9863 174.32 58.6747C174.176 59.6976 174.22 60.6416 174.451 61.5067L173.854 61.8154C173.481 61.3482 172.988 60.9184 172.377 60.526C171.771 60.143 171.122 59.8298 170.432 59.5864C169.751 59.3381 169.091 59.1873 168.451 59.134C167.51 59.0561 166.7 59.1268 166.021 59.346L165.712 58.7491Z" fill="#BD9B60"/>
<path d="M176.026 96.429L175.944 94.687L178.393 93.6422L178.182 89.1752L175.646 88.382L175.562 86.616L186.147 90.1122L186.235 91.9741L176.026 96.429ZM184.352 91.0941L179.572 89.606L179.736 93.0662L184.352 91.0941Z" fill="#BD9B60"/>
<path d="M179.984 103.86L180.281 102.442C180.684 100.512 181.787 99.485 183.444 99.6446C185.347 99.8279 186.391 101.423 186.161 103.812C185.94 106.106 184.552 107.499 182.478 107.5L182.638 105.836C183.94 105.752 184.624 105.079 184.761 103.661C184.889 102.332 184.32 101.393 183.333 101.298C182.521 101.219 182.062 101.722 181.779 102.908L181.482 104.246C181.022 106.428 179.93 107.424 178.162 107.253C176.434 107.087 175.409 105.63 175.482 103.539L174.944 103.278L174.933 103.398C174.857 104.186 174.223 104.672 173.371 104.59C172.511 104.507 172.02 103.849 172.111 102.901L172.239 101.579L173.266 101.678L173.155 102.833C173.119 103.207 173.267 103.422 173.569 103.451C173.872 103.48 174.068 103.282 174.102 102.932L174.142 102.51L174.704 102.186L175.583 102.568C175.977 100.404 177.366 99.1636 179.248 99.144L179.086 100.832C177.76 100.913 177.072 101.715 176.92 103.292C176.797 104.574 177.342 105.503 178.337 105.598C179.174 105.679 179.729 105.081 179.984 103.86Z" fill="#BD9B60"/>
<path d="M184.925 112.808L184.528 114.416L180.396 113.393L179.164 118.371L183.295 119.394L182.903 120.978L172.8 118.477L173.192 116.892L177.657 117.998L178.89 113.02L174.425 111.915L174.822 110.307L184.925 112.808Z" fill="#BD9B60"/>
<path d="M168.247 130.449L168.92 128.839L171.581 128.945L173.305 124.819L171.353 123.015L172.035 121.384L180.099 129.08L179.381 130.8L168.247 130.449ZM178.056 129.198L174.376 125.804L173.04 129L178.056 129.198Z" fill="#BD9B60"/>
<path d="M172.254 144.493L171.403 145.886L162.522 140.458L163.432 138.97L173.004 138.801L166.11 134.588L166.974 133.175L175.854 138.602L174.765 140.384L165.667 140.467L172.254 144.493Z" fill="#BD9B60"/>
<path d="M137.096 163.583C137.548 164.122 138.192 164.61 139.029 165.047C139.871 165.493 140.868 165.781 142.019 165.91C143.161 166.045 144.176 165.964 145.065 165.666L145.405 166.246C144.73 166.888 144.179 167.668 143.752 168.585C143.322 169.517 143.07 170.48 142.997 171.475C142.926 172.493 143.029 173.397 143.306 174.187L142.726 174.526C142.373 174.114 141.93 173.737 141.396 173.395C140.867 173.062 140.28 172.788 139.635 172.572C138.986 172.371 138.315 172.239 137.622 172.175C136.593 172.085 135.653 172.179 134.801 172.455L134.461 171.875C134.908 171.477 135.312 170.963 135.671 170.332C136.022 169.706 136.301 169.043 136.508 168.34C136.72 167.648 136.836 166.98 136.856 166.338C136.884 165.395 136.771 164.589 136.516 163.922L137.096 163.583Z" fill="#BD9B60"/>
<path d="M94.9129 175.949L96.6558 175.886L97.6721 178.348L102.141 178.189L102.964 175.662L104.731 175.599L101.112 186.142L99.2489 186.209L94.9129 175.949ZM100.151 184.335L101.694 179.573L98.2324 179.697L100.151 184.335Z" fill="#BD9B60"/>
<path d="M87.4329 179.817L88.8473 180.131C90.7725 180.557 91.786 181.673 91.6064 183.328C91.4 185.228 89.7921 186.253 87.4061 185.994C85.1155 185.745 83.7391 184.34 83.7631 182.267L85.4253 182.447C85.4931 183.75 86.1583 184.442 87.574 184.596C88.9022 184.74 89.8478 184.183 89.9549 183.197C90.043 182.385 89.5462 181.921 88.3633 181.624L87.0294 181.31C84.8531 180.824 83.8706 179.72 84.0623 177.954C84.2496 176.228 85.719 175.221 87.8086 175.319L88.0758 174.785L87.9565 174.772C87.1691 174.686 86.6913 174.047 86.7837 173.196C86.877 172.337 87.541 171.854 88.4874 171.957L89.8077 172.1L89.6963 173.126L88.5431 173.001C88.1693 172.96 87.9523 173.106 87.9195 173.408C87.8867 173.71 88.0824 173.908 88.4324 173.946L88.8539 173.992L89.1707 174.558L88.778 175.432C90.9373 175.852 92.1609 177.256 92.1577 179.139L90.4716 178.956C90.4064 177.629 89.6131 176.931 88.0384 176.76C86.7579 176.621 85.8228 177.155 85.7148 178.15C85.6242 178.985 86.2149 179.548 87.4329 179.817Z" fill="#BD9B60"/>
<path d="M78.4327 184.652L76.8298 184.236L77.8996 180.117L72.9362 178.828L71.8665 182.947L70.2868 182.537L72.9029 172.463L74.4825 172.873L73.3263 177.326L78.2897 178.614L79.4459 174.162L81.0487 174.578L78.4327 184.652Z" fill="#BD9B60"/>
<path d="M60.9819 167.779L62.5837 168.469L62.4487 171.129L66.556 172.898L68.3809 170.966L70.0047 171.665L62.2214 179.645L60.5094 178.908L60.9819 167.779ZM62.1263 177.601L65.5593 173.958L62.3778 172.588L62.1263 177.601Z" fill="#BD9B60"/>
<path d="M46.8941 171.632L45.511 170.766L51.0352 161.945L52.5133 162.871L52.5775 172.445L56.8661 165.597L58.2696 166.476L52.7454 175.297L50.9757 174.189L50.9917 165.09L46.8941 171.632Z" fill="#BD9B60"/>
<path d="M28.2073 136.249C27.6633 136.694 27.1681 137.333 26.7218 138.165C26.2662 139.002 25.9674 139.996 25.8252 141.145C25.6777 142.286 25.748 143.302 26.0359 144.194L25.4523 144.527C24.8176 143.845 24.0439 143.286 23.1312 142.849C22.204 142.407 21.2436 142.145 20.2501 142.061C19.2327 141.979 18.3277 142.071 17.5351 142.339L17.202 141.756C17.6176 141.408 17.9995 140.969 18.3477 140.439C18.6867 139.914 18.9675 139.33 19.1901 138.687C19.3982 138.04 19.5381 137.371 19.6099 136.679C19.711 135.651 19.6282 134.709 19.3614 133.854L19.945 133.521C20.3377 133.973 20.8475 134.382 21.4745 134.749C22.0961 135.106 22.7568 135.392 23.4566 135.607C24.1471 135.827 24.8132 135.95 25.4548 135.977C26.3981 136.016 27.2046 135.912 27.8742 135.665L28.2073 136.249Z" fill="#BD9B60"/>
<path d="M16.3056 93.93L16.3492 95.6734L13.8771 96.6635L13.9889 101.134L16.5069 101.983L16.5511 103.751L6.04657 100.02L6 98.1568L16.3056 93.93ZM7.86361 99.0785L12.6089 100.672L12.5224 97.2095L7.86361 99.0785Z" fill="#BD9B60"/>
<path d="M12.5254 86.4021L12.1939 87.8125C11.7444 89.7325 10.6163 90.7324 8.96435 90.5329C7.06615 90.3036 6.06118 88.6834 6.34897 86.3007C6.62524 84.0133 8.0465 82.654 10.1196 82.7029L9.9191 84.3628C8.61545 84.4149 7.91564 85.0717 7.74489 86.4854C7.58469 87.8118 8.13043 88.7641 9.11527 88.8831C9.92539 88.9809 10.3957 88.4898 10.7073 87.3106L11.0372 85.9806C11.5491 83.8103 12.6654 82.8412 14.4286 83.0541C16.152 83.2623 17.1416 84.7436 17.0183 86.8319L17.5493 87.1056L17.5637 86.9864C17.6586 86.2002 18.3036 85.7301 19.1535 85.8328C20.0112 85.9364 20.4863 86.6062 20.3722 87.5513L20.2129 88.8697L19.1884 88.746L19.3275 87.5943C19.3726 87.2211 19.2298 87.0023 18.928 86.9659C18.6262 86.9294 18.4255 87.1228 18.3833 87.4722L18.3325 87.8932L17.7632 88.2031L16.8933 87.7999C16.4478 89.954 15.0288 91.1606 13.1464 91.1347L13.3497 89.4509C14.6772 89.4018 15.3844 88.6169 15.5744 87.0443C15.7288 85.7656 15.2059 84.8241 14.2132 84.7042C13.3792 84.6035 12.8091 85.1873 12.5254 86.4021Z" fill="#BD9B60"/>
<path d="M7.79636 77.3495L8.23072 75.7515L12.3377 76.8678L13.6828 71.9193L9.57576 70.803L10.0038 69.2281L20.0474 71.9581L19.6194 73.533L15.1804 72.3264L13.8354 77.2749L18.2743 78.4814L17.84 80.0794L7.79636 77.3495Z" fill="#BD9B60"/>
<path d="M24.8608 60.0873L24.1538 61.6815L21.4959 61.518L19.683 65.606L21.595 67.4516L20.8782 69.0678L12.9822 61.1992L13.7378 59.4952L24.8608 60.0873ZM15.0274 61.126L18.6335 64.598L20.0378 61.4314L15.0274 61.126Z" fill="#BD9B60"/>
<path d="M21.1869 45.947L22.0709 44.5752L30.8196 50.2132L29.8748 51.6792L20.3008 51.6194L27.0926 55.9964L26.1956 57.3883L17.4469 51.7503L18.578 49.9952L27.6761 50.129L21.1869 45.947Z" fill="#BD9B60"/>
<path d="M61.2149 25.2957C60.8118 24.7195 60.2124 24.1774 59.4166 23.6693C58.6163 23.1516 57.6484 22.7783 56.5128 22.5495C55.3869 22.316 54.3683 22.3091 53.4572 22.5286L53.1693 21.9214C53.8971 21.3402 54.5135 20.6111 55.0185 19.7342C55.5285 18.8431 55.863 17.9053 56.022 16.921C56.1814 15.9128 56.1574 15.0034 55.9501 14.1927L56.5573 13.9048C56.8725 14.3455 57.2814 14.7596 57.7838 15.1471C58.2817 15.5248 58.8427 15.8491 59.4669 16.1198C60.0961 16.3762 60.753 16.5665 61.4374 16.6905C62.4548 16.8692 63.3997 16.8579 64.2723 16.6567L64.5602 17.2639C64.0804 17.6212 63.6339 18.0986 63.2206 18.6959C62.817 19.2887 62.4816 19.9258 62.2145 20.6073C61.9428 21.2791 61.7693 21.934 61.694 22.5718C61.5838 23.5094 61.6264 24.3214 61.8221 25.0078L61.2149 25.2957Z" fill="#BD9B60"/>
</svg>
