<svg width="192" height="192" viewBox="0 0 192 192" fill="none" xmlns="http://www.w3.org/2000/svg">
<path d="M110.408 100.792L144 95.9831L104.178 91.2085L119.992 72.0085L93.8497 93.8497L100.792 81.5915L96.0169 48L91.2085 87.8222L72.0085 72.0085L93.8497 98.1503L81.5915 91.2085L48 95.9831L87.8561 100.792L72.0085 119.992L98.1503 98.1503L91.2085 110.375L96.0169 144L100.792 104.144L119.992 119.992L98.1503 93.8497L110.408 100.792Z" fill="#BD9B60"/>
<path d="M175.438 105.757L175.558 104.017L178.112 103.263L178.419 98.8013L175.992 97.7198L176.113 95.9559L186.222 100.654L186.094 102.514L175.438 105.757ZM184.325 101.422L179.75 99.3902L179.512 102.846L184.325 101.422Z" fill="#BD9B60"/>
<path d="M178.5 113.603L178.962 112.229C179.588 110.359 180.804 109.469 182.43 109.821C184.299 110.226 185.149 111.933 184.64 114.278C184.153 116.53 182.611 117.751 180.552 117.51L180.906 115.876C182.208 115.945 182.966 115.356 183.268 113.964C183.551 112.659 183.096 111.66 182.126 111.45C181.329 111.277 180.815 111.722 180.395 112.867L179.943 114.161C179.231 116.274 178.03 117.135 176.294 116.759C174.597 116.392 173.75 114.825 174.067 112.757L173.564 112.435L173.538 112.552C173.37 113.326 172.685 113.734 171.848 113.553C171.004 113.37 170.593 112.659 170.794 111.729L171.076 110.431L172.084 110.649L171.839 111.783C171.759 112.151 171.881 112.382 172.178 112.446C172.475 112.51 172.693 112.336 172.767 111.992L172.857 111.578L173.453 111.322L174.281 111.805C174.925 109.701 176.45 108.632 178.322 108.833L177.963 110.49C176.637 110.416 175.86 111.132 175.524 112.68C175.252 113.939 175.685 114.925 176.662 115.136C177.483 115.314 178.105 114.786 178.5 113.603Z" fill="#BD9B60"/>
<path d="M182.362 123.065L181.779 124.615L177.796 123.117L175.991 127.917L179.975 129.415L179.4 130.943L169.658 127.28L170.233 125.752L174.538 127.371L176.343 122.571L172.037 120.952L172.62 119.402L182.362 123.065Z" fill="#BD9B60"/>
<path d="M163.751 138.645L164.604 137.124L167.235 137.537L169.424 133.637L167.694 131.62L168.559 130.078L175.681 138.654L174.769 140.279L163.751 138.645ZM173.638 138.535L170.374 134.739L168.679 137.76L173.638 138.535Z" fill="#BD9B60"/>
<path d="M166.106 153.06L165.1 154.345L156.906 147.926L157.982 146.553L167.51 147.493L161.149 142.51L162.17 141.207L170.363 147.625L169.076 149.268L160.029 148.299L166.106 153.06Z" fill="#BD9B60"/>
<path d="M133.473 165.699C133.896 166.261 134.514 166.782 135.326 167.262C136.144 167.752 137.124 168.092 138.267 168.281C139.4 168.476 140.419 168.447 141.322 168.197L141.63 168.793C140.923 169.399 140.332 170.149 139.858 171.043C139.379 171.951 139.077 172.9 138.952 173.889C138.827 174.902 138.883 175.81 139.118 176.614L138.521 176.922C138.191 176.493 137.768 176.093 137.252 175.723C136.742 175.363 136.17 175.058 135.537 174.809C134.899 174.574 134.236 174.407 133.547 174.306C132.525 174.163 131.581 174.207 130.715 174.438L130.407 173.841C130.874 173.467 131.304 172.975 131.696 172.364C132.079 171.757 132.392 171.109 132.636 170.419C132.884 169.738 133.035 169.078 133.088 168.438C133.166 167.497 133.095 166.687 132.876 166.007L133.473 165.699Z" fill="#BD9B60"/>
<path d="M95.7931 176.013L97.5352 175.931L98.58 178.38L103.047 178.169L103.84 175.633L105.606 175.549L102.11 186.134L100.248 186.222L95.7931 176.013ZM101.128 184.338L102.616 179.559L99.156 179.722L101.128 184.338Z" fill="#BD9B60"/>
<path d="M88.3619 179.97L89.7799 180.268C91.7102 180.671 92.7371 181.774 92.5776 183.431C92.3942 185.334 90.7988 186.378 88.4099 186.148C86.1165 185.927 84.7232 184.539 84.722 182.465L86.3863 182.625C86.4698 183.927 87.1434 184.611 88.5608 184.748C89.8906 184.876 90.8295 184.307 90.9246 183.32C91.0028 182.507 90.5005 182.049 89.3141 181.766L87.9765 181.468C85.7945 181.009 84.7987 179.917 84.9689 178.149C85.1354 176.421 86.5924 175.396 88.683 175.469L88.9438 174.931L88.8243 174.92C88.036 174.844 87.5505 174.21 87.6325 173.358C87.7154 172.498 88.3735 172.007 89.3211 172.098L90.643 172.226L90.5441 173.253L89.3894 173.142C89.0151 173.105 88.7999 173.254 88.7708 173.556C88.7417 173.859 88.9398 174.055 89.2902 174.088L89.7122 174.129L90.0359 174.691L89.6538 175.57C91.818 175.963 93.0585 177.353 93.0781 179.235L91.3899 179.073C91.3087 177.747 90.507 177.059 88.9303 176.907C87.6482 176.783 86.7196 177.329 86.6237 178.324C86.5432 179.16 87.1407 179.716 88.3619 179.97Z" fill="#BD9B60"/>
<path d="M79.4137 184.912L77.8062 184.514L78.829 180.383L73.8513 179.151L72.8285 183.282L71.2443 182.89L73.7456 172.787L75.3297 173.179L74.2243 177.644L79.202 178.877L80.3075 174.411L81.9149 174.809L79.4137 184.912Z" fill="#BD9B60"/>
<path d="M61.7736 168.234L63.3827 168.907L63.2767 171.567L67.4029 173.292L69.2068 171.34L70.8381 172.022L63.142 180.086L61.4221 179.367L61.7736 168.234ZM63.0246 178.043L66.4179 174.363L63.2217 173.027L63.0246 178.043Z" fill="#BD9B60"/>
<path d="M47.729 172.241L46.3364 171.39L51.7642 162.509L53.2522 163.418L53.4209 172.991L57.6346 166.097L59.0475 166.96L53.6198 175.841L51.8382 174.752L51.7549 165.654L47.729 172.241Z" fill="#BD9B60"/>
<path d="M28.6393 137.083C28.1003 137.535 27.6122 138.179 27.1752 139.016C26.729 139.858 26.4412 140.855 26.3118 142.006C26.1771 143.148 26.2586 144.163 26.5565 145.052L25.9766 145.391C25.3343 144.717 24.5545 144.166 23.637 143.739C22.705 143.308 21.7417 143.057 20.7473 142.984C19.729 142.913 18.8251 143.015 18.0355 143.292L17.6959 142.712C18.1077 142.36 18.4847 141.917 18.827 141.383C19.1601 140.854 19.4344 140.267 19.6498 139.621C19.8507 138.972 19.9832 138.301 20.0473 137.609C20.1369 136.58 20.0436 135.639 19.7673 134.788L20.3472 134.448C20.7449 134.895 21.2592 135.298 21.8902 135.658C22.5158 136.009 23.1796 136.288 23.8817 136.494C24.5747 136.707 25.2421 136.823 25.884 136.842C26.8277 136.871 27.6329 136.758 28.2997 136.503L28.6393 137.083Z" fill="#BD9B60"/>
<path d="M16.2736 94.8997L16.3357 96.6426L13.8743 97.6589L14.0335 102.128L16.5604 102.951L16.6233 104.717L6.07981 101.099L6.01345 99.2357L16.2736 94.8997ZM7.88675 100.138L12.6487 101.681L12.5254 98.2192L7.88675 100.138Z" fill="#BD9B60"/>
<path d="M12.4055 87.4197L12.091 88.8341C11.6647 90.7593 10.5488 91.7728 8.89454 91.5932C6.99371 91.3868 5.96928 89.7789 6.22831 87.3929C6.47699 85.1023 7.88174 83.7259 9.95527 83.7499L9.77481 85.4121C8.47187 85.4799 7.78004 86.1451 7.62635 87.5608C7.48216 88.889 8.03935 89.8346 9.02555 89.9417C9.83679 90.0298 10.3011 89.533 10.5985 88.3502L10.9123 87.0162C11.398 84.8399 12.5025 83.8574 14.2682 84.0491C15.994 84.2365 17.0013 85.7058 16.9032 87.7954L17.4375 88.0626L17.4505 87.9433C17.5359 87.1559 18.1752 86.6781 19.0262 86.7705C19.8852 86.8638 20.3683 87.5278 20.2656 88.4742L20.1223 89.7945L19.0963 89.6831L19.2215 88.5299C19.2621 88.1561 19.1166 87.9391 18.8144 87.9063C18.5122 87.8735 18.3139 88.0692 18.2759 88.4192L18.2302 88.8407L17.6647 89.1575L16.7899 88.7648C16.3704 90.9242 14.9662 92.1477 13.0835 92.1445L13.2666 90.4584C14.5933 90.3932 15.291 89.5999 15.462 88.0252C15.601 86.7447 15.0668 85.8096 14.0727 85.7016C13.2376 85.611 12.6745 86.2017 12.4055 87.4197Z" fill="#BD9B60"/>
<path d="M7.56993 78.4195L7.98617 76.8166L12.1055 77.8864L13.3945 72.923L9.27508 71.8533L9.68528 70.2737L19.7592 72.8897L19.349 74.4693L14.8966 73.3131L13.6077 78.2765L18.06 79.4327L17.6438 81.0355L7.56993 78.4195Z" fill="#BD9B60"/>
<path d="M24.4429 60.9687L23.753 62.5705L21.0935 62.4355L19.3246 66.5428L21.2563 68.3677L20.557 69.9915L12.5769 62.2082L13.3142 60.4962L24.4429 60.9687ZM14.6212 62.1131L18.2644 65.5461L19.6346 62.3646L14.6212 62.1131Z" fill="#BD9B60"/>
<path d="M20.5898 46.8809L21.456 45.4978L30.2769 51.022L29.3513 52.5001L19.7773 52.5643L26.6252 56.8529L25.7463 58.2564L16.9253 52.7322L18.0336 50.9625L27.1326 50.9785L20.5898 46.8809Z" fill="#BD9B60"/>
<path d="M55.9736 28.1941C55.528 27.6501 54.8892 27.1549 54.0573 26.7086C53.22 26.253 52.2266 25.9542 51.0769 25.812C49.9366 25.6645 48.9204 25.7348 48.0286 26.0227L47.6955 25.4391C48.3772 24.8044 48.9366 24.0307 49.3737 23.118C49.8147 22.1908 50.0772 21.2304 50.1611 20.2369C50.2436 19.2195 50.1508 18.3145 49.8827 17.5219L50.4663 17.1888C50.814 17.6044 51.2531 17.9863 51.7834 18.3346C52.3085 18.6735 52.8925 18.9543 53.5354 19.1769C54.1822 19.385 54.8516 19.5249 55.5435 19.5967C56.5715 19.6978 57.5128 19.615 58.3677 19.3482L58.7008 19.9318C58.2494 20.3245 57.8403 20.8343 57.4735 21.4613C57.116 22.0829 56.8298 22.7436 56.6151 23.4434C56.3951 24.1339 56.2717 24.8 56.2449 25.4416C56.2061 26.3849 56.3102 27.1914 56.5572 27.861L55.9736 28.1941Z" fill="#BD9B60"/>
<path d="M98.2922 16.2924L96.5487 16.336L95.5587 13.864L91.0881 13.9757L90.2387 16.4937L88.4713 16.5379L92.2019 6.03339L94.0654 5.98681L98.2922 16.2924ZM93.1436 7.85042L91.5497 12.5957L95.0126 12.5092L93.1436 7.85042Z" fill="#BD9B60"/>
<path d="M105.82 12.5122L104.41 12.1807C102.49 11.7312 101.49 10.6032 101.689 8.95117C101.919 7.05296 103.539 6.04799 105.921 6.33578C108.209 6.61206 109.568 8.03332 109.519 10.1064L107.859 9.90591C107.807 8.60227 107.15 7.90246 105.737 7.7317C104.41 7.5715 103.458 8.11724 103.339 9.10209C103.241 9.9122 103.732 10.3825 104.912 10.6941L106.242 11.024C108.412 11.5359 109.381 12.6522 109.168 14.4154C108.96 16.1389 107.479 17.1284 105.39 17.0051L105.117 17.5361L105.236 17.5505C106.022 17.6454 106.492 18.2905 106.389 19.1403C106.286 19.9981 105.616 20.4732 104.671 20.359L103.352 20.1998L103.476 19.1752L104.628 19.3143C105.001 19.3594 105.22 19.2166 105.256 18.9148C105.293 18.613 105.099 18.4123 104.75 18.3701L104.329 18.3193L104.019 17.75L104.422 16.8801C102.268 16.4346 101.062 15.0157 101.087 13.1332L102.771 13.3365C102.82 14.664 103.605 15.3712 105.178 15.5612C106.457 15.7156 107.398 15.1927 107.518 14.2C107.619 13.366 107.035 12.7959 105.82 12.5122Z" fill="#BD9B60"/>
<path d="M114.873 7.78317L116.471 8.21753L115.354 12.3245L120.303 13.6696L121.419 9.56258L122.994 9.99064L120.264 20.0342L118.689 19.6062L119.896 15.1672L114.947 13.8222L113.741 18.2611L112.143 17.8268L114.873 7.78317Z" fill="#BD9B60"/>
<path d="M132.135 24.8476L130.541 24.1406L130.704 21.4827L126.616 19.6698L124.771 21.5818L123.154 20.865L131.023 12.969L132.727 13.7247L132.135 24.8476ZM131.096 15.0142L127.624 18.6203L130.791 20.0246L131.096 15.0142Z" fill="#BD9B60"/>
<path d="M146.275 21.1737L147.647 22.0577L142.009 30.8064L140.543 29.8616L140.603 20.2877L136.226 27.0795L134.834 26.1824L140.472 17.4337L142.227 18.5648L142.093 27.6629L146.275 21.1737Z" fill="#BD9B60"/>
<path d="M166.926 61.2017C167.503 60.7986 168.045 60.1992 168.553 59.4034C169.071 58.6031 169.444 57.6352 169.673 56.4996C169.906 55.3737 169.913 54.3552 169.694 53.444L170.301 53.1561C170.882 53.8839 171.611 54.5003 172.488 55.0053C173.379 55.5154 174.317 55.8499 175.301 56.0088C176.309 56.1682 177.219 56.1442 178.029 55.9369L178.317 56.5441C177.877 56.8593 177.463 57.2682 177.075 57.7706C176.697 58.2685 176.373 58.8295 176.102 59.4537C175.846 60.0829 175.656 60.7398 175.532 61.4243C175.353 62.4416 175.364 63.3865 175.566 64.2591L174.958 64.547C174.601 64.0672 174.124 63.6207 173.526 63.2074C172.933 62.8038 172.296 62.4684 171.615 62.2013C170.943 61.9296 170.288 61.7561 169.65 61.6808C168.713 61.5706 167.901 61.6133 167.214 61.8089L166.926 61.2017Z" fill="#BD9B60"/>
</svg>
