<svg width="192" height="192" viewBox="0 0 192 192" fill="none" xmlns="http://www.w3.org/2000/svg">
<g clip-path="url(#clip0_81_7270)">
<path d="M110.408 100.792L144 95.9831L104.178 91.2085L119.992 72.0085L93.8497 93.8497L100.792 81.5915L96.0169 48L91.2085 87.8222L72.0085 72.0085L93.8497 98.1503L81.5915 91.2085L48 95.9831L87.8561 100.792L72.0085 119.992L98.1503 98.1503L91.2085 110.375L96.0169 144L100.792 104.144L119.992 119.992L98.1503 93.8497L110.408 100.792Z" fill="#BD9B60"/>
<path d="M46.8552 33.1916L45.5401 34.337L43.2009 33.0644L39.8287 36.0016L40.7804 38.4828L39.4472 39.644L35.6215 29.1737L37.0271 27.9495L46.8552 33.1916ZM37.5056 29.9727L39.3043 34.6443L41.9163 32.3691L37.5056 29.9727Z" fill="#BD9B60"/>
<path d="M50.2376 25.478L48.9403 26.123C47.1754 27.0025 45.6856 26.7724 44.7848 25.3733C43.7497 23.7657 44.3555 21.9579 46.3734 20.6587C48.3106 19.4114 50.2642 19.6378 51.5497 21.2649L50.1439 22.1701C49.2718 21.1998 48.3195 21.0803 47.1222 21.8512C45.9989 22.5744 45.6141 23.6024 46.1512 24.4364C46.5929 25.1225 47.2712 25.1711 48.3778 24.6584L49.6122 24.0634C51.6097 23.0722 53.0682 23.3129 54.0297 24.8062C54.9695 26.2658 54.4607 27.973 52.7744 29.211L52.9027 29.7945L53.0036 29.7295C53.6695 29.3007 54.443 29.4973 54.9065 30.217C55.3742 30.9434 55.1618 31.7367 54.3614 32.2521L53.2448 32.971L52.6861 32.1033L53.6615 31.4753C53.9776 31.2718 54.0548 31.0222 53.8902 30.7666C53.7256 30.511 53.4488 30.48 53.1528 30.6706L52.7963 30.9001L52.1943 30.6597L51.9495 29.7327C50.0069 30.7646 48.1724 30.4425 46.9908 28.9768L48.4168 28.0586C49.3019 29.0491 50.3575 29.0926 51.6893 28.2351C52.7723 27.5378 53.1633 26.5344 52.6219 25.6936C52.1672 24.9873 51.3538 24.9211 50.2376 25.478Z" fill="#BD9B60"/>
<path d="M54.1976 16.0564L55.7058 15.3724L57.4635 19.2485L62.1337 17.1306L60.376 13.2545L61.8623 12.5805L66.1609 22.0593L64.6746 22.7334L62.7747 18.544L58.1045 20.6619L60.0044 24.8513L58.4962 25.5352L54.1976 16.0564Z" fill="#BD9B60"/>
<path d="M78.3746 18.2002L76.6956 18.6719L75.1271 16.52L70.8218 17.7295L70.6189 20.3792L68.9168 20.8574L69.9449 9.75756L71.7394 9.25339L78.3746 18.2002ZM71.3052 11.2866L70.9293 16.2784L74.2642 15.3414L71.3052 11.2866Z" fill="#BD9B60"/>
<path d="M86.902 6.34174L88.5221 6.1449L89.7774 16.4769L88.0461 16.6873L81.9731 9.28571L82.9476 17.3067L81.3037 17.5065L80.0484 7.17444L82.1211 6.9226L87.8331 14.0054L86.902 6.34174Z" fill="#BD9B60"/>
<path d="M118.914 20.4796C119.013 19.7834 118.944 18.978 118.709 18.0637C118.477 17.1392 118.024 16.2058 117.35 15.2637C116.686 14.3248 115.946 13.6248 115.131 13.1637L115.334 12.5233C116.263 12.595 117.211 12.4826 118.179 12.186C119.16 11.8825 120.044 11.4252 120.832 10.814C121.636 10.1857 122.239 9.50444 122.641 8.77032L123.281 8.97412C123.211 9.51144 123.227 10.0931 123.33 10.7192C123.436 11.3351 123.625 11.9549 123.897 12.5786C124.182 13.1955 124.532 13.7827 124.948 14.3404C125.57 15.1652 126.268 15.8017 127.044 16.2499L126.84 16.8902C126.245 16.8241 125.593 16.8684 124.883 17.0232C124.184 17.1811 123.504 17.4181 122.844 17.7341C122.187 18.0399 121.613 18.4002 121.123 18.8151C120.403 19.4254 119.88 20.0482 119.554 20.6834L118.914 20.4796Z" fill="#BD9B60"/>
<path d="M152.851 39.8301L151.561 38.6565L152.554 36.1857L149.246 33.1763L146.892 34.4089L145.584 33.2191L155.541 28.2067L156.92 29.4611L152.851 39.8301ZM154.966 30.1707L150.534 32.4982L153.096 34.8293L154.966 30.1707Z" fill="#BD9B60"/>
<path d="M160.904 42.2864L160.112 41.0734C159.032 39.4236 159.086 37.9172 160.37 36.8588C161.845 35.6426 163.712 36.0327 165.238 37.8846C166.704 39.6625 166.707 41.6292 165.242 43.0963L164.178 41.8061C165.04 40.8264 165.047 39.8667 164.141 38.7678C163.292 37.7369 162.226 37.4751 161.46 38.1061C160.831 38.6251 160.862 39.3044 161.5 40.3434L162.236 41.4997C163.454 43.3674 163.386 44.8441 162.015 45.9737C160.676 47.0779 158.921 46.7725 157.494 45.2427L156.929 45.4384L157.006 45.531C157.509 46.1421 157.405 46.9333 156.744 47.4778C156.077 48.0273 155.265 47.9093 154.659 47.1747L153.815 46.1499L154.611 45.4935L155.349 46.3886C155.588 46.6788 155.845 46.7262 156.079 46.5329C156.314 46.3395 156.312 46.0609 156.088 45.7893L155.819 45.4621L155.987 44.8361L156.879 44.4845C155.627 42.676 155.732 40.8164 157.049 39.4714L158.128 40.7801C157.248 41.7751 157.328 42.8285 158.336 44.0508C159.155 45.0447 160.197 45.3156 160.969 44.6795C161.617 44.1452 161.588 43.3297 160.904 42.2864Z" fill="#BD9B60"/>
<path d="M170.726 45.1193L171.581 46.5374L167.937 48.7354L170.585 53.1266L174.229 50.9286L175.072 52.3261L166.16 57.7013L165.317 56.3038L169.256 53.9281L166.608 49.537L162.669 51.9126L161.813 50.4946L170.726 45.1193Z" fill="#BD9B60"/>
<path d="M171.406 69.386L170.744 67.7727L172.7 65.9662L171.002 61.8294L168.346 61.9337L167.675 60.2982L178.819 60.0379L179.527 61.7622L171.406 69.386ZM177.457 61.5656L172.455 61.7686L173.771 64.973L177.457 61.5656Z" fill="#BD9B60"/>
<path d="M184.17 76.484L184.553 78.0704L174.436 80.512L174.026 78.8167L180.676 71.9285L172.822 73.824L172.433 72.2142L182.551 69.7726L183.04 71.8023L176.666 78.295L184.17 76.484Z" fill="#BD9B60"/>
<path d="M172.808 114.843C173.509 114.904 174.31 114.794 175.21 114.511C176.121 114.231 177.03 113.73 177.935 113.007C178.838 112.295 179.498 111.52 179.916 110.681L180.566 110.851C180.543 111.782 180.705 112.723 181.052 113.673C181.407 114.637 181.91 115.496 182.561 116.251C183.231 117.021 183.943 117.588 184.697 117.95L184.527 118.6C183.987 118.558 183.407 118.605 182.787 118.741C182.178 118.879 181.568 119.1 180.96 119.404C180.359 119.721 179.791 120.102 179.256 120.546C178.465 121.211 177.866 121.942 177.459 122.739L176.809 122.569C176.843 121.972 176.765 121.323 176.573 120.623C176.379 119.932 176.106 119.266 175.756 118.623C175.416 117.983 175.027 117.429 174.586 116.961C173.939 116.274 173.29 115.784 172.638 115.493L172.808 114.843Z" fill="#BD9B60"/>
<path d="M151.724 153.415L152.913 152.138L155.372 153.16L158.419 149.887L157.214 147.519L158.419 146.225L163.315 156.24L162.045 157.604L151.724 153.415ZM161.358 155.641L159.082 151.183L156.722 153.718L161.358 155.641Z" fill="#BD9B60"/>
<path d="M149.17 161.439L150.393 160.661C152.055 159.601 153.561 159.674 154.604 160.97C155.802 162.46 155.389 164.322 153.519 165.826C151.724 167.27 149.757 167.25 148.308 165.766L149.611 164.719C150.58 165.592 151.54 165.611 152.649 164.719C153.69 163.881 153.965 162.819 153.343 162.046C152.832 161.41 152.152 161.433 151.106 162.059L149.941 162.78C148.058 163.976 146.583 163.889 145.47 162.505C144.382 161.152 144.708 159.401 146.255 157.993L146.067 157.426L145.973 157.501C145.356 157.998 144.566 157.883 144.03 157.216C143.488 156.543 143.616 155.732 144.358 155.135L145.393 154.303L146.039 155.107L145.136 155.834C144.842 156.07 144.792 156.326 144.982 156.563C145.173 156.8 145.452 156.802 145.726 156.581L146.056 156.316L146.68 156.491L147.021 157.388C148.845 156.157 150.703 156.285 152.032 157.619L150.71 158.681C149.726 157.789 148.671 157.857 147.437 158.85C146.433 159.657 146.15 160.696 146.776 161.475C147.303 162.13 148.119 162.11 149.17 161.439Z" fill="#BD9B60"/>
<path d="M146.225 171.222L144.798 172.061L142.641 168.392L138.22 170.99L140.377 174.66L138.97 175.487L133.696 166.513L135.103 165.687L137.434 169.652L141.855 167.054L139.524 163.088L140.952 162.249L146.225 171.222Z" fill="#BD9B60"/>
<path d="M121.955 171.631L123.575 170.986L125.36 172.962L129.515 171.309L129.44 168.652L131.083 167.999L131.222 179.145L129.49 179.834L121.955 171.631ZM129.709 177.767L129.56 172.763L126.342 174.044L129.709 177.767Z" fill="#BD9B60"/>
<path d="M114.718 184.317L113.127 184.683L110.796 174.539L112.496 174.148L119.311 180.873L117.501 172.998L119.115 172.627L121.446 182.771L119.411 183.238L112.989 176.793L114.718 184.317Z" fill="#BD9B60"/>
<path d="M76.484 172.511C76.4144 173.21 76.516 174.012 76.7886 174.916C77.0585 175.83 77.5497 176.744 78.2621 177.657C78.9642 178.568 79.7323 179.237 80.5666 179.664L80.3894 180.312C79.4586 180.279 78.516 180.43 77.5616 180.767C76.594 181.11 75.7294 181.604 74.9675 182.247C74.1897 182.908 73.6154 183.614 73.2445 184.364L72.5963 184.187C72.6443 183.647 72.6039 183.066 72.4751 182.445C72.3436 181.834 72.1292 181.223 71.832 180.611C71.5217 180.006 71.1474 179.434 70.7089 178.894C70.0535 178.096 69.3292 177.488 68.5361 177.073L68.7133 176.424C69.3101 176.466 69.9599 176.395 70.6626 176.211C71.355 176.024 72.0245 175.759 72.6711 175.416C73.3149 175.083 73.8732 174.7 74.3459 174.265C75.0404 173.625 75.537 172.982 75.8358 172.333L76.484 172.511Z" fill="#BD9B60"/>
<path d="M38.1445 151.002L39.4081 152.204L38.3602 154.653L41.6004 157.735L43.9815 156.555L45.2625 157.773L35.1967 162.563L33.8461 161.278L38.1445 151.002ZM35.8157 160.612L40.2982 158.384L37.7883 155.997L35.8157 160.612Z" fill="#BD9B60"/>
<path d="M30.1484 148.352L30.9113 149.584C31.9511 151.26 31.8606 152.764 30.5513 153.791C29.047 154.972 27.1907 154.537 25.7094 152.648C24.2873 150.835 24.3311 148.869 25.8316 147.438L26.8636 148.753C25.9785 149.712 25.9482 150.671 26.8271 151.792C27.6517 152.843 28.7109 153.13 29.4914 152.518C30.1335 152.014 30.1187 151.335 29.5053 150.28L28.7981 149.107C27.6255 147.21 27.7295 145.736 29.1268 144.639C30.4927 143.568 32.2399 143.916 33.6293 145.479L34.1983 145.298L34.1242 145.203C33.6354 144.58 33.7591 143.791 34.4326 143.263C35.1124 142.73 35.922 142.868 36.5096 143.617L37.3293 144.661L36.5173 145.298L35.8013 144.386C35.5692 144.09 35.3136 144.036 35.0744 144.224C34.8352 144.411 34.8301 144.69 35.0473 144.967L35.309 145.301L35.1257 145.922L34.2254 146.252C35.4336 148.091 35.2834 149.947 33.934 151.26L32.8872 149.925C33.7911 148.952 33.7362 147.897 32.7585 146.651C31.9636 145.637 30.9281 145.341 30.1413 145.958C29.4804 146.477 29.4901 147.293 30.1484 148.352Z" fill="#BD9B60"/>
<path d="M20.4034 145.295L19.5805 143.858L23.274 141.743L20.726 137.293L17.0325 139.408L16.2216 137.992L25.2539 132.82L26.0648 134.236L22.0728 136.522L24.6208 140.972L28.6128 138.687L29.4356 140.124L20.4034 145.295Z" fill="#BD9B60"/>
<path d="M20.2635 121.023L20.8909 122.65L18.8959 124.414L20.5046 128.586L23.1616 128.539L23.7976 130.189L12.6503 130.208L11.9798 128.469L20.2635 121.023ZM14.0448 128.71L19.0498 128.616L17.8036 125.383L14.0448 128.71Z" fill="#BD9B60"/>
<path d="M7.66696 113.622L7.32207 112.027L17.495 109.827L17.8636 111.532L11.0514 118.259L18.949 116.552L19.2989 118.17L9.12599 120.37L8.68473 118.329L15.2126 111.99L7.66696 113.622Z" fill="#BD9B60"/>
<path d="M21.3684 70.7151C20.6759 70.5927 19.8687 70.6332 18.9468 70.8366C18.0148 71.0365 17.0664 71.4569 16.1016 72.0981C15.1404 72.7292 14.4153 73.4445 13.9263 74.244L13.2933 74.0182C13.397 73.0926 13.3173 72.1412 13.0543 71.164C12.7848 70.1732 12.3583 69.2736 11.7746 68.4652C11.1744 67.6396 10.5144 67.0135 9.79459 66.5868L10.0204 65.9539C10.5549 66.0427 11.1368 66.0464 11.7661 65.965C12.3853 65.8801 13.0112 65.7127 13.644 65.4627C14.2703 65.1992 14.8693 64.8692 15.441 64.4729C16.2867 63.8799 16.9469 63.2037 17.4216 62.4444L18.0545 62.6702C17.9679 63.2622 17.9897 63.9155 18.1199 64.6301C18.2536 65.3346 18.467 66.0223 18.76 66.693C19.043 67.3602 19.3833 67.9459 19.781 68.4502C20.3661 69.1911 20.9705 69.7351 21.5941 70.0822L21.3684 70.7151Z" fill="#BD9B60"/>
</g>
<defs>
<clipPath id="clip0_81_7270">
<rect width="192" height="192" fill="white"/>
</clipPath>
</defs>
</svg>
