<svg width="192" height="192" viewBox="0 0 192 192" fill="none" xmlns="http://www.w3.org/2000/svg">
<path d="M110.408 100.792L144 95.9831L104.178 91.2085L119.992 72.0085L93.8497 93.8497L100.792 81.5915L96.0169 48L91.2085 87.8222L72.0085 72.0085L93.8497 98.1503L81.5915 91.2085L48 95.9831L87.8561 100.792L72.0085 119.992L98.1503 98.1503L91.2085 110.375L96.0169 144L100.792 104.144L119.992 119.992L98.1503 93.8497L110.408 100.792Z" fill="#BD9B60"/>
<path d="M16.7978 86.4522L16.6778 88.192L14.1239 88.9462L13.8163 93.4076L16.2437 94.4891L16.1221 96.2529L6.0133 91.5545L6.1415 89.695L16.7978 86.4522ZM7.91057 90.7872L12.4857 92.8187L12.7239 89.3629L7.91057 90.7872Z" fill="#BD9B60"/>
<path d="M13.7352 78.6061L13.274 79.9796C12.6479 81.8494 11.4317 82.7401 9.80543 82.3878C7.93678 81.983 7.08685 80.2763 7.595 77.9307C8.08282 75.679 9.62435 74.4577 11.6839 74.6992L11.3299 76.3333C10.0271 76.2639 9.26919 76.8528 8.96769 78.2445C8.68482 79.5502 9.13963 80.5491 10.1091 80.7592C10.9066 80.9319 11.4206 80.4866 11.8405 79.3416L12.2927 78.048C13.0042 75.9348 14.2058 75.0736 15.9415 75.4497C17.6382 75.8172 18.4856 77.3842 18.1686 79.4519L18.6719 79.7738L18.6973 79.6565C18.865 78.8825 19.5509 78.4744 20.3875 78.6557C21.2319 78.8386 21.6427 79.5497 21.4411 80.4801L21.16 81.778L20.1514 81.5595L20.397 80.4258C20.4766 80.0583 20.3547 79.8273 20.0576 79.7629C19.7605 79.6986 19.5428 79.8724 19.4682 80.2164L19.3785 80.6308L18.7828 80.8865L17.9542 80.4041C17.3102 82.5075 15.7852 83.5768 13.9133 83.3759L14.2724 81.7184C15.5987 81.7929 16.3759 81.0772 16.7113 79.5291C16.984 78.2703 16.5509 77.2843 15.5736 77.0725C14.7526 76.8947 14.1307 77.423 13.7352 78.6061Z" fill="#BD9B60"/>
<path d="M9.87321 69.1439L10.456 67.5938L14.4397 69.0917L16.2445 64.2917L12.2608 62.7939L12.8351 61.2663L22.5773 64.9293L22.0029 66.4569L17.6972 64.8379L15.8924 69.6379L20.1981 71.2568L19.6153 72.8068L9.87321 69.1439Z" fill="#BD9B60"/>
<path d="M28.4849 53.564L27.6312 55.0848L25.0004 54.6723L22.8114 58.5719L24.5415 60.5889L23.6761 62.1306L16.5543 53.5549L17.4667 51.9295L28.4849 53.564ZM18.5974 53.6742L21.8613 57.4697L23.5569 54.4491L18.5974 53.6742Z" fill="#BD9B60"/>
<path d="M26.1294 39.1491L27.1358 37.8643L35.3293 44.2825L34.2539 45.6554L24.7259 44.716L31.0867 49.6987L30.0655 51.0023L21.872 44.5841L23.1596 42.9404L32.2068 43.9097L26.1294 39.1491Z" fill="#BD9B60"/>
<path d="M58.7624 26.5101C58.3397 25.9482 57.7219 25.427 56.9091 24.9467C56.0914 24.457 55.1112 24.1173 53.9684 23.9277C52.8351 23.7333 51.8169 23.7615 50.9139 24.0123L50.6052 23.4154C51.3125 22.8094 51.9034 22.0595 52.3779 21.1657C52.8569 20.2575 53.1588 19.3088 53.2837 18.3195C53.4082 17.3064 53.3529 16.3984 53.1177 15.5953L53.7146 15.2866C54.0449 15.7163 54.4678 16.116 54.9833 16.4859C55.4939 16.8463 56.0658 17.1509 56.6989 17.3999C57.3366 17.6345 57.9996 17.802 58.688 17.9024C59.7109 18.0459 60.6549 18.002 61.52 17.7707L61.8287 18.3676C61.3615 18.7414 60.9317 19.2338 60.5393 19.8451C60.1563 20.4514 59.8431 21.0997 59.5997 21.79C59.3514 22.4708 59.2006 23.1313 59.1473 23.7713C59.0694 24.7121 59.1401 25.5222 59.3593 26.2014L58.7624 26.5101Z" fill="#BD9B60"/>
<path d="M96.4423 16.1959L94.7003 16.2782L93.6555 13.8288L89.1885 14.0399L88.3953 16.5762L86.6293 16.6596L90.1255 6.07478L91.9874 5.98678L96.4423 16.1959ZM91.1074 7.87043L89.6193 12.65L93.0795 12.4865L91.1074 7.87043Z" fill="#BD9B60"/>
<path d="M103.874 12.2384L102.456 11.941C100.525 11.5381 99.4983 10.4346 99.6579 8.77824C99.8412 6.87504 101.437 5.8312 103.826 6.06132C106.119 6.28222 107.512 7.67021 107.513 9.74388L105.849 9.58357C105.766 8.28157 105.092 7.59784 103.675 7.4613C102.345 7.3332 101.406 7.90181 101.311 8.88923C101.233 9.70147 101.735 10.1598 102.921 10.4428L104.259 10.7404C106.441 11.1998 107.437 12.2923 107.267 14.0601C107.1 15.7881 105.643 16.8131 103.552 16.7403L103.292 17.2778L103.411 17.2893C104.199 17.3652 104.685 17.9987 104.603 18.8508C104.52 19.7108 103.862 20.2019 102.914 20.1107L101.592 19.9833L101.691 18.9561L102.846 19.0673C103.22 19.1034 103.436 18.9553 103.465 18.6527C103.494 18.3501 103.296 18.1542 102.945 18.1205L102.523 18.0798L102.2 17.5182L102.582 16.6388C100.417 16.2455 99.1769 14.8561 99.1573 12.9736L100.846 13.1362C100.927 14.4621 101.728 15.1501 103.305 15.302C104.587 15.4255 105.516 14.88 105.612 13.8846C105.692 13.0485 105.095 12.4926 103.874 12.2384Z" fill="#BD9B60"/>
<path d="M112.822 7.29655L114.429 7.69451L113.406 11.8258L118.384 13.0581L119.407 8.92686L120.991 9.31906L118.49 19.4221L116.906 19.0299L118.011 14.5647L113.033 13.3323L111.928 17.7975L110.321 17.3995L112.822 7.29655Z" fill="#BD9B60"/>
<path d="M130.462 23.9747L128.853 23.3023L128.959 20.6415L124.833 18.9173L123.029 20.8688L121.397 20.1871L129.094 12.1228L130.813 12.8415L130.462 23.9747ZM129.211 14.166L125.818 17.8463L129.014 19.1818L129.211 14.166Z" fill="#BD9B60"/>
<path d="M144.506 19.9681L145.899 20.8192L140.471 29.6998L138.983 28.7904L138.815 19.2177L134.601 26.112L133.188 25.2484L138.616 16.3677L140.397 17.4566L140.481 26.5552L144.506 19.9681Z" fill="#BD9B60"/>
<path d="M163.596 55.1258C164.135 54.6742 164.623 54.0299 165.06 53.1931C165.506 52.3508 165.794 51.3541 165.924 50.203C166.058 49.061 165.977 48.0457 165.679 47.1571L166.259 46.8175C166.901 47.4921 167.681 48.0429 168.598 48.4698C169.531 48.9005 170.494 49.1523 171.488 49.2251C172.506 49.2963 173.41 49.1935 174.2 48.9165L174.54 49.4964C174.128 49.8487 173.751 50.292 173.408 50.8262C173.075 51.355 172.801 51.9421 172.586 52.5874C172.385 53.2365 172.252 53.9074 172.188 54.6001C172.099 55.6291 172.192 56.5695 172.468 57.4213L171.888 57.7609C171.491 57.3139 170.976 56.9105 170.345 56.5507C169.72 56.2001 169.056 55.9213 168.354 55.7144C167.661 55.5021 166.993 55.3861 166.351 55.3665C165.408 55.3381 164.603 55.4512 163.936 55.7057L163.596 55.1258Z" fill="#BD9B60"/>
<path d="M175.962 97.3091L175.9 95.5662L178.361 94.55L178.202 90.0808L175.675 89.2582L175.612 87.4914L186.156 91.1103L186.222 92.9732L175.962 97.3091ZM184.349 92.0713L179.587 90.5278L179.71 93.9896L184.349 92.0713Z" fill="#BD9B60"/>
<path d="M179.83 104.789L180.144 103.375C180.571 101.45 181.687 100.436 183.341 100.616C185.242 100.822 186.266 102.43 186.007 104.816C185.758 107.106 184.354 108.483 182.28 108.459L182.461 106.797C183.764 106.729 184.455 106.064 184.609 104.648C184.753 103.32 184.196 102.374 183.21 102.267C182.399 102.179 181.934 102.676 181.637 103.859L181.323 105.193C180.837 107.369 179.733 108.351 177.967 108.16C176.241 107.972 175.234 106.503 175.332 104.413L174.798 104.146L174.785 104.266C174.7 105.053 174.06 105.531 173.209 105.438C172.35 105.345 171.867 104.681 171.97 103.735L172.113 102.414L173.139 102.526L173.014 103.679C172.973 104.053 173.119 104.27 173.421 104.303C173.723 104.335 173.922 104.14 173.96 103.79L174.005 103.368L174.571 103.051L175.446 103.444C175.865 101.285 177.269 100.061 179.152 100.064L178.969 101.75C177.642 101.816 176.944 102.609 176.773 104.184C176.634 105.464 177.169 106.399 178.163 106.507C178.998 106.598 179.561 106.007 179.83 104.789Z" fill="#BD9B60"/>
<path d="M184.666 113.789L184.249 115.392L180.13 114.322L178.841 119.286L182.96 120.356L182.55 121.935L172.476 119.319L172.887 117.74L177.339 118.896L178.628 113.932L174.175 112.776L174.592 111.173L184.666 113.789Z" fill="#BD9B60"/>
<path d="M167.793 131.24L168.482 129.638L171.142 129.773L172.911 125.666L170.979 123.841L171.678 122.217L179.659 130.001L178.921 131.713L167.793 131.24ZM177.614 130.096L173.971 126.663L172.601 129.844L177.614 130.096Z" fill="#BD9B60"/>
<path d="M171.646 145.328L170.779 146.711L161.959 141.187L162.884 139.709L172.458 139.645L165.61 135.356L166.489 133.952L175.31 139.477L174.202 141.246L165.103 141.23L171.646 145.328Z" fill="#BD9B60"/>
<path d="M136.262 164.015C136.707 164.559 137.346 165.054 138.178 165.5C139.015 165.956 140.009 166.255 141.159 166.397C142.299 166.544 143.315 166.474 144.207 166.186L144.54 166.77C143.858 167.404 143.299 168.178 142.862 169.091C142.421 170.018 142.158 170.978 142.074 171.972C141.992 172.989 142.085 173.894 142.353 174.687L141.769 175.02C141.421 174.604 140.982 174.223 140.452 173.874C139.927 173.535 139.343 173.255 138.7 173.032C138.053 172.824 137.384 172.684 136.692 172.612C135.664 172.511 134.723 172.594 133.868 172.861L133.535 172.277C133.986 171.884 134.395 171.375 134.762 170.748C135.12 170.126 135.406 169.465 135.62 168.765C135.84 168.075 135.964 167.409 135.991 166.767C136.029 165.824 135.925 165.017 135.678 164.348L136.262 164.015Z" fill="#BD9B60"/>
<path d="M93.9433 175.916L95.6867 175.873L96.6768 178.345L101.147 178.233L101.997 175.715L103.764 175.671L100.034 186.175L98.1701 186.222L93.9433 175.916ZM99.0918 184.358L100.686 179.613L97.2228 179.7L99.0918 184.358Z" fill="#BD9B60"/>
<path d="M86.4154 179.697L87.8258 180.028C89.7458 180.478 90.7457 181.606 90.5462 183.258C90.3169 185.156 88.6967 186.161 86.314 185.873C84.0266 185.597 82.6673 184.176 82.7162 182.102L84.3761 182.303C84.4282 183.607 85.085 184.306 86.4987 184.477C87.8251 184.637 88.7774 184.092 88.8964 183.107C88.9942 182.297 88.5031 181.826 87.3239 181.515L85.9939 181.185C83.8236 180.673 82.8545 179.557 83.0674 177.793C83.2756 176.07 84.7569 175.08 86.8452 175.204L87.1189 174.673L86.9997 174.658C86.2135 174.563 85.7434 173.918 85.8461 173.069C85.9497 172.211 86.6195 171.736 87.5646 171.85L88.883 172.009L88.7593 173.034L87.6076 172.895C87.2344 172.849 87.0156 172.992 86.9792 173.294C86.9427 173.596 87.1361 173.797 87.4855 173.839L87.9065 173.89L88.2165 174.459L87.8132 175.329C89.9674 175.774 91.1739 177.193 91.148 179.076L89.4642 178.872C89.4151 177.545 88.6302 176.838 87.0576 176.648C85.7789 176.493 84.8374 177.016 84.7175 178.009C84.6168 178.843 85.2006 179.413 86.4154 179.697Z" fill="#BD9B60"/>
<path d="M77.3628 184.426L75.7648 183.991L76.8811 179.884L71.9326 178.539L70.8163 182.646L69.2414 182.218L71.9714 172.175L73.5463 172.603L72.3397 177.042L77.2882 178.387L78.4947 173.948L80.0927 174.382L77.3628 184.426Z" fill="#BD9B60"/>
<path d="M60.1006 167.361L61.6948 168.068L61.5313 170.726L65.6193 172.539L67.4649 170.627L69.0811 171.344L61.2125 179.24L59.5085 178.484L60.1006 167.361ZM61.1393 177.195L64.6113 173.589L61.4448 172.184L61.1393 177.195Z" fill="#BD9B60"/>
<path d="M45.9603 171.035L44.5885 170.151L50.2265 161.402L51.6925 162.347L51.6327 171.921L56.0097 165.129L57.4016 166.026L51.7636 174.775L50.0085 173.644L50.1423 164.546L45.9603 171.035Z" fill="#BD9B60"/>
<path d="M25.309 131.007C24.7328 131.41 24.1907 132.01 23.6826 132.805C23.1649 133.606 22.7916 134.574 22.5628 135.709C22.3293 136.835 22.3224 137.854 22.5419 138.765L21.9347 139.053C21.3535 138.325 20.6244 137.709 19.7475 137.204C18.8564 136.693 17.9186 136.359 16.9343 136.2C15.9261 136.041 15.0167 136.065 14.206 136.272L13.9181 135.665C14.3588 135.35 14.7729 134.941 15.1604 134.438C15.5382 133.94 15.8624 133.379 16.1331 132.755C16.3895 132.126 16.5798 131.469 16.7038 130.785C16.8825 129.767 16.8712 128.822 16.67 127.95L17.2772 127.662C17.6345 128.142 18.1119 128.588 18.7092 129.001C19.302 129.405 19.9391 129.74 20.6206 130.008C21.2925 130.279 21.9473 130.453 22.5851 130.528C23.5227 130.638 24.3347 130.596 25.0211 130.4L25.309 131.007Z" fill="#BD9B60"/>
</svg>
