<svg width="192" height="192" viewBox="0 0 192 192" fill="none" xmlns="http://www.w3.org/2000/svg">
<path d="M110.408 100.792L144 95.9831L104.178 91.2085L119.992 72.0085L93.8497 93.8497L100.792 81.5915L96.0169 48L91.2085 87.8222L72.0085 72.0085L93.8497 98.1503L81.5915 91.2085L48 95.9831L87.8561 100.792L72.0085 119.992L98.1503 98.1503L91.2085 110.375L96.0169 144L100.792 104.144L119.992 119.992L98.1503 93.8497L110.408 100.792Z" fill="#BD9B60"/>
<path d="M86.4655 175.424L88.2054 175.544L88.9595 178.098L93.4209 178.406L94.5024 175.978L96.2662 176.1L91.5678 186.209L89.7083 186.081L86.4655 175.424ZM90.8005 184.312L92.832 179.736L89.3762 179.498L90.8005 184.312Z" fill="#BD9B60"/>
<path d="M78.6194 178.487L79.9929 178.948C81.8627 179.574 82.7534 180.79 82.4011 182.417C81.9963 184.285 80.2896 185.135 77.944 184.627C75.6923 184.139 74.471 182.598 74.7125 180.538L76.3466 180.892C76.2772 182.195 76.8661 182.953 78.2578 183.254C79.5635 183.537 80.5624 183.083 80.7725 182.113C80.9452 181.316 80.5 180.802 79.3549 180.382L78.0613 179.93C75.9481 179.218 75.0869 178.016 75.463 176.281C75.8305 174.584 77.3975 173.737 79.4652 174.054L79.7871 173.55L79.6698 173.525C78.8958 173.357 78.4878 172.671 78.669 171.835C78.8519 170.99 79.563 170.579 80.4934 170.781L81.7913 171.062L81.5728 172.071L80.4391 171.825C80.0716 171.746 79.8406 171.867 79.7762 172.165C79.7119 172.462 79.8857 172.679 80.2297 172.754L80.6441 172.844L80.8998 173.439L80.4174 174.268C82.5208 174.912 83.5901 176.437 83.3892 178.309L81.7317 177.95C81.8062 176.623 81.0905 175.846 79.5424 175.511C78.2836 175.238 77.2976 175.671 77.0859 176.649C76.908 177.47 77.4363 178.092 78.6194 178.487Z" fill="#BD9B60"/>
<path d="M69.1572 182.349L67.6071 181.766L69.105 177.782L64.305 175.978L62.8072 179.961L61.2796 179.387L64.9426 169.645L66.4702 170.219L64.8512 174.525L69.6512 176.33L71.2701 172.024L72.8202 172.607L69.1572 182.349Z" fill="#BD9B60"/>
<path d="M53.5773 163.737L55.0981 164.591L54.6856 167.222L58.5852 169.411L60.6022 167.681L62.1439 168.546L53.5682 175.668L51.9428 174.755L53.5773 163.737ZM53.6875 173.625L57.483 170.361L54.4624 168.665L53.6875 173.625Z" fill="#BD9B60"/>
<path d="M39.1624 166.093L37.8776 165.086L44.2958 156.893L45.6687 157.968L44.7294 167.496L49.712 161.135L51.0156 162.157L44.5974 170.35L42.9537 169.063L43.923 160.015L39.1624 166.093Z" fill="#BD9B60"/>
<path d="M26.5234 133.46C25.9615 133.883 25.4403 134.5 24.96 135.313C24.4703 136.131 24.1306 137.111 23.941 138.254C23.7466 139.387 23.7748 140.405 24.0256 141.308L23.4287 141.617C22.8227 140.91 22.0728 140.319 21.179 139.844C20.2708 139.365 19.3221 139.063 18.3328 138.939C17.3197 138.814 16.4117 138.869 15.6086 139.104L15.2999 138.508C15.7296 138.177 16.1293 137.754 16.4992 137.239C16.8596 136.728 17.1642 136.156 17.4132 135.523C17.6479 134.886 17.8153 134.223 17.9157 133.534C18.0592 132.511 18.0153 131.567 17.784 130.702L18.3809 130.393C18.7547 130.861 19.2471 131.29 19.8584 131.683C20.4647 132.066 21.113 132.379 21.8033 132.622C22.4841 132.871 23.1446 133.022 23.7846 133.075C24.7254 133.153 25.5355 133.082 26.2147 132.863L26.5234 133.46Z" fill="#BD9B60"/>
<path d="M16.2092 95.7798L16.2915 97.5219L13.8421 98.5667L14.0532 103.034L16.5895 103.827L16.6729 105.593L6.08808 102.097L6.00008 100.235L16.2092 95.7798ZM7.88374 101.115L12.6633 102.603L12.4998 99.1427L7.88374 101.115Z" fill="#BD9B60"/>
<path d="M12.2517 88.3486L11.9543 89.7667C11.5514 91.6969 10.4479 92.7238 8.79154 92.5643C6.88834 92.381 5.8445 90.7855 6.07462 88.3966C6.29552 86.1032 7.68351 84.7099 9.75718 84.7087L9.59687 86.373C8.29487 86.4565 7.61114 87.1301 7.4746 88.5475C7.3465 89.8774 7.91511 90.8162 8.90253 90.9113C9.71477 90.9896 10.1731 90.4872 10.4561 89.3009L10.7537 87.9632C11.2131 85.7812 12.3056 84.7854 14.0734 84.9557C15.8014 85.1221 16.8264 86.5791 16.7536 88.6698L17.2911 88.9305L17.3026 88.811C17.3785 88.0227 18.012 87.5372 18.8641 87.6193C19.7241 87.7021 20.2152 88.3602 20.124 89.3078L19.9966 90.6297L18.9694 90.5308L19.0806 89.3761C19.1167 89.0019 18.9686 88.7867 18.666 88.7575C18.3634 88.7284 18.1675 88.9265 18.1338 89.2769L18.0931 89.6989L17.5315 90.0226L16.6521 89.6405C16.2588 91.8048 14.8694 93.0453 12.9869 93.0648L13.1495 91.3767C14.4754 91.2954 15.1634 90.4937 15.3153 88.917C15.4388 87.6349 14.8933 86.7063 13.8979 86.6105C13.0618 86.5299 12.5059 87.1274 12.2517 88.3486Z" fill="#BD9B60"/>
<path d="M7.30985 79.4004L7.70782 77.793L11.8391 78.8158L13.0714 73.838L8.94016 72.8152L9.33236 71.2311L19.4354 73.7323L19.0432 75.3165L14.578 74.211L13.3456 79.1887L17.8108 80.2942L17.4128 81.9016L7.30985 79.4004Z" fill="#BD9B60"/>
<path d="M23.988 61.7603L23.3156 63.3695L20.6548 63.2634L18.9306 67.3897L20.8821 69.1935L20.2004 70.8248L12.1361 63.1287L12.8548 61.4088L23.988 61.7603ZM14.1793 63.0113L17.8596 66.4046L19.1951 63.2084L14.1793 63.0113Z" fill="#BD9B60"/>
<path d="M19.9814 47.7157L20.8325 46.3232L29.7131 51.7509L28.8037 53.239L19.231 53.4076L26.1253 57.6213L25.2617 59.0343L16.381 53.6066L17.4699 51.825L26.5685 51.7416L19.9814 47.7157Z" fill="#BD9B60"/>
<path d="M55.1391 28.626C54.6875 28.087 54.0432 27.5989 53.2064 27.1619C52.3641 26.7157 51.3674 26.4279 50.2163 26.2986C49.0743 26.1638 48.059 26.2453 47.1704 26.5432L46.8308 25.9633C47.5054 25.3211 48.0562 24.5412 48.4831 23.6237C48.9138 22.6917 49.1656 21.7284 49.2384 20.734C49.3096 19.7157 49.2068 18.8118 48.9298 18.0222L49.5097 17.6827C49.862 18.0944 50.3053 18.4714 50.8395 18.8137C51.3683 19.1468 51.9554 19.4211 52.6007 19.6365C53.2498 19.8374 53.9207 19.9699 54.6134 20.034C55.6424 20.1236 56.5828 20.0303 57.4346 19.754L57.7742 20.3339C57.3272 20.7316 56.9238 21.2459 56.564 21.8769C56.2134 22.5025 55.9346 23.1663 55.7277 23.8685C55.5154 24.5614 55.3994 25.2288 55.3798 25.8707C55.3514 26.8144 55.4645 27.6196 55.719 28.2864L55.1391 28.626Z" fill="#BD9B60"/>
<path d="M97.3224 16.2603L95.5795 16.3224L94.5633 13.861L90.0941 14.0202L89.2715 16.5471L87.5047 16.61L91.1236 6.06652L92.9865 6.00016L97.3224 16.2603ZM92.0846 7.87345L90.5411 12.6354L94.0029 12.5121L92.0846 7.87345Z" fill="#BD9B60"/>
<path d="M104.802 12.3922L103.388 12.0777C101.463 11.6514 100.449 10.5355 100.629 8.88125C100.835 6.98042 102.443 5.95599 104.829 6.21502C107.12 6.46369 108.496 7.86845 108.472 9.94198L106.81 9.76151C106.742 8.45858 106.077 7.76675 104.661 7.61306C103.333 7.46886 102.388 8.02605 102.28 9.01226C102.192 9.82349 102.689 10.2878 103.872 10.5852L105.206 10.899C107.382 11.3847 108.365 12.4892 108.173 14.2549C107.986 15.9807 106.516 16.988 104.427 16.8899L104.16 17.4242L104.279 17.4372C105.066 17.5226 105.544 18.1619 105.452 19.0129C105.358 19.8719 104.694 20.355 103.748 20.2523L102.428 20.109L102.539 19.083L103.692 19.2082C104.066 19.2488 104.283 19.1034 104.316 18.8011C104.349 18.4989 104.153 18.3006 103.803 18.2626L103.381 18.2169L103.065 17.6514L103.457 16.7766C101.298 16.3571 100.074 14.9529 100.078 13.0702L101.764 13.2533C101.829 14.5801 102.622 15.2777 104.197 15.4487C105.477 15.5877 106.413 15.0535 106.521 14.0594C106.611 13.2243 106.02 12.6612 104.802 12.3922Z" fill="#BD9B60"/>
<path d="M113.803 7.55663L115.406 7.97288L114.336 12.0922L119.299 13.3812L120.369 9.26179L121.948 9.67199L119.332 19.7459L117.753 19.3357L118.909 14.8833L113.946 13.5944L112.789 18.0467L111.187 17.6305L113.803 7.55663Z" fill="#BD9B60"/>
<path d="M131.253 24.4296L129.652 23.7398L129.787 21.0802L125.679 19.3113L123.854 21.243L122.231 20.5437L130.014 12.5636L131.726 13.3009L131.253 24.4296ZM130.109 14.6079L126.676 18.2511L129.858 19.6213L130.109 14.6079Z" fill="#BD9B60"/>
<path d="M145.341 20.5765L146.724 21.4427L141.2 30.2636L139.722 29.338L139.658 19.764L135.369 26.6119L133.966 25.733L139.49 16.912L141.26 18.0203L141.244 27.1193L145.341 20.5765Z" fill="#BD9B60"/>
<path d="M164.028 55.9603C164.572 55.5147 165.067 54.8759 165.514 54.044C165.969 53.2067 166.268 52.2133 166.41 51.0636C166.558 49.9233 166.487 48.9071 166.199 48.0153L166.783 47.6822C167.418 48.3639 168.191 48.9233 169.104 49.3604C170.031 49.8014 170.992 50.0639 171.985 50.1478C173.003 50.2303 173.908 50.1375 174.7 49.8694L175.033 50.453C174.618 50.8007 174.236 51.2398 173.888 51.7701C173.549 52.2952 173.268 52.8792 173.045 53.5221C172.837 54.1689 172.697 54.8383 172.625 55.5302C172.524 56.5582 172.607 57.4995 172.874 58.3544L172.29 58.6875C171.898 58.2361 171.388 57.827 170.761 57.4602C170.139 57.1026 169.479 56.8165 168.779 56.6018C168.088 56.3818 167.422 56.2584 166.781 56.2316C165.837 56.1928 165.031 56.2969 164.361 56.5439L164.028 55.9603Z" fill="#BD9B60"/>
<path d="M175.93 98.2789L175.886 96.5354L178.358 95.5453L178.246 91.0747L175.728 90.2254L175.684 88.4579L186.189 92.1886L186.235 94.0521L175.93 98.2789ZM184.372 93.1303L179.626 91.5364L179.713 94.9993L184.372 93.1303Z" fill="#BD9B60"/>
<path d="M179.71 105.807L180.041 104.396C180.491 102.476 181.619 101.476 183.271 101.676C185.169 101.905 186.174 103.525 185.886 105.908C185.61 108.196 184.189 109.555 182.116 109.506L182.316 107.846C183.62 107.794 184.32 107.137 184.49 105.723C184.651 104.397 184.105 103.445 183.12 103.326C182.31 103.228 181.84 103.719 181.528 104.898L181.198 106.228C180.686 108.399 179.57 109.368 177.807 109.155C176.083 108.947 175.094 107.465 175.217 105.377L174.686 105.103L174.672 105.222C174.577 106.009 173.932 106.479 173.082 106.376C172.224 106.273 171.749 105.603 171.863 104.658L172.022 103.339L173.047 103.463L172.908 104.615C172.863 104.988 173.006 105.207 173.307 105.243C173.609 105.279 173.81 105.086 173.852 104.737L173.903 104.316L174.472 104.006L175.342 104.409C175.788 102.255 177.207 101.048 179.089 101.074L178.886 102.758C177.558 102.807 176.851 103.592 176.661 105.165C176.507 106.443 177.029 107.385 178.022 107.505C178.856 107.605 179.426 107.022 179.71 105.807Z" fill="#BD9B60"/>
<path d="M184.439 114.859L184.005 116.457L179.898 115.341L178.553 120.29L182.66 121.406L182.232 122.981L172.188 120.251L172.616 118.676L177.055 119.882L178.4 114.934L173.961 113.727L174.395 112.129L184.439 114.859Z" fill="#BD9B60"/>
<path d="M167.375 132.122L168.082 130.527L170.739 130.691L172.552 126.603L170.64 124.757L171.357 123.141L179.253 131.01L178.498 132.714L167.375 132.122ZM177.208 131.083L173.602 127.611L172.198 130.777L177.208 131.083Z" fill="#BD9B60"/>
<path d="M171.048 146.262L170.164 147.634L161.416 141.996L162.361 140.53L171.935 140.589L165.143 136.213L166.04 134.821L174.788 140.459L173.657 142.214L164.559 142.08L171.048 146.262Z" fill="#BD9B60"/>
<path d="M131.02 166.913C131.424 167.489 132.023 168.031 132.819 168.54C133.619 169.057 134.587 169.431 135.723 169.659C136.848 169.893 137.867 169.9 138.778 169.68L139.066 170.287C138.338 170.869 137.722 171.598 137.217 172.475C136.707 173.366 136.372 174.304 136.213 175.288C136.054 176.296 136.078 177.205 136.285 178.016L135.678 178.304C135.363 177.863 134.954 177.449 134.452 177.062C133.954 176.684 133.393 176.36 132.768 176.089C132.139 175.833 131.482 175.642 130.798 175.518C129.781 175.34 128.836 175.351 127.963 175.552L127.675 174.945C128.155 174.588 128.601 174.11 129.015 173.513C129.418 172.92 129.754 172.283 130.021 171.602C130.293 170.93 130.466 170.275 130.541 169.637C130.652 168.699 130.609 167.887 130.413 167.201L131.02 166.913Z" fill="#BD9B60"/>
</svg>
