<svg width="192" height="192" viewBox="0 0 192 192" fill="none" xmlns="http://www.w3.org/2000/svg">
<g clip-path="url(#clip0_81_7286)">
<path d="M110.408 100.792L144 95.9831L104.178 91.2085L119.992 72.0085L93.8497 93.8497L100.792 81.5915L96.0169 48L91.2085 87.8222L72.0085 72.0085L93.8497 98.1503L81.5915 91.2085L48 95.9831L87.8561 100.792L72.0085 119.992L98.1503 98.1503L91.2085 110.375L96.0169 144L100.792 104.144L119.992 119.992L98.1503 93.8497L110.408 100.792Z" fill="#BD9B60"/>
<path d="M145.38 159.017L146.695 157.872L149.034 159.144L152.407 156.207L151.455 153.726L152.788 152.565L156.614 163.035L155.208 164.259L145.38 159.017ZM154.73 162.236L152.931 157.565L150.319 159.84L154.73 162.236Z" fill="#BD9B60"/>
<path d="M141.998 166.731L143.295 166.086C145.06 165.206 146.55 165.436 147.451 166.836C148.486 168.443 147.88 170.251 145.862 171.55C143.925 172.797 141.971 172.571 140.686 170.944L142.091 170.039C142.964 171.009 143.916 171.129 145.113 170.358C146.237 169.634 146.621 168.606 146.084 167.772C145.642 167.086 144.964 167.038 143.858 167.551L142.623 168.146C140.626 169.137 139.167 168.896 138.206 167.403C137.266 165.943 137.775 164.236 139.461 162.998L139.333 162.414L139.232 162.479C138.566 162.908 137.792 162.712 137.329 161.992C136.861 161.265 137.074 160.472 137.874 159.957L138.991 159.238L139.549 160.106L138.574 160.734C138.258 160.937 138.181 161.187 138.345 161.442C138.51 161.698 138.787 161.729 139.083 161.538L139.439 161.309L140.041 161.549L140.286 162.476C142.229 161.444 144.063 161.766 145.245 163.232L143.819 164.15C142.933 163.16 141.878 163.116 140.546 163.974C139.463 164.671 139.072 165.675 139.613 166.515C140.068 167.222 140.882 167.288 141.998 166.731Z" fill="#BD9B60"/>
<path d="M138.038 176.153L136.53 176.836L134.772 172.96L130.102 175.078L131.859 178.954L130.373 179.628L126.075 170.15L127.561 169.476L129.461 173.665L134.131 171.547L132.231 167.358L133.739 166.674L138.038 176.153Z" fill="#BD9B60"/>
<path d="M113.861 174.009L115.54 173.537L117.108 175.689L121.414 174.479L121.616 171.83L123.319 171.352L122.29 182.451L120.496 182.955L113.861 174.009ZM120.93 180.922L121.306 175.931L117.971 176.867L120.93 180.922Z" fill="#BD9B60"/>
<path d="M105.333 185.867L103.713 186.064L102.458 175.732L104.189 175.522L110.262 182.923L109.288 174.902L110.932 174.702L112.187 185.034L110.114 185.286L104.402 178.203L105.333 185.867Z" fill="#BD9B60"/>
<path d="M73.3213 171.729C73.2229 172.425 73.2912 173.231 73.5263 174.145C73.7582 175.07 74.2111 176.003 74.8852 176.945C75.549 177.884 76.2889 178.584 77.1048 179.045L76.901 179.686C75.9724 179.614 75.0243 179.726 74.0568 180.023C73.0759 180.326 72.1915 180.784 71.4038 181.395C70.5993 182.023 69.9963 182.704 69.5948 183.439L68.9544 183.235C69.0247 182.697 69.0083 182.116 68.9053 181.49C68.7991 180.874 68.6102 180.254 68.3386 179.63C68.0535 179.013 67.7031 178.426 67.2873 177.868C66.6655 177.044 65.967 176.407 65.1917 175.959L65.3955 175.319C65.9902 175.385 66.6423 175.34 67.352 175.186C68.0515 175.028 68.7314 174.791 69.3916 174.475C70.0487 174.169 70.6223 173.809 71.1125 173.394C71.8329 172.783 72.3557 172.161 72.681 171.525L73.3213 171.729Z" fill="#BD9B60"/>
<path d="M39.3843 152.379L40.6744 153.552L39.6811 156.023L42.9891 159.033L45.3433 157.8L46.6511 158.99L36.6943 164.002L35.3155 162.748L39.3843 152.379ZM37.2697 162.038L41.7016 159.711L39.1393 157.38L37.2697 162.038Z" fill="#BD9B60"/>
<path d="M31.3313 149.922L32.1237 151.135C33.2037 152.785 33.1495 154.292 31.8655 155.35C30.3901 156.566 28.5239 156.176 26.9974 154.324C25.5319 152.546 25.5281 150.58 26.9936 149.113L28.0571 150.403C27.1955 151.382 27.1883 152.342 28.094 153.441C28.9438 154.472 30.0097 154.734 30.7752 154.103C31.4048 153.584 31.3737 152.904 30.735 151.865L29.9996 150.709C28.7814 148.841 28.8498 147.365 30.2202 146.235C31.5598 145.131 33.3149 145.436 34.7417 146.966L35.3061 146.771L35.2298 146.678C34.7261 146.067 34.8307 145.276 35.4912 144.731C36.1579 144.182 36.9706 144.3 37.5761 145.034L38.4208 146.059L37.6244 146.715L36.8866 145.82C36.6475 145.53 36.3906 145.483 36.156 145.676C35.9215 145.869 35.923 146.148 36.1469 146.42L36.4166 146.747L36.2483 147.373L35.3563 147.724C36.6086 149.533 36.5033 151.392 35.186 152.737L34.1073 151.429C34.9874 150.434 34.907 149.38 33.8995 148.158C33.0802 147.164 32.0379 146.893 31.2663 147.529C30.6181 148.064 30.6475 148.879 31.3313 149.922Z" fill="#BD9B60"/>
<path d="M21.5096 147.09L20.6543 145.671L24.2988 143.473L21.6504 139.082L18.0059 141.28L17.1631 139.883L26.0756 134.508L26.9184 135.905L22.9794 138.281L25.6278 142.672L29.5668 140.296L30.4221 141.714L21.5096 147.09Z" fill="#BD9B60"/>
<path d="M20.8293 122.823L21.4917 124.436L19.5352 126.243L21.2338 130.38L23.8891 130.275L24.5607 131.911L13.4164 132.171L12.7084 130.447L20.8293 122.823ZM14.7782 130.643L19.7799 130.44L18.4642 127.236L14.7782 130.643Z" fill="#BD9B60"/>
<path d="M8.06518 115.725L7.68233 114.138L17.7999 111.697L18.209 113.392L11.5594 120.28L19.4139 118.385L19.8023 119.995L9.68479 122.436L9.19496 120.407L15.5698 113.914L8.06518 115.725Z" fill="#BD9B60"/>
<path d="M19.427 77.3662C18.7265 77.3044 17.9259 77.4149 17.0251 77.6976C16.114 77.9776 15.2057 78.4789 14.3003 79.2014C13.3975 79.9136 12.7373 80.6892 12.3195 81.5282L11.6694 81.3582C11.6922 80.4271 11.5302 79.4862 11.1833 78.5356C10.8288 77.572 10.3257 76.7128 9.67405 75.9582C9.00443 75.1878 8.29254 74.6214 7.53836 74.2589L7.7083 73.6087C8.24858 73.6507 8.8286 73.6038 9.44839 73.4682C10.0579 73.3298 10.6669 73.1086 11.2756 72.8046C11.8766 72.4877 12.4447 72.1069 12.9798 71.6625C13.7708 70.9983 14.3698 70.2673 14.7767 69.4696L15.4269 69.6396C15.392 70.2368 15.4705 70.8857 15.6622 71.5863C15.8567 72.2766 16.129 72.9431 16.4791 73.5859C16.819 74.226 17.2089 74.7799 17.6489 75.2477C18.2961 75.9351 18.9455 76.4245 19.5969 76.7161L19.427 77.3662Z" fill="#BD9B60"/>
<path d="M40.5113 38.7942L39.3227 40.0705L36.8637 39.0487L33.8161 42.3214L35.0212 44.6899L33.8163 45.9837L28.92 35.9693L30.1902 34.6052L40.5113 38.7942ZM30.8771 36.5676L33.1529 41.0262L35.5136 38.4911L30.8771 36.5676Z" fill="#BD9B60"/>
<path d="M43.0652 30.7699L41.8428 31.5476C40.18 32.6076 38.6743 32.5351 37.6315 31.2384C36.4334 29.7484 36.846 27.887 38.7163 26.383C40.5118 24.9392 42.4784 24.9592 43.9277 26.4424L42.6247 27.4901C41.6554 26.6167 40.6959 26.5979 39.5862 27.4903C38.545 28.3275 38.2703 29.3902 38.892 30.1632C39.4033 30.7991 40.0829 30.7762 41.1296 30.1501L42.2947 29.4288C44.177 28.2334 45.6528 28.3196 46.7658 29.7036C47.8536 31.0565 47.5269 32.8077 45.98 34.2159L46.1688 34.7827L46.2623 34.7075C46.8795 34.2111 47.6695 34.3254 48.2059 34.9924C48.7473 35.6657 48.6194 36.4769 47.8775 37.0735L46.8426 37.9057L46.1959 37.1015L47.0999 36.3745C47.3929 36.1389 47.4435 35.8827 47.253 35.6458C47.0625 35.4089 46.7839 35.4071 46.5095 35.6277L46.1791 35.8934L45.5552 35.7175L45.2144 34.8213C43.3909 36.0515 41.5327 35.9238 40.2037 34.5903L41.5254 33.5275C42.5097 34.4196 43.564 34.3519 44.7984 33.3593C45.8021 32.5522 46.0856 31.5132 45.459 30.7339C44.9326 30.0793 44.1168 30.0989 43.0652 30.7699Z" fill="#BD9B60"/>
<path d="M46.0101 20.9865L47.4378 20.1475L49.5942 23.8167L54.0153 21.2185L51.8589 17.5492L53.2659 16.7223L58.5393 25.6955L57.1323 26.5224L54.8016 22.5565L50.3806 25.1548L52.7113 29.1206L51.2836 29.9596L46.0101 20.9865Z" fill="#BD9B60"/>
<path d="M70.2807 20.5779L68.6603 21.2228L66.8751 19.2468L62.7201 20.9003L62.7956 23.5566L61.1528 24.2103L61.0137 13.0638L62.7456 12.3746L70.2807 20.5779ZM62.5265 14.4422L62.6751 19.4458L65.8936 18.165L62.5265 14.4422Z" fill="#BD9B60"/>
<path d="M77.5177 7.89179L79.1082 7.52627L81.4393 17.6699L79.7396 18.0605L72.9244 11.3361L74.7341 19.2108L73.1202 19.5817L70.789 9.43809L72.824 8.97045L79.2467 15.4157L77.5177 7.89179Z" fill="#BD9B60"/>
<path d="M115.751 19.6983C115.821 18.9986 115.719 18.1968 115.447 17.2929C115.177 16.3788 114.686 15.465 113.973 14.5515C113.271 13.6409 112.503 12.972 111.669 12.545L111.846 11.8968C112.777 11.93 113.719 11.7785 114.674 11.4422C115.641 11.0984 116.506 10.6049 117.268 9.96169C118.046 9.30068 118.62 8.59513 118.991 7.84503L119.639 8.02219C119.591 8.56196 119.631 9.14248 119.76 9.76374C119.892 10.3747 120.106 10.9862 120.403 11.5982C120.714 12.2027 121.088 12.775 121.527 13.315C122.182 14.1134 122.906 14.7204 123.699 15.1362L123.522 15.7845C122.925 15.743 122.275 15.8142 121.573 15.9981C120.88 16.1849 120.211 16.4497 119.564 16.7927C118.92 17.1254 118.362 17.5092 117.89 17.9439C117.195 18.5835 116.698 19.2273 116.4 19.8755L115.751 19.6983Z" fill="#BD9B60"/>
<path d="M154.091 41.2064L152.827 40.0044L153.875 37.5563L150.635 34.4741L148.254 35.654L146.973 34.4355L157.039 29.6457L158.389 30.9304L154.091 41.2064ZM156.42 31.5964L151.937 33.8248L154.447 36.2122L156.42 31.5964Z" fill="#BD9B60"/>
<path d="M162.087 43.8564L161.324 42.6246C160.284 40.9492 160.375 39.4445 161.684 38.4174C163.188 37.2373 165.045 37.6724 166.526 39.5607C167.948 41.3734 167.904 43.3397 166.404 44.7709L165.372 43.4554C166.257 42.4968 166.287 41.5375 165.408 40.4171C164.584 39.366 163.524 39.0785 162.744 39.6907C162.102 40.1944 162.117 40.8742 162.73 41.9284L163.437 43.1021C164.61 44.9987 164.506 46.4733 163.109 47.5695C161.743 48.641 159.996 48.2932 158.606 46.7294L158.037 46.9114L158.111 47.0058C158.6 47.6289 158.476 48.4174 157.803 48.9457C157.123 49.479 156.313 49.3413 155.726 48.5923L154.906 47.5474L155.718 46.9105L156.434 47.8231C156.666 48.119 156.922 48.1727 157.161 47.985C157.4 47.7974 157.405 47.5188 157.188 47.2419L156.926 46.9083L157.11 46.2865L158.01 45.9565C156.802 44.1183 156.952 42.2618 158.301 40.949L159.348 42.2834C158.444 43.2569 158.499 44.3119 159.477 45.5582C160.272 46.5716 161.307 46.8676 162.094 46.2504C162.755 45.7319 162.745 44.9159 162.087 43.8564Z" fill="#BD9B60"/>
<path d="M171.832 46.9136L172.655 48.3507L168.961 50.4654L171.509 54.9156L175.203 52.8009L176.014 54.2172L166.982 59.3887L166.171 57.9724L170.163 55.6868L167.615 51.2366L163.623 53.5222L162.8 52.0851L171.832 46.9136Z" fill="#BD9B60"/>
<path d="M171.972 71.1862L171.344 69.559L173.34 67.7952L171.731 63.6226L169.074 63.6696L168.438 62.0199L179.585 62.0005L180.256 63.7397L171.972 71.1862ZM178.191 63.4985L173.186 63.5933L174.432 66.8254L178.191 63.4985Z" fill="#BD9B60"/>
<path d="M184.568 78.587L184.913 80.1822L174.74 82.3817L174.372 80.6771L181.184 73.9495L173.286 75.6571L172.936 74.0385L183.109 71.839L183.551 73.8798L177.023 80.2185L184.568 78.587Z" fill="#BD9B60"/>
<path d="M170.867 121.494C171.559 121.616 172.367 121.576 173.289 121.372C174.221 121.172 175.169 120.752 176.134 120.111C177.095 119.48 177.82 118.764 178.309 117.965L178.942 118.191C178.838 119.116 178.918 120.068 179.181 121.045C179.451 122.036 179.877 122.935 180.461 123.744C181.061 124.569 181.721 125.195 182.441 125.622L182.215 126.255C181.68 126.166 181.099 126.162 180.469 126.244C179.85 126.329 179.224 126.496 178.591 126.746C177.965 127.01 177.366 127.34 176.794 127.736C175.949 128.329 175.289 129.005 174.814 129.764L174.181 129.539C174.267 128.947 174.246 128.293 174.116 127.579C173.982 126.874 173.768 126.187 173.475 125.516C173.192 124.849 172.852 124.263 172.454 123.759C171.869 123.018 171.265 122.474 170.641 122.127L170.867 121.494Z" fill="#BD9B60"/>
</g>
<defs>
<clipPath id="clip0_81_7286">
<rect width="192" height="192" fill="white"/>
</clipPath>
</defs>
</svg>
