<svg width="192" height="192" viewBox="0 0 192 192" fill="none" xmlns="http://www.w3.org/2000/svg">
<g clip-path="url(#clip0_81_7278)">
<path d="M110.408 100.792L144 95.9831L104.178 91.2085L119.992 72.0085L93.8497 93.8497L100.792 81.5915L96.0169 48L91.2085 87.8222L72.0085 72.0085L93.8497 98.1503L81.5915 91.2085L48 95.9831L87.8561 100.792L72.0085 119.992L98.1503 98.1503L91.2085 110.375L96.0169 144L100.792 104.144L119.992 119.992L98.1503 93.8497L110.408 100.792Z" fill="#BD9B60"/>
<path d="M33.2049 145.367L34.3503 146.682L33.0777 149.021L36.0149 152.393L38.4961 151.442L39.6573 152.775L29.187 156.601L27.9628 155.195L33.2049 145.367ZM29.986 154.716L34.6576 152.918L32.3824 150.306L29.986 154.716Z" fill="#BD9B60"/>
<path d="M25.4913 141.984L26.1364 143.282C27.0158 145.047 26.7857 146.536 25.3866 147.437C23.779 148.472 21.9712 147.867 20.672 145.849C19.4247 143.912 19.6511 141.958 21.2782 140.672L22.1834 142.078C21.2131 142.95 21.0936 143.903 21.8645 145.1C22.5877 146.223 23.6157 146.608 24.4498 146.071C25.1358 145.629 25.1844 144.951 24.6717 143.844L24.0767 142.61C23.0855 140.612 23.3262 139.154 24.8195 138.192C26.2791 137.253 27.9863 137.761 29.2243 139.448L29.8078 139.319L29.7428 139.218C29.314 138.553 29.5106 137.779 30.2303 137.316C30.9567 136.848 31.75 137.06 32.2654 137.861L32.9843 138.977L32.1166 139.536L31.4886 138.561C31.2851 138.244 31.0355 138.167 30.7799 138.332C30.5244 138.496 30.4933 138.773 30.6839 139.069L30.9134 139.426L30.673 140.028L29.746 140.273C30.7779 142.215 30.4558 144.05 28.9901 145.231L28.0719 143.805C29.0624 142.92 29.1059 141.865 28.2484 140.533C27.5511 139.45 26.5477 139.059 25.7069 139.6C25.0006 140.055 24.9344 140.868 25.4913 141.984Z" fill="#BD9B60"/>
<path d="M16.0697 138.025L15.3857 136.516L19.2618 134.759L17.1439 130.088L13.2678 131.846L12.5938 130.36L22.0726 126.061L22.7467 127.548L18.5573 129.447L20.6752 134.118L24.8646 132.218L25.5485 133.726L16.0697 138.025Z" fill="#BD9B60"/>
<path d="M18.2135 113.847L18.6852 115.526L16.5333 117.095L17.7428 121.4L20.3925 121.603L20.8707 123.305L9.77086 122.277L9.2667 120.483L18.2135 113.847ZM11.2999 120.917L16.2917 121.293L15.3547 117.958L11.2999 120.917Z" fill="#BD9B60"/>
<path d="M6.35505 105.32L6.15821 103.7L16.4902 102.445L16.7006 104.176L9.29902 110.249L17.32 109.274L17.5198 110.918L7.18775 112.174L6.93591 110.101L14.0187 104.389L6.35505 105.32Z" fill="#BD9B60"/>
<path d="M20.4929 73.308C19.7967 73.2096 18.9914 73.2779 18.077 73.513C17.1525 73.7449 16.2191 74.1978 15.277 74.8719C14.3381 75.5357 13.6381 76.2756 13.177 77.0915L12.5366 76.8877C12.6083 75.9591 12.4959 75.011 12.1993 74.0435C11.8958 73.0626 11.4385 72.1782 10.8273 71.3904C10.199 70.586 9.51775 69.983 8.78362 69.5815L8.98742 68.9411C9.52475 69.0114 10.1064 68.995 10.7325 68.892C11.3484 68.7858 11.9682 68.5969 12.5919 68.3253C13.2088 68.0402 13.796 67.6898 14.3537 67.274C15.1785 66.6522 15.815 65.9537 16.2632 65.1784L16.9035 65.3822C16.8374 65.9769 16.8817 66.629 17.0365 67.3387C17.1944 68.0382 17.4314 68.7181 17.7474 69.3783C18.0532 70.0354 18.4135 70.609 18.8284 71.0992C19.4387 71.8196 20.0615 72.3424 20.6967 72.6677L20.4929 73.308Z" fill="#BD9B60"/>
<path d="M39.8434 39.371L38.6698 40.661L36.199 39.6678L33.1896 42.9758L34.4222 45.33L33.2324 46.6378L28.22 36.681L29.4744 35.3022L39.8434 39.371ZM30.184 37.2564L32.5115 41.6883L34.8426 39.126L30.184 37.2564Z" fill="#BD9B60"/>
<path d="M42.2997 31.318L41.0867 32.1104C39.4369 33.1904 37.9305 33.1362 36.8721 31.8522C35.6559 30.3768 36.046 28.5106 37.8979 26.9841C39.6758 25.5186 41.6425 25.5148 43.1096 26.9803L41.8195 28.0437C40.8397 27.1822 39.88 27.175 38.7812 28.0807C37.7502 28.9305 37.4884 29.9964 38.1194 30.7619C38.6384 31.3915 39.3177 31.3604 40.3567 30.7216L41.513 29.9862C43.3807 28.7681 44.8574 28.8365 45.987 30.2069C47.0912 31.5465 46.7858 33.3016 45.256 34.7284L45.4517 35.2928L45.5443 35.2165C46.1554 34.7127 46.9466 34.8174 47.4911 35.4779C48.0406 36.1446 47.9226 36.9573 47.188 37.5628L46.1632 38.4075L45.5068 37.6111L46.4019 36.8733C46.6921 36.6342 46.7395 36.3773 46.5462 36.1427C46.3528 35.9082 46.0742 35.9097 45.8026 36.1336L45.4754 36.4033L44.8494 36.235L44.4978 35.343C42.6893 36.5953 40.8297 36.49 39.4847 35.1727L40.7934 34.094C41.7884 34.9741 42.8418 34.8937 44.0641 33.8862C45.058 33.0669 45.3289 32.0246 44.6928 31.253C44.1585 30.6048 43.343 30.6342 42.2997 31.318Z" fill="#BD9B60"/>
<path d="M45.1326 21.4962L46.5507 20.641L48.7487 24.2855L53.1399 21.6371L50.9419 17.9926L52.3394 17.1498L57.7146 26.0623L56.3171 26.9051L53.9414 22.9661L49.5503 25.6145L51.926 29.5535L50.5079 30.4088L45.1326 21.4962Z" fill="#BD9B60"/>
<path d="M69.3993 20.816L67.786 21.4784L65.9795 19.5219L61.8427 21.2205L61.947 23.8758L60.3115 24.5474L60.0512 13.4031L61.7755 12.6951L69.3993 20.816ZM61.5789 14.7649L61.7819 19.7666L64.9863 18.4509L61.5789 14.7649Z" fill="#BD9B60"/>
<path d="M76.4973 8.05188L78.0837 7.66902L80.5253 17.7866L78.83 18.1957L71.9418 11.546L73.8373 19.4006L72.2275 19.789L69.7859 9.67148L71.8157 9.18166L78.3083 15.5565L76.4973 8.05188Z" fill="#BD9B60"/>
<path d="M114.856 19.4137C114.918 18.7132 114.807 17.9126 114.525 17.0118C114.245 16.1007 113.743 15.1924 113.021 14.287C112.309 13.3842 111.533 12.7239 110.694 12.3062L110.864 11.656C111.795 11.6789 112.736 11.5169 113.687 11.17C114.65 10.8155 115.509 10.3124 116.264 9.66075C117.034 8.99112 117.601 8.27924 117.963 7.52506L118.613 7.69499C118.571 8.23527 118.618 8.8153 118.754 9.43508C118.892 10.0446 119.114 10.6536 119.418 11.2623C119.734 11.8633 120.115 12.4314 120.56 12.9665C121.224 13.7575 121.955 14.3565 122.753 14.7634L122.583 15.4136C121.985 15.3787 121.336 15.4572 120.636 15.6489C119.946 15.8433 119.279 16.1157 118.636 16.4658C117.996 16.8057 117.442 17.1956 116.974 17.6356C116.287 18.2828 115.798 18.9322 115.506 19.5836L114.856 19.4137Z" fill="#BD9B60"/>
<path d="M153.428 40.498L152.152 39.3094L153.173 36.8504L149.901 33.8028L147.532 35.0079L146.238 33.803L156.253 28.9067L157.617 30.1769L153.428 40.498ZM155.655 30.8638L151.196 33.1396L153.731 35.5003L155.655 30.8638Z" fill="#BD9B60"/>
<path d="M161.452 43.0519L160.675 41.8295C159.615 40.1667 159.687 38.661 160.984 37.6182C162.474 36.4201 164.335 36.8327 165.839 38.703C167.283 40.4985 167.263 42.4651 165.78 43.9144L164.732 42.6114C165.605 41.6421 165.624 40.6826 164.732 39.5728C163.895 38.5317 162.832 38.257 162.059 38.8787C161.423 39.39 161.446 40.0696 162.072 41.1163L162.793 42.2814C163.989 44.1637 163.903 45.6395 162.519 46.7524C161.166 47.8403 159.414 47.5136 158.006 45.9667L157.439 46.1555L157.515 46.249C158.011 46.8662 157.897 47.6561 157.23 48.1926C156.556 48.734 155.745 48.6061 155.149 47.8642L154.316 46.8293L155.121 46.1826L155.848 47.0866C156.083 47.3796 156.339 47.4302 156.576 47.2397C156.813 47.0492 156.815 46.7706 156.595 46.4962L156.329 46.1658L156.505 45.5419L157.401 45.2011C156.171 43.3776 156.298 41.5194 157.632 40.1904L158.695 41.5121C157.803 42.4964 157.87 43.5507 158.863 44.7851C159.67 45.7888 160.709 46.0723 161.488 45.4457C162.143 44.9193 162.123 44.1035 161.452 43.0519Z" fill="#BD9B60"/>
<path d="M171.236 45.9968L172.075 47.4245L168.405 49.5809L171.004 54.002L174.673 51.8456L175.5 53.2526L166.527 58.526L165.7 57.119L169.666 54.7883L167.067 50.3673L163.102 52.698L162.263 51.2703L171.236 45.9968Z" fill="#BD9B60"/>
<path d="M171.644 70.2674L170.999 68.647L172.975 66.8618L171.322 62.7067L168.666 62.7823L168.012 61.1395L179.158 61.0004L179.848 62.7323L171.644 70.2674ZM177.78 62.5132L172.776 62.6618L174.057 65.8803L177.78 62.5132Z" fill="#BD9B60"/>
<path d="M184.33 77.5043L184.696 79.0949L174.552 81.426L174.162 79.7263L180.886 72.9111L173.011 74.7208L172.64 73.1069L182.784 70.7757L183.252 72.8107L176.807 79.2334L184.33 77.5043Z" fill="#BD9B60"/>
<path d="M172.524 115.738C173.224 115.808 174.025 115.706 174.929 115.433C175.843 115.164 176.757 114.672 177.671 113.96C178.581 113.258 179.25 112.49 179.677 111.655L180.325 111.833C180.292 112.763 180.444 113.706 180.78 114.661C181.124 115.628 181.617 116.493 182.26 117.255C182.921 118.032 183.627 118.607 184.377 118.978L184.2 119.626C183.66 119.578 183.08 119.618 182.458 119.747C181.847 119.879 181.236 120.093 180.624 120.39C180.019 120.7 179.447 121.075 178.907 121.513C178.109 122.169 177.502 122.893 177.086 123.686L176.438 123.509C176.479 122.912 176.408 122.262 176.224 121.56C176.037 120.867 175.772 120.198 175.429 119.551C175.097 118.907 174.713 118.349 174.278 117.876C173.639 117.182 172.995 116.685 172.347 116.386L172.524 115.738Z" fill="#BD9B60"/>
<path d="M151.016 154.078L152.218 152.814L154.666 153.862L157.748 150.622L156.568 148.241L157.787 146.96L162.576 157.025L161.292 158.376L151.016 154.078ZM160.626 156.406L158.397 151.924L156.01 154.434L160.626 156.406Z" fill="#BD9B60"/>
<path d="M148.366 162.074L149.598 161.311C151.273 160.271 152.778 160.362 153.805 161.671C154.985 163.175 154.55 165.031 152.662 166.513C150.849 167.935 148.883 167.891 147.451 166.391L148.767 165.359C149.725 166.244 150.685 166.274 151.805 165.395C152.856 164.57 153.144 163.511 152.531 162.731C152.028 162.089 151.348 162.103 150.294 162.717L149.12 163.424C147.223 164.597 145.749 164.493 144.653 163.095C143.581 161.729 143.929 159.982 145.493 158.593L145.311 158.024L145.216 158.098C144.593 158.587 143.805 158.463 143.276 157.789C142.743 157.11 142.881 156.3 143.63 155.713L144.675 154.893L145.312 155.705L144.399 156.421C144.103 156.653 144.05 156.908 144.237 157.148C144.425 157.387 144.703 157.392 144.98 157.175L145.314 156.913L145.936 157.096L146.266 157.997C148.104 156.788 149.96 156.939 151.273 158.288L149.939 159.335C148.965 158.431 147.91 158.486 146.664 159.464C145.651 160.259 145.355 161.294 145.972 162.081C146.49 162.742 147.306 162.732 148.366 162.074Z" fill="#BD9B60"/>
<path d="M145.309 171.819L143.871 172.642L141.757 168.948L137.307 171.496L139.421 175.19L138.005 176L132.833 166.968L134.25 166.157L136.535 170.149L140.986 167.601L138.7 163.609L140.137 162.786L145.309 171.819Z" fill="#BD9B60"/>
<path d="M121.036 171.959L122.663 171.331L124.427 173.326L128.6 171.717L128.553 169.061L130.202 168.424L130.222 179.572L128.482 180.242L121.036 171.959ZM128.724 178.177L128.629 173.172L125.397 174.418L128.724 178.177Z" fill="#BD9B60"/>
<path d="M113.635 184.555L112.04 184.9L109.84 174.727L111.545 174.359L118.273 181.171L116.565 173.273L118.184 172.923L120.383 183.096L118.342 183.537L112.004 177.009L113.635 184.555Z" fill="#BD9B60"/>
<path d="M70.7284 170.854C70.606 171.546 70.6465 172.353 70.8499 173.275C71.0498 174.207 71.4703 175.156 72.1114 176.12C72.7425 177.082 73.4578 177.807 74.2573 178.296L74.0315 178.929C73.1059 178.825 72.1545 178.905 71.1773 179.168C70.1865 179.437 69.2869 179.864 68.4785 180.447C67.6529 181.048 67.0268 181.708 66.6001 182.428L65.9672 182.202C66.056 181.667 66.0597 181.085 65.9783 180.456C65.8934 179.837 65.726 179.211 65.476 178.578C65.2125 177.952 64.8825 177.353 64.4862 176.781C63.8932 175.935 63.217 175.275 62.4577 174.801L62.6835 174.168C63.2755 174.254 63.9288 174.232 64.6434 174.102C65.3479 173.968 66.0356 173.755 66.7063 173.462C67.3735 173.179 67.9592 172.839 68.4635 172.441C69.2044 171.856 69.7484 171.252 70.0955 170.628L70.7284 170.854Z" fill="#BD9B60"/>
</g>
<defs>
<clipPath id="clip0_81_7278">
<rect width="192" height="192" fill="white"/>
</clipPath>
</defs>
</svg>
